NotoSerifBengali-Light.ufo
<glyph name="exclam" format="2">
  <advance width="314.6363636363636"/>
  <unicode hex="0021"/>
  <outline>
    <contour>
      <point x="147.8181818181818" y="183.9090909090909" type="line"/>
      <point x="180.36363636363637" y="183.9090909090909" type="line"/>
      <point x="199.1818181818182" y="714.0" type="line"/>
      <point x="128.0909090909091" y="714.0" type="line"/>
    </contour>
    <contour>
      <point x="162.9090909090909" y="-6.090909090909091" type="curve" smooth="yes"/>
      <point x="187.63636363636363" y="-6.090909090909091"/>
      <point x="208.8181818181818" y="6.7272727272727275"/>
      <point x="208.8181818181818" y="48.09090909090909" type="curve" smooth="yes"/>
      <point x="208.8181818181818" y="88.45454545454545"/>
      <point x="187.63636363636363" y="100.81818181818181"/>
      <point x="162.9090909090909" y="100.81818181818181" type="curve" smooth="yes"/>
      <point x="138.0909090909091" y="100.81818181818181"/>
      <point x="117.0" y="88.45454545454545"/>
      <point x="117.0" y="48.09090909090909" type="curve" smooth="yes"/>
      <point x="117.0" y="6.7272727272727275"/>
      <point x="138.0909090909091" y="-6.090909090909091"/>
    </contour>
  </outline>
</glyph>
<glyph name="quotedbl" format="2">
  <advance width="342.72727272727275"/>
  <unicode hex="0022"/>
  <outline>
    <contour>
      <point x="239.36363636363637" y="504.45454545454544" type="line"/>
      <point x="271.90909090909093" y="504.45454545454544" type="line"/>
      <point x="291.72727272727275" y="714.0" type="line"/>
      <point x="218.0909090909091" y="714.0" type="line"/>
    </contour>
    <contour>
      <point x="71.18181818181819" y="504.45454545454544" type="line"/>
      <point x="104.27272727272728" y="504.45454545454544" type="line"/>
      <point x="124.0909090909091" y="714.0" type="line"/>
      <point x="51.0" y="714.0" type="line"/>
    </contour>
  </outline>
</glyph>
<glyph name="numbersign" format="2">
  <advance width="559.0"/>
  <unicode hex="0023"/>
  <outline>
    <contour>
      <point x="85.9090909090909" y="0.0" type="line"/>
      <point x="129.72727272727272" y="0.0" type="line"/>
      <point x="169.0909090909091" y="211.36363636363637" type="line"/>
      <point x="328.0" y="211.36363636363637" type="line"/>
      <point x="288.09090909090907" y="0.0" type="line"/>
      <point x="331.90909090909093" y="0.0" type="line"/>
      <point x="371.8181818181818" y="211.36363636363637" type="line"/>
      <point x="501.45454545454544" y="211.36363636363637" type="line"/>
      <point x="501.45454545454544" y="252.72727272727272" type="line"/>
      <point x="380.09090909090907" y="252.72727272727272" type="line"/>
      <point x="419.8181818181818" y="467.27272727272725" type="line"/>
      <point x="534.0" y="467.27272727272725" type="line"/>
      <point x="534.0" y="509.1818181818182" type="line"/>
      <point x="428.09090909090907" y="509.1818181818182" type="line"/>
      <point x="467.0" y="714.0" type="line"/>
      <point x="423.1818181818182" y="714.0" type="line"/>
      <point x="384.27272727272725" y="509.1818181818182" type="line"/>
      <point x="225.36363636363637" y="509.1818181818182" type="line"/>
      <point x="263.72727272727275" y="714.0" type="line"/>
      <point x="219.9090909090909" y="714.0" type="line"/>
      <point x="181.54545454545453" y="509.1818181818182" type="line"/>
      <point x="57.0" y="509.1818181818182" type="line"/>
      <point x="57.0" y="467.27272727272725" type="line"/>
      <point x="173.8181818181818" y="467.27272727272725" type="line"/>
      <point x="133.0" y="252.72727272727272" type="line"/>
      <point x="24.454545454545453" y="252.72727272727272" type="line"/>
      <point x="24.454545454545453" y="211.36363636363637" type="line"/>
      <point x="125.27272727272727" y="211.36363636363637" type="line"/>
    </contour>
    <contour>
      <point x="177.9090909090909" y="252.72727272727272" type="line"/>
      <point x="217.63636363636363" y="467.27272727272725" type="line"/>
      <point x="376.54545454545456" y="467.27272727272725" type="line"/>
      <point x="336.8181818181818" y="252.72727272727272" type="line"/>
    </contour>
  </outline>
</glyph>
<glyph name="percent" format="2">
  <advance width="890.0"/>
  <unicode hex="0025"/>
  <outline>
    <contour>
      <point x="231.72727272727272" y="0.0" type="line"/>
      <point x="280.09090909090907" y="0.0" type="line"/>
      <point x="653.7272727272727" y="714.0" type="line"/>
      <point x="605.3636363636364" y="714.0" type="line"/>
    </contour>
    <contour>
      <point x="205.72727272727272" y="280.0" type="curve" smooth="yes"/>
      <point x="312.90909090909093" y="280.0"/>
      <point x="359.54545454545456" y="369.90909090909093"/>
      <point x="359.54545454545456" y="503.0" type="curve"/>
      <point x="359.54545454545456" y="637.9090909090909"/>
      <point x="309.1818181818182" y="724.0"/>
      <point x="206.72727272727272" y="724.0" type="curve" smooth="yes"/>
      <point x="98.18181818181819" y="724.0"/>
      <point x="51.90909090909091" y="637.0"/>
      <point x="51.90909090909091" y="503.0" type="curve" smooth="yes"/>
      <point x="51.90909090909091" y="367.1818181818182"/>
      <point x="97.18181818181819" y="280.0"/>
    </contour>
    <contour>
      <point x="204.8181818181818" y="312.6363636363636" type="curve" smooth="yes"/>
      <point x="137.8181818181818" y="312.6363636363636"/>
      <point x="109.9090909090909" y="382.0"/>
      <point x="109.9090909090909" y="503.0" type="curve"/>
      <point x="109.9090909090909" y="614.1818181818181"/>
      <point x="135.0" y="690.8181818181819"/>
      <point x="205.27272727272728" y="690.8181818181819" type="curve" smooth="yes"/>
      <point x="273.27272727272725" y="690.8181818181819"/>
      <point x="301.0" y="624.3636363636364"/>
      <point x="301.0" y="503.0" type="curve" smooth="yes"/>
      <point x="301.0" y="388.45454545454544"/>
      <point x="276.45454545454544" y="312.6363636363636"/>
    </contour>
    <contour>
      <point x="683.7272727272727" y="-10.0" type="curve" smooth="yes"/>
      <point x="790.9090909090909" y="-10.0"/>
      <point x="837.5454545454545" y="79.9090909090909"/>
      <point x="837.5454545454545" y="213.0" type="curve" smooth="yes"/>
      <point x="837.5454545454545" y="347.90909090909093"/>
      <point x="787.1818181818181" y="434.0"/>
      <point x="684.7272727272727" y="434.0" type="curve" smooth="yes"/>
      <point x="575.6363636363636" y="434.0"/>
      <point x="529.9090909090909" y="347.0"/>
      <point x="529.9090909090909" y="213.0" type="curve" smooth="yes"/>
      <point x="529.9090909090909" y="77.18181818181819"/>
      <point x="575.1818181818181" y="-10.0"/>
    </contour>
    <contour>
      <point x="682.8181818181819" y="22.636363636363637" type="curve" smooth="yes"/>
      <point x="615.8181818181819" y="22.636363636363637"/>
      <point x="587.9090909090909" y="92.0"/>
      <point x="587.9090909090909" y="213.0" type="curve" smooth="yes"/>
      <point x="587.9090909090909" y="324.1818181818182"/>
      <point x="613.0" y="400.8181818181818"/>
      <point x="683.8181818181819" y="400.8181818181818" type="curve" smooth="yes"/>
      <point x="751.2727272727273" y="400.8181818181818"/>
      <point x="778.4545454545455" y="334.3636363636364"/>
      <point x="778.4545454545455" y="213.0" type="curve" smooth="yes"/>
      <point x="778.4545454545455" y="98.45454545454545"/>
      <point x="754.4545454545455" y="22.636363636363637"/>
    </contour>
  </outline>
</glyph>
<glyph name="quotesingle" format="2">
  <advance width="175.0909090909091"/>
  <unicode hex="0027"/>
  <outline>
    <contour>
      <point x="71.18181818181819" y="504.45454545454544" type="line"/>
      <point x="104.27272727272728" y="504.45454545454544" type="line"/>
      <point x="124.0909090909091" y="714.0" type="line"/>
      <point x="51.0" y="714.0" type="line"/>
    </contour>
  </outline>
</glyph>
<glyph name="parenleft" format="2">
  <advance width="342.0"/>
  <unicode hex="0028"/>
  <outline>
    <contour>
      <point x="258.54545454545456" y="-120.54545454545455" type="curve"/>
      <point x="258.54545454545456" y="-86.18181818181819" type="line"/>
      <point x="115.0909090909091" y="-10.09090909090909"/>
      <point x="101.36363636363636" y="157.0909090909091"/>
      <point x="101.36363636363636" y="316.09090909090907" type="curve" smooth="yes"/>
      <point x="101.36363636363636" y="475.09090909090907"/>
      <point x="113.72727272727272" y="645.9090909090909"/>
      <point x="258.54545454545456" y="716.8181818181819" type="curve"/>
      <point x="258.54545454545456" y="751.6363636363636" type="line"/>
      <point x="100.0" y="690.2727272727273"/>
      <point x="36.27272727272727" y="572.2727272727273"/>
      <point x="36.27272727272727" y="316.09090909090907" type="curve" smooth="yes"/>
      <point x="36.27272727272727" y="59.81818181818182"/>
      <point x="100.0" y="-58.27272727272727"/>
    </contour>
  </outline>
</glyph>
<glyph name="parenright" format="2">
  <advance width="384.6363636363636"/>
  <unicode hex="0029"/>
  <outline>
    <contour>
      <point x="126.0909090909091" y="-120.54545454545455" type="line"/>
      <point x="284.6363636363636" y="-58.27272727272727"/>
      <point x="348.3636363636364" y="59.81818181818182"/>
      <point x="348.3636363636364" y="316.09090909090907" type="curve" smooth="yes"/>
      <point x="348.3636363636364" y="572.2727272727273"/>
      <point x="284.6363636363636" y="690.2727272727273"/>
      <point x="126.0909090909091" y="751.6363636363636" type="curve"/>
      <point x="126.0909090909091" y="716.8181818181819" type="line"/>
      <point x="270.90909090909093" y="645.9090909090909"/>
      <point x="282.8181818181818" y="475.09090909090907"/>
      <point x="282.8181818181818" y="316.09090909090907" type="curve" smooth="yes"/>
      <point x="282.8181818181818" y="157.0909090909091"/>
      <point x="269.54545454545456" y="-10.09090909090909"/>
      <point x="126.0909090909091" y="-86.18181818181819" type="curve"/>
    </contour>
  </outline>
</glyph>
<glyph name="asterisk" format="2">
  <advance width="459.27272727272725"/>
  <unicode hex="002A"/>
  <outline>
    <contour>
      <point x="194.72727272727272" y="378.0" type="line"/>
      <point x="260.45454545454544" y="378.0" type="line"/>
      <point x="239.36363636363637" y="545.2727272727273" type="line"/>
      <point x="384.1818181818182" y="455.90909090909093" type="line"/>
      <point x="409.90909090909093" y="513.0909090909091" type="line"/>
      <point x="248.36363636363637" y="569.0" type="line"/>
      <point x="409.90909090909093" y="625.4545454545455" type="line"/>
      <point x="384.1818181818182" y="683.4545454545455" type="line"/>
      <point x="239.36363636363637" y="592.7272727272727" type="line"/>
      <point x="259.0" y="760.0" type="line"/>
      <point x="194.72727272727272" y="760.0" type="line"/>
      <point x="214.72727272727272" y="593.1818181818181" type="line"/>
      <point x="70.9090909090909" y="686.0" type="line"/>
      <point x="43.72727272727273" y="626.4545454545455" type="line"/>
      <point x="204.8181818181818" y="569.0" type="line"/>
      <point x="43.72727272727273" y="512.0909090909091" type="line"/>
      <point x="70.9090909090909" y="453.90909090909093" type="line"/>
      <point x="213.72727272727272" y="545.2727272727273" type="line"/>
    </contour>
  </outline>
</glyph>
<glyph name="plus" format="2">
  <advance width="559.0"/>
  <unicode hex="002B"/>
  <outline>
    <contour>
      <point x="256.8181818181818" y="143.0" type="line"/>
      <point x="300.6363636363636" y="143.0" type="line"/>
      <point x="300.6363636363636" y="335.90909090909093" type="line"/>
      <point x="494.0" y="335.90909090909093" type="line"/>
      <point x="494.0" y="379.1818181818182" type="line"/>
      <point x="300.6363636363636" y="379.1818181818182" type="line"/>
      <point x="300.6363636363636" y="572.0" type="line"/>
      <point x="256.8181818181818" y="572.0" type="line"/>
      <point x="256.8181818181818" y="379.1818181818182" type="line"/>
      <point x="64.45454545454545" y="379.1818181818182" type="line"/>
      <point x="64.45454545454545" y="335.90909090909093" type="line"/>
      <point x="256.8181818181818" y="335.90909090909093" type="line"/>
    </contour>
  </outline>
</glyph>
<glyph name="comma" format="2">
  <advance width="289.54545454545456"/>
  <unicode hex="002C"/>
  <outline>
    <contour>
      <point x="83.45454545454545" y="-154.0" type="line"/>
      <point x="183.0" y="-123.18181818181819"/>
      <point x="221.0909090909091" y="-55.0"/>
      <point x="221.0909090909091" y="20.727272727272727" type="curve" smooth="yes"/>
      <point x="221.0909090909091" y="74.9090909090909"/>
      <point x="191.54545454545456" y="100.81818181818181"/>
      <point x="157.54545454545456" y="100.81818181818181" type="curve" smooth="yes"/>
      <point x="129.27272727272728" y="100.81818181818181"/>
      <point x="111.45454545454545" y="83.45454545454545"/>
      <point x="111.45454545454545" y="55.63636363636364" type="curve" smooth="yes"/>
      <point x="111.45454545454545" y="13.181818181818182"/>
      <point x="171.54545454545453" y="11.09090909090909"/>
      <point x="171.54545454545453" y="-26.18181818181818" type="curve" smooth="yes"/>
      <point x="171.54545454545453" y="-61.0"/>
      <point x="145.72727272727272" y="-103.0"/>
      <point x="83.45454545454545" y="-122.18181818181819" type="curve"/>
    </contour>
  </outline>
</glyph>
<glyph name="period" format="2">
  <advance width="271.72727272727275"/>
  <unicode hex="002E"/>
  <outline>
    <contour>
      <point x="162.9090909090909" y="-6.090909090909091" type="curve" smooth="yes"/>
      <point x="187.63636363636363" y="-6.090909090909091"/>
      <point x="208.27272727272728" y="6.7272727272727275"/>
      <point x="208.27272727272728" y="48.09090909090909" type="curve" smooth="yes"/>
      <point x="208.27272727272728" y="88.45454545454545"/>
      <point x="187.63636363636363" y="100.81818181818181"/>
      <point x="162.9090909090909" y="100.81818181818181" type="curve" smooth="yes"/>
      <point x="138.0909090909091" y="100.81818181818181"/>
      <point x="117.0" y="88.45454545454545"/>
      <point x="117.0" y="48.09090909090909" type="curve" smooth="yes"/>
      <point x="117.0" y="6.7272727272727275"/>
      <point x="138.0909090909091" y="-6.090909090909091"/>
    </contour>
  </outline>
</glyph>
<glyph name="zero" format="2">
  <advance width="559.0"/>
  <unicode hex="0030"/>
  <outline>
    <contour>
      <point x="280.0" y="-10.0" type="curve" smooth="yes"/>
      <point x="432.45454545454544" y="-10.0"/>
      <point x="507.6363636363636" y="125.63636363636364"/>
      <point x="507.6363636363636" y="358.0" type="curve" smooth="yes"/>
      <point x="507.6363636363636" y="592.7272727272727"/>
      <point x="432.0" y="724.0"/>
      <point x="281.0" y="724.0" type="curve" smooth="yes"/>
      <point x="120.45454545454545" y="724.0"/>
      <point x="51.36363636363636" y="590.9090909090909"/>
      <point x="51.36363636363636" y="359.0" type="curve" smooth="yes"/>
      <point x="51.36363636363636" y="122.0"/>
      <point x="121.36363636363636" y="-10.0"/>
    </contour>
    <contour>
      <point x="279.54545454545456" y="30.81818181818182" type="curve" smooth="yes"/>
      <point x="165.72727272727272" y="30.81818181818182"/>
      <point x="120.81818181818181" y="142.27272727272728"/>
      <point x="120.81818181818181" y="358.0" type="curve" smooth="yes"/>
      <point x="120.81818181818181" y="566.0"/>
      <point x="161.1818181818182" y="683.1818181818181"/>
      <point x="280.54545454545456" y="683.1818181818181" type="curve" smooth="yes"/>
      <point x="396.54545454545456" y="683.1818181818181"/>
      <point x="438.1818181818182" y="569.1818181818181"/>
      <point x="438.1818181818182" y="358.0" type="curve" smooth="yes"/>
      <point x="438.1818181818182" y="145.9090909090909"/>
      <point x="393.8181818181818" y="30.81818181818182"/>
    </contour>
  </outline>
</glyph>
<glyph name="one" format="2">
  <advance width="559.0"/>
  <unicode hex="0031"/>
  <outline>
    <contour>
      <point x="109.63636363636364" y="0.0" type="line"/>
      <point x="472.45454545454544" y="0.0" type="line"/>
      <point x="472.45454545454544" y="32.90909090909091" type="line"/>
      <point x="400.72727272727275" y="32.90909090909091" type="line" smooth="yes"/>
      <point x="353.45454545454544" y="32.90909090909091"/>
      <point x="330.54545454545456" y="41.90909090909091"/>
      <point x="330.54545454545456" y="111.27272727272727" type="curve" smooth="yes"/>
      <point x="330.54545454545456" y="718.0" type="line"/>
      <point x="286.54545454545456" y="718.0" type="line"/>
      <point x="234.27272727272728" y="673.2727272727273" type="line" smooth="yes"/>
      <point x="173.72727272727272" y="617.9090909090909"/>
      <point x="129.1818181818182" y="591.7272727272727"/>
      <point x="76.0" y="584.0" type="curve"/>
      <point x="76.0" y="561.5454545454545"/>
      <point x="91.0909090909091" y="545.4545454545455"/>
      <point x="117.81818181818181" y="545.4545454545455" type="curve" smooth="yes"/>
      <point x="161.0" y="545.4545454545455"/>
      <point x="204.45454545454547" y="582.0"/>
      <point x="262.72727272727275" y="655.3636363636364" type="curve"/>
      <point x="262.72727272727275" y="111.27272727272727" type="line" smooth="yes"/>
      <point x="262.72727272727275" y="41.90909090909091"/>
      <point x="239.8181818181818" y="32.90909090909091"/>
      <point x="192.54545454545453" y="32.90909090909091" type="curve" smooth="yes"/>
      <point x="109.63636363636364" y="32.90909090909091" type="line"/>
    </contour>
  </outline>
</glyph>
<glyph name="two" format="2">
  <advance width="559.0"/>
  <unicode hex="0032"/>
  <outline>
    <contour>
      <point x="59.18181818181818" y="0.0" type="line"/>
      <point x="481.0" y="0.0" type="line"/>
      <point x="486.0" y="152.0909090909091" type="line"/>
      <point x="454.0" y="152.0909090909091" type="line"/>
      <point x="450.90909090909093" y="127.72727272727272" type="line" smooth="yes"/>
      <point x="444.6363636363636" y="81.0"/>
      <point x="433.72727272727275" y="55.0"/>
      <point x="377.3636363636364" y="55.0" type="curve" smooth="yes"/>
      <point x="115.45454545454545" y="55.0" type="line"/>
      <point x="297.1818181818182" y="258.8181818181818" type="line" smooth="yes"/>
      <point x="403.09090909090907" y="377.54545454545456"/>
      <point x="459.1818181818182" y="447.6363636363636"/>
      <point x="459.1818181818182" y="549.7272727272727" type="curve" smooth="yes"/>
      <point x="459.1818181818182" y="647.0909090909091"/>
      <point x="392.1818181818182" y="724.0"/>
      <point x="261.6363636363636" y="724.0" type="curve" smooth="yes"/>
      <point x="135.8181818181818" y="724.0"/>
      <point x="73.81818181818181" y="659.2727272727273"/>
      <point x="73.81818181818181" y="595.4545454545455" type="curve" smooth="yes"/>
      <point x="73.81818181818181" y="556.7272727272727"/>
      <point x="98.63636363636364" y="542.7272727272727"/>
      <point x="131.1818181818182" y="542.7272727272727" type="curve"/>
      <point x="131.1818181818182" y="624.4545454545455"/>
      <point x="167.45454545454547" y="685.3636363636364"/>
      <point x="261.6363636363636" y="685.3636363636364" type="curve" smooth="yes"/>
      <point x="356.1818181818182" y="685.3636363636364"/>
      <point x="391.3636363636364" y="618.0"/>
      <point x="391.3636363636364" y="543.3636363636364" type="curve" smooth="yes"/>
      <point x="391.3636363636364" y="447.72727272727275"/>
      <point x="351.27272727272725" y="385.8181818181818"/>
      <point x="242.0909090909091" y="260.09090909090907" type="curve" smooth="yes"/>
      <point x="59.18181818181818" y="49.81818181818182" type="line"/>
    </contour>
  </outline>
</glyph>
<glyph name="three" format="2">
  <advance width="559.0"/>
  <unicode hex="0033"/>
  <outline>
    <contour>
      <point x="250.1818181818182" y="-9.545454545454545" type="curve" smooth="yes"/>
      <point x="367.0" y="-9.545454545454545"/>
      <point x="485.54545454545456" y="49.81818181818182"/>
      <point x="485.54545454545456" y="196.72727272727272" type="curve" smooth="yes"/>
      <point x="485.54545454545456" y="329.6363636363636"/>
      <point x="381.8181818181818" y="370.72727272727275"/>
      <point x="304.6363636363636" y="378.72727272727275" type="curve"/>
      <point x="386.6363636363636" y="398.90909090909093"/>
      <point x="460.54545454545456" y="458.1818181818182"/>
      <point x="460.54545454545456" y="560.9090909090909" type="curve" smooth="yes"/>
      <point x="460.54545454545456" y="662.8181818181819"/>
      <point x="383.8181818181818" y="724.0"/>
      <point x="264.6363636363636" y="724.0" type="curve" smooth="yes"/>
      <point x="140.1818181818182" y="724.0"/>
      <point x="78.18181818181819" y="662.0"/>
      <point x="78.18181818181819" y="596.3636363636364" type="curve" smooth="yes"/>
      <point x="78.18181818181819" y="559.0"/>
      <point x="102.0909090909091" y="545.0"/>
      <point x="134.63636363636363" y="545.0" type="curve"/>
      <point x="135.0909090909091" y="625.3636363636364"/>
      <point x="171.8181818181818" y="685.3636363636364"/>
      <point x="264.1818181818182" y="685.3636363636364" type="curve" smooth="yes"/>
      <point x="348.45454545454544" y="685.3636363636364"/>
      <point x="391.6363636363636" y="636.6363636363636"/>
      <point x="391.6363636363636" y="553.1818181818181" type="curve" smooth="yes"/>
      <point x="391.6363636363636" y="451.8181818181818"/>
      <point x="317.6363636363636" y="391.3636363636364"/>
      <point x="217.36363636363637" y="391.3636363636364" type="curve"/>
      <point x="190.36363636363637" y="391.3636363636364" type="line"/>
      <point x="190.36363636363637" y="352.1818181818182" type="line"/>
      <point x="218.27272727272728" y="352.1818181818182" type="line" smooth="yes"/>
      <point x="347.09090909090907" y="352.1818181818182"/>
      <point x="416.09090909090907" y="294.0"/>
      <point x="416.09090909090907" y="197.72727272727272" type="curve" smooth="yes"/>
      <point x="416.09090909090907" y="80.9090909090909"/>
      <point x="342.90909090909093" y="31.272727272727273"/>
      <point x="249.8181818181818" y="31.272727272727273" type="curve" smooth="yes"/>
      <point x="152.9090909090909" y="31.272727272727273"/>
      <point x="106.45454545454545" y="81.36363636363636"/>
      <point x="106.45454545454545" y="151.8181818181818" type="curve"/>
      <point x="80.72727272727273" y="151.8181818181818"/>
      <point x="61.63636363636363" y="135.0909090909091"/>
      <point x="61.63636363636363" y="101.45454545454545" type="curve" smooth="yes"/>
      <point x="61.63636363636363" y="44.72727272727273"/>
      <point x="119.0909090909091" y="-9.545454545454545"/>
    </contour>
  </outline>
</glyph>
<glyph name="four" format="2">
  <advance width="559.0"/>
  <unicode hex="0034"/>
  <outline>
    <contour>
      <point x="237.72727272727272" y="0.0" type="line"/>
      <point x="506.90909090909093" y="0.0" type="line"/>
      <point x="506.90909090909093" y="32.0" type="line"/>
      <point x="482.09090909090907" y="32.0" type="line" smooth="yes"/>
      <point x="434.8181818181818" y="32.0"/>
      <point x="411.90909090909093" y="41.90909090909091"/>
      <point x="411.90909090909093" y="111.27272727272727" type="curve" smooth="yes"/>
      <point x="411.90909090909093" y="201.45454545454547" type="line"/>
      <point x="544.0909090909091" y="201.45454545454547" type="line"/>
      <point x="544.0909090909091" y="243.36363636363637" type="line"/>
      <point x="411.90909090909093" y="243.36363636363637" type="line"/>
      <point x="411.90909090909093" y="714.0" type="line"/>
      <point x="347.3636363636364" y="714.0" type="line"/>
      <point x="18.818181818181817" y="231.54545454545453" type="line"/>
      <point x="18.818181818181817" y="201.45454545454547" type="line"/>
      <point x="347.27272727272725" y="201.45454545454547" type="line"/>
      <point x="347.27272727272725" y="111.27272727272727" type="line" smooth="yes"/>
      <point x="347.27272727272725" y="41.90909090909091"/>
      <point x="324.3636363636364" y="32.0"/>
      <point x="277.09090909090907" y="32.0" type="curve" smooth="yes"/>
      <point x="237.72727272727272" y="32.0" type="line"/>
    </contour>
    <contour>
      <point x="74.0" y="243.36363636363637" type="line"/>
      <point x="248.8181818181818" y="500.0" type="line" smooth="yes"/>
      <point x="277.72727272727275" y="542.3636363636364"/>
      <point x="339.0" y="637.4545454545455"/>
      <point x="352.0" y="662.6363636363636" type="curve"/>
      <point x="348.8181818181818" y="600.6363636363636"/>
      <point x="347.27272727272725" y="500.45454545454544"/>
      <point x="347.27272727272725" y="442.45454545454544" type="curve" smooth="yes"/>
      <point x="347.27272727272725" y="243.36363636363637" type="line"/>
    </contour>
  </outline>
</glyph>
<glyph name="five" format="2">
  <advance width="559.0"/>
  <unicode hex="0035"/>
  <outline>
    <contour>
      <point x="245.8181818181818" y="-10.0" type="curve" smooth="yes"/>
      <point x="395.1818181818182" y="-10.0"/>
      <point x="478.72727272727275" y="82.9090909090909"/>
      <point x="478.72727272727275" y="217.54545454545453" type="curve" smooth="yes"/>
      <point x="478.72727272727275" y="356.72727272727275"/>
      <point x="380.6363636363636" y="426.27272727272725"/>
      <point x="259.8181818181818" y="426.27272727272725" type="curve" smooth="yes"/>
      <point x="201.72727272727272" y="426.27272727272725"/>
      <point x="164.63636363636363" y="416.8181818181818"/>
      <point x="138.72727272727272" y="407.54545454545456" type="curve"/>
      <point x="160.45454545454547" y="657.6363636363636" type="line"/>
      <point x="355.3636363636364" y="657.6363636363636" type="line" smooth="yes"/>
      <point x="403.27272727272725" y="657.6363636363636"/>
      <point x="411.27272727272725" y="649.6363636363636"/>
      <point x="414.3636363636364" y="610.2727272727273" type="curve" smooth="yes"/>
      <point x="417.0" y="581.1818181818181" type="line"/>
      <point x="449.0" y="581.1818181818181" type="line"/>
      <point x="444.90909090909093" y="714.0" type="line"/>
      <point x="125.45454545454545" y="714.0" type="line"/>
      <point x="94.36363636363636" y="365.3636363636364" type="line"/>
      <point x="114.27272727272727" y="359.72727272727275" type="line"/>
      <point x="144.27272727272728" y="373.90909090909093"/>
      <point x="181.0" y="384.90909090909093"/>
      <point x="243.63636363636363" y="384.90909090909093" type="curve" smooth="yes"/>
      <point x="341.54545454545456" y="384.90909090909093"/>
      <point x="409.27272727272725" y="329.3636363636364"/>
      <point x="409.27272727272725" y="217.0909090909091" type="curve" smooth="yes"/>
      <point x="409.27272727272725" y="91.9090909090909"/>
      <point x="344.6363636363636" y="33.54545454545455"/>
      <point x="242.63636363636363" y="33.54545454545455" type="curve" smooth="yes"/>
      <point x="164.8181818181818" y="33.54545454545455"/>
      <point x="108.45454545454545" y="71.18181818181819"/>
      <point x="108.45454545454545" y="139.0909090909091" type="curve"/>
      <point x="80.0" y="139.0909090909091"/>
      <point x="63.63636363636364" y="123.9090909090909"/>
      <point x="63.63636363636364" y="91.9090909090909" type="curve" smooth="yes"/>
      <point x="63.63636363636364" y="42.81818181818182"/>
      <point x="116.45454545454545" y="-10.0"/>
    </contour>
  </outline>
</glyph>
<glyph name="six" format="2">
  <advance width="559.0"/>
  <unicode hex="0036"/>
  <outline>
    <contour>
      <point x="293.0" y="-10.0" type="curve" smooth="yes"/>
      <point x="427.1818181818182" y="-10.0"/>
      <point x="498.90909090909093" y="85.72727272727273"/>
      <point x="498.90909090909093" y="224.9090909090909" type="curve" smooth="yes"/>
      <point x="498.90909090909093" y="356.09090909090907"/>
      <point x="419.90909090909093" y="430.8181818181818"/>
      <point x="302.0" y="430.8181818181818" type="curve" smooth="yes"/>
      <point x="230.63636363636363" y="430.8181818181818"/>
      <point x="177.45454545454547" y="401.27272727272725"/>
      <point x="139.0" y="370.6363636363636" type="curve"/>
      <point x="142.8181818181818" y="584.5454545454545"/>
      <point x="211.0909090909091" y="686.4545454545455"/>
      <point x="321.54545454545456" y="686.4545454545455" type="curve" smooth="yes"/>
      <point x="392.3636363636364" y="686.4545454545455"/>
      <point x="423.6363636363636" y="643.0909090909091"/>
      <point x="423.6363636363636" y="572.6363636363636" type="curve"/>
      <point x="457.27272727272725" y="572.6363636363636"/>
      <point x="475.6363636363636" y="591.0"/>
      <point x="475.6363636363636" y="621.2727272727273" type="curve" smooth="yes"/>
      <point x="475.6363636363636" y="672.5454545454545"/>
      <point x="428.45454545454544" y="724.0"/>
      <point x="322.0" y="724.0" type="curve" smooth="yes"/>
      <point x="163.63636363636363" y="724.0"/>
      <point x="70.0909090909091" y="583.6363636363636"/>
      <point x="70.0909090909091" y="350.0" type="curve" smooth="yes"/>
      <point x="70.0909090909091" y="99.27272727272727"/>
      <point x="160.45454545454547" y="-10.0"/>
    </contour>
    <contour>
      <point x="296.0" y="31.363636363636363" type="curve" smooth="yes"/>
      <point x="195.54545454545456" y="31.363636363636363"/>
      <point x="141.36363636363637" y="125.0"/>
      <point x="138.45454545454547" y="325.0" type="curve"/>
      <point x="168.1818181818182" y="353.0"/>
      <point x="221.36363636363637" y="391.6363636363636"/>
      <point x="291.09090909090907" y="391.6363636363636" type="curve" smooth="yes"/>
      <point x="383.54545454545456" y="391.6363636363636"/>
      <point x="430.54545454545456" y="328.90909090909093"/>
      <point x="430.54545454545456" y="219.9090909090909" type="curve" smooth="yes"/>
      <point x="430.54545454545456" y="98.45454545454545"/>
      <point x="385.6363636363636" y="31.363636363636363"/>
    </contour>
  </outline>
</glyph>
<glyph name="seven" format="2">
  <advance width="559.0"/>
  <unicode hex="0037"/>
  <outline>
    <contour>
      <point x="186.8181818181818" y="0.0" type="line"/>
      <point x="241.36363636363637" y="0.0" type="line"/>
      <point x="502.8181818181818" y="688.1818181818181" type="line"/>
      <point x="502.8181818181818" y="714.0" type="line"/>
      <point x="64.45454545454545" y="714.0" type="line"/>
      <point x="59.0" y="549.8181818181819" type="line"/>
      <point x="91.0" y="549.8181818181819" type="line"/>
      <point x="95.0" y="605.7272727272727" type="line" smooth="yes"/>
      <point x="98.0" y="646.0"/>
      <point x="113.36363636363636" y="657.6363636363636"/>
      <point x="149.36363636363637" y="657.6363636363636" type="curve" smooth="yes"/>
      <point x="442.8181818181818" y="657.6363636363636" type="line"/>
    </contour>
  </outline>
</glyph>
<glyph name="eight" format="2">
  <advance width="559.0"/>
  <unicode hex="0038"/>
  <outline>
    <contour>
      <point x="274.3636363636364" y="-10.0" type="curve" smooth="yes"/>
      <point x="412.6363636363636" y="-10.0"/>
      <point x="502.09090909090907" y="57.63636363636364"/>
      <point x="502.09090909090907" y="178.72727272727272" type="curve" smooth="yes"/>
      <point x="502.09090909090907" y="273.0"/>
      <point x="443.72727272727275" y="327.3636363636364"/>
      <point x="334.27272727272725" y="378.90909090909093" type="curve"/>
      <point x="423.90909090909093" y="420.27272727272725"/>
      <point x="475.6363636363636" y="466.72727272727275"/>
      <point x="475.6363636363636" y="556.5454545454545" type="curve" smooth="yes"/>
      <point x="475.6363636363636" y="652.4545454545455"/>
      <point x="408.1818181818182" y="724.0"/>
      <point x="283.1818181818182" y="724.0" type="curve" smooth="yes"/>
      <point x="150.0909090909091" y="724.0"/>
      <point x="80.81818181818181" y="647.9090909090909"/>
      <point x="80.81818181818181" y="551.8181818181819" type="curve" smooth="yes"/>
      <point x="80.81818181818181" y="461.90909090909093"/>
      <point x="137.0" y="411.3636363636364"/>
      <point x="221.1818181818182" y="368.3636363636364" type="curve"/>
      <point x="122.81818181818181" y="326.3636363636364"/>
      <point x="56.90909090909091" y="273.1818181818182"/>
      <point x="56.90909090909091" y="174.45454545454547" type="curve" smooth="yes"/>
      <point x="56.90909090909091" y="66.27272727272728"/>
      <point x="129.8181818181818" y="-10.0"/>
    </contour>
    <contour>
      <point x="277.54545454545456" y="26.454545454545453" type="curve" smooth="yes"/>
      <point x="174.9090909090909" y="26.454545454545453"/>
      <point x="122.54545454545455" y="82.45454545454545"/>
      <point x="122.54545454545455" y="172.27272727272728" type="curve" smooth="yes"/>
      <point x="122.54545454545455" y="251.8181818181818"/>
      <point x="172.0909090909091" y="313.54545454545456"/>
      <point x="263.27272727272725" y="348.90909090909093" type="curve"/>
      <point x="400.0" y="290.6363636363636"/>
      <point x="439.72727272727275" y="240.63636363636363"/>
      <point x="439.72727272727275" y="166.72727272727272" type="curve" smooth="yes"/>
      <point x="439.72727272727275" y="78.36363636363636"/>
      <point x="375.0" y="26.454545454545453"/>
    </contour>
    <contour>
      <point x="292.09090909090907" y="397.3636363636364" type="curve"/>
      <point x="195.36363636363637" y="440.6363636363636"/>
      <point x="144.8181818181818" y="477.72727272727275"/>
      <point x="144.8181818181818" y="558.3636363636364" type="curve" smooth="yes"/>
      <point x="144.8181818181818" y="635.0909090909091"/>
      <point x="195.36363636363637" y="687.0"/>
      <point x="280.3636363636364" y="687.0" type="curve" smooth="yes"/>
      <point x="378.45454545454544" y="687.0"/>
      <point x="414.3636363636364" y="622.2727272727273"/>
      <point x="414.3636363636364" y="557.6363636363636" type="curve" smooth="yes"/>
      <point x="414.3636363636364" y="481.27272727272725"/>
      <point x="383.0" y="435.72727272727275"/>
    </contour>
  </outline>
</glyph>
<glyph name="nine" format="2">
  <advance width="559.0"/>
  <unicode hex="0039"/>
  <outline>
    <contour>
      <point x="227.0" y="-11.0" type="curve"/>
      <point x="414.6363636363636" y="-11.0"/>
      <point x="488.90909090909093" y="153.45454545454547"/>
      <point x="488.90909090909093" y="388.0" type="curve" smooth="yes"/>
      <point x="488.90909090909093" y="617.5454545454545"/>
      <point x="400.0" y="724.0"/>
      <point x="263.1818181818182" y="724.0" type="curve" smooth="yes"/>
      <point x="132.36363636363637" y="724.0"/>
      <point x="60.09090909090909" y="624.2727272727273"/>
      <point x="60.09090909090909" y="485.27272727272725" type="curve" smooth="yes"/>
      <point x="60.09090909090909" y="357.09090909090907"/>
      <point x="132.45454545454547" y="280.45454545454544"/>
      <point x="258.0" y="280.45454545454544" type="curve" smooth="yes"/>
      <point x="336.6363636363636" y="280.45454545454544"/>
      <point x="386.45454545454544" y="315.27272727272725"/>
      <point x="420.0" y="349.8181818181818" type="curve"/>
      <point x="416.1818181818182" y="139.27272727272728"/>
      <point x="355.8181818181818" y="30.363636363636363"/>
      <point x="231.1818181818182" y="30.363636363636363" type="curve" smooth="yes"/>
      <point x="168.63636363636363" y="30.363636363636363"/>
      <point x="132.27272727272728" y="59.18181818181819"/>
      <point x="112.0" y="103.45454545454545" type="curve"/>
      <point x="101.0909090909091" y="99.36363636363636"/>
      <point x="91.54545454545455" y="86.36363636363636"/>
      <point x="91.54545454545455" y="68.18181818181819" type="curve" smooth="yes"/>
      <point x="91.54545454545455" y="31.181818181818183"/>
      <point x="126.27272727272727" y="-11.0"/>
    </contour>
    <contour>
      <point x="268.1818181818182" y="324.0" type="curve" smooth="yes"/>
      <point x="176.63636363636363" y="324.0"/>
      <point x="129.0" y="380.72727272727275"/>
      <point x="129.0" y="490.72727272727275" type="curve" smooth="yes"/>
      <point x="129.0" y="605.0"/>
      <point x="171.8181818181818" y="682.6363636363636"/>
      <point x="263.1818181818182" y="682.6363636363636" type="curve" smooth="yes"/>
      <point x="361.54545454545456" y="682.6363636363636"/>
      <point x="418.9090909090909" y="591.1818181818181"/>
      <point x="420.54545454545456" y="403.1818181818182" type="curve"/>
      <point x="388.90909090909093" y="360.1818181818182"/>
      <point x="343.1818181818182" y="324.0"/>
    </contour>
  </outline>
</glyph>
<glyph name="semicolon" format="2">
  <advance width="302.8181818181818"/>
  <unicode hex="003B"/>
  <outline>
    <contour>
      <point x="83.45454545454545" y="-154.0" type="line"/>
      <point x="183.0" y="-123.18181818181819"/>
      <point x="221.0909090909091" y="-55.0"/>
      <point x="221.0909090909091" y="20.727272727272727" type="curve" smooth="yes"/>
      <point x="221.0909090909091" y="74.9090909090909"/>
      <point x="191.0909090909091" y="100.81818181818181"/>
      <point x="157.0" y="100.81818181818181" type="curve" smooth="yes"/>
      <point x="129.27272727272728" y="100.81818181818181"/>
      <point x="111.45454545454545" y="83.45454545454545"/>
      <point x="111.45454545454545" y="55.63636363636364" type="curve" smooth="yes"/>
      <point x="111.45454545454545" y="13.181818181818182"/>
      <point x="171.54545454545453" y="11.09090909090909"/>
      <point x="171.54545454545453" y="-26.18181818181818" type="curve"/>
      <point x="171.54545454545453" y="-61.0"/>
      <point x="145.1818181818182" y="-103.0"/>
      <point x="83.45454545454545" y="-122.18181818181819" type="curve"/>
    </contour>
    <contour>
      <point x="165.0909090909091" y="419.3636363636364" type="curve" smooth="yes"/>
      <point x="189.8181818181818" y="419.3636363636364"/>
      <point x="211.0" y="432.1818181818182"/>
      <point x="211.0" y="473.0" type="curve" smooth="yes"/>
      <point x="211.0" y="513.9090909090909"/>
      <point x="189.8181818181818" y="525.7272727272727"/>
      <point x="165.0909090909091" y="525.7272727272727" type="curve" smooth="yes"/>
      <point x="140.27272727272728" y="525.7272727272727"/>
      <point x="119.72727272727273" y="513.9090909090909"/>
      <point x="119.72727272727273" y="473.0" type="curve" smooth="yes"/>
      <point x="119.72727272727273" y="432.1818181818182"/>
      <point x="140.27272727272728" y="419.3636363636364"/>
    </contour>
  </outline>
</glyph>
<glyph name="equal" format="2">
  <advance width="559.0"/>
  <unicode hex="003D"/>
  <outline>
    <contour>
      <point x="65.9090909090909" y="438.45454545454544" type="line"/>
      <point x="492.1818181818182" y="438.45454545454544" type="line"/>
      <point x="492.1818181818182" y="481.72727272727275" type="line"/>
      <point x="65.9090909090909" y="481.72727272727275" type="line"/>
    </contour>
    <contour>
      <point x="65.9090909090909" y="231.72727272727272" type="line"/>
      <point x="492.1818181818182" y="231.72727272727272" type="line"/>
      <point x="492.1818181818182" y="275.54545454545456" type="line"/>
      <point x="65.9090909090909" y="275.54545454545456" type="line"/>
    </contour>
  </outline>
</glyph>
<glyph name="greater" format="2">
  <advance width="559.0"/>
  <unicode hex="003E"/>
  <outline>
    <contour>
      <point x="65.0" y="114.18181818181819" type="line"/>
      <point x="494.0" y="341.8181818181818" type="line"/>
      <point x="494.0" y="373.1818181818182" type="line"/>
      <point x="65.0" y="601.8181818181819" type="line"/>
      <point x="65.0" y="553.3636363636364" type="line"/>
      <point x="431.09090909090907" y="357.0" type="line"/>
      <point x="65.0" y="162.63636363636363" type="line"/>
    </contour>
  </outline>
</glyph>
<glyph name="question" format="2">
  <advance width="448.8181818181818"/>
  <unicode hex="003F"/>
  <outline>
    <contour>
      <point x="183.54545454545453" y="185.54545454545456" type="line"/>
      <point x="226.8181818181818" y="185.54545454545456" type="line"/>
      <point x="228.1818181818182" y="318.09090909090907" type="line"/>
      <point x="345.3636363636364" y="369.54545454545456"/>
      <point x="409.0" y="436.6363636363636"/>
      <point x="409.0" y="546.6363636363636" type="curve" smooth="yes"/>
      <point x="409.0" y="653.8181818181819"/>
      <point x="328.27272727272725" y="724.0"/>
      <point x="210.45454545454547" y="724.0" type="curve" smooth="yes"/>
      <point x="82.36363636363636" y="724.0"/>
      <point x="33.90909090909091" y="662.3636363636364"/>
      <point x="33.90909090909091" y="611.5454545454545" type="curve" smooth="yes"/>
      <point x="33.90909090909091" y="575.8181818181819"/>
      <point x="56.63636363636364" y="557.0"/>
      <point x="89.18181818181819" y="557.0" type="curve"/>
      <point x="89.18181818181819" y="621.9090909090909"/>
      <point x="120.0" y="685.9090909090909"/>
      <point x="215.72727272727272" y="685.9090909090909" type="curve" smooth="yes"/>
      <point x="298.1818181818182" y="685.9090909090909"/>
      <point x="340.6363636363636" y="633.0909090909091"/>
      <point x="340.6363636363636" y="555.9090909090909" type="curve" smooth="yes"/>
      <point x="340.6363636363636" y="465.45454545454544"/>
      <point x="296.3636363636364" y="395.0"/>
      <point x="182.1818181818182" y="345.72727272727275" type="curve"/>
    </contour>
    <contour>
      <point x="203.9090909090909" y="-6.090909090909091" type="curve" smooth="yes"/>
      <point x="229.72727272727272" y="-6.090909090909091"/>
      <point x="251.45454545454547" y="7.272727272727273"/>
      <point x="251.45454545454547" y="49.18181818181818" type="curve" smooth="yes"/>
      <point x="251.45454545454547" y="91.18181818181819"/>
      <point x="229.72727272727272" y="103.54545454545455"/>
      <point x="203.9090909090909" y="103.54545454545455" type="curve" smooth="yes"/>
      <point x="178.0" y="103.54545454545455"/>
      <point x="156.36363636363637" y="91.18181818181819"/>
      <point x="156.36363636363637" y="49.18181818181818" type="curve" smooth="yes"/>
      <point x="156.36363636363637" y="7.272727272727273"/>
      <point x="178.0" y="-6.090909090909091"/>
    </contour>
  </outline>
</glyph>
<glyph name="bracketleft" format="2">
  <advance width="308.0"/>
  <unicode hex="005B"/>
  <outline>
    <contour>
      <point x="63.0" y="-128.0" type="line"/>
      <point x="251.8181818181818" y="-128.0" type="line"/>
      <point x="251.8181818181818" y="-97.0909090909091" type="line"/>
      <point x="193.9090909090909" y="-97.0909090909091" type="line" smooth="yes"/>
      <point x="146.63636363636363" y="-97.0909090909091"/>
      <point x="125.9090909090909" y="-87.18181818181819"/>
      <point x="125.9090909090909" y="-17.272727272727273" type="curve" smooth="yes"/>
      <point x="125.9090909090909" y="648.7272727272727" type="line" smooth="yes"/>
      <point x="125.9090909090909" y="719.1818181818181"/>
      <point x="146.63636363636363" y="729.0909090909091"/>
      <point x="193.9090909090909" y="729.0909090909091" type="curve" smooth="yes"/>
      <point x="251.8181818181818" y="729.0909090909091" type="line"/>
      <point x="251.8181818181818" y="760.0" type="line"/>
      <point x="63.0" y="760.0" type="line"/>
    </contour>
  </outline>
</glyph>
<glyph name="backslash" format="2">
  <advance width="288.0"/>
  <unicode hex="005C"/>
  <outline>
    <contour>
      <point x="244.27272727272728" y="-121.0" type="line"/>
      <point x="288.0" y="-121.0" type="line"/>
      <point x="43.18181818181818" y="760.0" type="line"/>
      <point x="0.0" y="760.0" type="line"/>
    </contour>
  </outline>
</glyph>
<glyph name="bracketright" format="2">
  <advance width="370.6363636363636"/>
  <unicode hex="005D"/>
  <outline>
    <contour>
      <point x="118.81818181818181" y="-128.0" type="line"/>
      <point x="307.09090909090907" y="-128.0" type="line"/>
      <point x="307.09090909090907" y="760.0" type="line"/>
      <point x="118.81818181818181" y="760.0" type="line"/>
      <point x="118.81818181818181" y="729.0909090909091" type="line"/>
      <point x="176.1818181818182" y="729.0909090909091" type="line" smooth="yes"/>
      <point x="224.0" y="729.0909090909091"/>
      <point x="244.72727272727272" y="719.1818181818181"/>
      <point x="244.72727272727272" y="648.7272727272727" type="curve" smooth="yes"/>
      <point x="244.72727272727272" y="-17.272727272727273" type="line" smooth="yes"/>
      <point x="244.72727272727272" y="-87.18181818181819"/>
      <point x="224.0" y="-97.0909090909091"/>
      <point x="176.1818181818182" y="-97.0909090909091" type="curve" smooth="yes"/>
      <point x="118.81818181818181" y="-97.0909090909091" type="line"/>
    </contour>
  </outline>
</glyph>
<glyph name="asciicircum" format="2">
  <advance width="559.0"/>
  <unicode hex="005E"/>
  <outline>
    <contour>
      <point x="53.72727272727273" y="269.27272727272725" type="line"/>
      <point x="102.72727272727273" y="269.27272727272725" type="line"/>
      <point x="278.0" y="651.1818181818181" type="line"/>
      <point x="455.27272727272725" y="269.27272727272725" type="line"/>
      <point x="503.72727272727275" y="269.27272727272725" type="line"/>
      <point x="292.72727272727275" y="714.0" type="line"/>
      <point x="263.3636363636364" y="714.0" type="line"/>
    </contour>
  </outline>
</glyph>
<glyph name="braceleft" format="2">
  <advance width="377.6363636363636"/>
  <unicode hex="007B"/>
  <outline>
    <contour>
      <point x="261.27272727272725" y="-129.8181818181818" type="curve" smooth="yes"/>
      <point x="308.72727272727275" y="-129.8181818181818" type="line"/>
      <point x="308.72727272727275" y="-96.0909090909091" type="line"/>
      <point x="278.72727272727275" y="-96.0909090909091" type="line" smooth="yes"/>
      <point x="220.63636363636363" y="-96.0909090909091"/>
      <point x="196.72727272727272" y="-58.18181818181818"/>
      <point x="196.72727272727272" y="13.09090909090909" type="curve" smooth="yes"/>
      <point x="196.72727272727272" y="189.72727272727272" type="line" smooth="yes"/>
      <point x="196.72727272727272" y="259.0"/>
      <point x="161.72727272727272" y="305.90909090909093"/>
      <point x="94.0909090909091" y="316.09090909090907" type="curve"/>
      <point x="94.0909090909091" y="317.54545454545456" type="line"/>
      <point x="160.1818181818182" y="327.27272727272725"/>
      <point x="196.72727272727272" y="374.09090909090907"/>
      <point x="196.72727272727272" y="441.90909090909093" type="curve" smooth="yes"/>
      <point x="196.72727272727272" y="616.1818181818181" type="line" smooth="yes"/>
      <point x="196.72727272727272" y="689.3636363636364"/>
      <point x="220.63636363636363" y="726.2727272727273"/>
      <point x="281.54545454545456" y="726.2727272727273" type="curve" smooth="yes"/>
      <point x="308.72727272727275" y="726.2727272727273" type="line"/>
      <point x="308.72727272727275" y="760.0" type="line"/>
      <point x="261.27272727272725" y="760.0" type="line" smooth="yes"/>
      <point x="178.8181818181818" y="760.0"/>
      <point x="133.9090909090909" y="708.9090909090909"/>
      <point x="133.9090909090909" y="619.3636363636364" type="curve" smooth="yes"/>
      <point x="133.9090909090909" y="443.90909090909093" type="line" smooth="yes"/>
      <point x="133.9090909090909" y="358.72727272727275"/>
      <point x="82.36363636363636" y="332.54545454545456"/>
      <point x="15.454545454545455" y="330.54545454545456" type="curve"/>
      <point x="15.454545454545455" y="301.09090909090907" type="line"/>
      <point x="82.36363636363636" y="298.09090909090907"/>
      <point x="133.9090909090909" y="272.90909090909093"/>
      <point x="133.9090909090909" y="186.72727272727272" type="curve" smooth="yes"/>
      <point x="133.9090909090909" y="11.818181818181818" type="line" smooth="yes"/>
      <point x="133.9090909090909" y="-74.72727272727273"/>
      <point x="178.8181818181818" y="-129.8181818181818"/>
    </contour>
  </outline>
</glyph>
<glyph name="bar" format="2">
  <advance width="558.4545454545455"/>
  <unicode hex="007C"/>
  <outline>
    <contour>
      <point x="256.8181818181818" y="-240.0" type="line"/>
      <point x="301.1818181818182" y="-240.0" type="line"/>
      <point x="301.1818181818182" y="760.0" type="line"/>
      <point x="256.8181818181818" y="760.0" type="line"/>
    </contour>
  </outline>
</glyph>
<glyph name="braceright" format="2">
  <advance width="427.0909090909091"/>
  <unicode hex="007D"/>
  <outline>
    <contour>
      <point x="118.81818181818181" y="-129.8181818181818" type="line"/>
      <point x="166.8181818181818" y="-129.8181818181818" type="line" smooth="yes"/>
      <point x="248.8181818181818" y="-129.8181818181818"/>
      <point x="293.1818181818182" y="-74.72727272727273"/>
      <point x="293.1818181818182" y="11.818181818181818" type="curve" smooth="yes"/>
      <point x="293.1818181818182" y="186.72727272727272" type="line" smooth="yes"/>
      <point x="293.1818181818182" y="272.90909090909093"/>
      <point x="345.72727272727275" y="298.09090909090907"/>
      <point x="412.6363636363636" y="301.09090909090907" type="curve"/>
      <point x="412.6363636363636" y="330.54545454545456" type="line"/>
      <point x="345.72727272727275" y="332.54545454545456"/>
      <point x="293.1818181818182" y="358.72727272727275"/>
      <point x="293.1818181818182" y="443.90909090909093" type="curve" smooth="yes"/>
      <point x="293.1818181818182" y="619.3636363636364" type="line" smooth="yes"/>
      <point x="293.1818181818182" y="708.9090909090909"/>
      <point x="248.8181818181818" y="760.0"/>
      <point x="166.8181818181818" y="760.0" type="curve" smooth="yes"/>
      <point x="118.81818181818181" y="760.0" type="line"/>
      <point x="118.81818181818181" y="726.2727272727273" type="line"/>
      <point x="146.54545454545453" y="726.2727272727273" type="line" smooth="yes"/>
      <point x="207.45454545454547" y="726.2727272727273"/>
      <point x="231.36363636363637" y="689.3636363636364"/>
      <point x="231.36363636363637" y="616.1818181818181" type="curve" smooth="yes"/>
      <point x="231.36363636363637" y="441.90909090909093" type="line" smooth="yes"/>
      <point x="231.36363636363637" y="374.09090909090907"/>
      <point x="267.90909090909093" y="327.27272727272725"/>
      <point x="333.54545454545456" y="317.54545454545456" type="curve"/>
      <point x="333.54545454545456" y="316.09090909090907" type="line"/>
      <point x="265.8181818181818" y="305.90909090909093"/>
      <point x="231.36363636363637" y="259.0"/>
      <point x="231.36363636363637" y="189.72727272727272" type="curve" smooth="yes"/>
      <point x="231.36363636363637" y="13.09090909090909" type="line" smooth="yes"/>
      <point x="231.36363636363637" y="-58.18181818181818"/>
      <point x="207.45454545454547" y="-96.0909090909091"/>
      <point x="149.36363636363637" y="-96.0909090909091" type="curve" smooth="yes"/>
      <point x="118.81818181818181" y="-96.0909090909091" type="line"/>
    </contour>
  </outline>
</glyph>
<glyph name="asciitilde" format="2">
  <advance width="559.0"/>
  <unicode hex="007E"/>
  <outline>
    <contour>
      <point x="59.09090909090909" y="273.1818181818182" type="curve"/>
      <point x="103.27272727272728" y="273.1818181818182" type="line"/>
      <point x="115.36363636363636" y="355.3636363636364"/>
      <point x="130.54545454545453" y="396.54545454545456"/>
      <point x="174.0909090909091" y="396.54545454545456" type="curve" smooth="yes"/>
      <point x="213.45454545454547" y="396.54545454545456"/>
      <point x="240.72727272727272" y="364.27272727272725"/>
      <point x="269.90909090909093" y="335.72727272727275" type="curve" smooth="yes"/>
      <point x="305.09090909090907" y="300.72727272727275"/>
      <point x="340.09090909090907" y="273.1818181818182"/>
      <point x="383.8181818181818" y="273.1818181818182" type="curve" smooth="yes"/>
      <point x="471.3636363636364" y="273.1818181818182"/>
      <point x="489.54545454545456" y="377.72727272727275"/>
      <point x="498.90909090909093" y="439.8181818181818" type="curve"/>
      <point x="453.72727272727275" y="439.8181818181818" type="line"/>
      <point x="441.0" y="370.0"/>
      <point x="428.8181818181818" y="316.45454545454544"/>
      <point x="384.3636363636364" y="316.45454545454544" type="curve" smooth="yes"/>
      <point x="354.09090909090907" y="316.45454545454544"/>
      <point x="325.8181818181818" y="342.27272727272725"/>
      <point x="295.0" y="372.45454545454544" type="curve" smooth="yes"/>
      <point x="254.45454545454547" y="411.27272727272725"/>
      <point x="222.45454545454547" y="439.8181818181818"/>
      <point x="174.0909090909091" y="439.8181818181818" type="curve" smooth="yes"/>
      <point x="85.18181818181819" y="439.8181818181818"/>
      <point x="70.27272727272727" y="343.72727272727275"/>
    </contour>
  </outline>
</glyph>
<glyph name="multiply" format="2">
  <advance width="558.4545454545455"/>
  <unicode hex="00D7"/>
  <outline>
    <contour>
      <point x="98.18181818181819" y="146.27272727272728" type="line"/>
      <point x="279.0" y="326.6363636363636" type="line"/>
      <point x="459.8181818181818" y="146.27272727272728" type="line"/>
      <point x="490.72727272727275" y="176.72727272727272" type="line"/>
      <point x="309.90909090909093" y="357.54545454545456" type="line"/>
      <point x="490.72727272727275" y="538.8181818181819" type="line"/>
      <point x="460.27272727272725" y="569.7272727272727" type="line"/>
      <point x="279.0" y="387.90909090909093" type="line"/>
      <point x="98.18181818181819" y="568.7272727272727" type="line"/>
      <point x="67.72727272727273" y="538.3636363636364" type="line"/>
      <point x="248.54545454545453" y="358.09090909090907" type="line"/>
      <point x="68.18181818181819" y="177.72727272727272" type="line"/>
    </contour>
  </outline>
</glyph>
<glyph name="divide" format="2">
  <advance width="559.0"/>
  <unicode hex="00F7"/>
  <outline>
    <contour>
      <point x="65.0" y="335.90909090909093" type="line"/>
      <point x="494.0" y="335.90909090909093" type="line"/>
      <point x="494.0" y="379.1818181818182" type="line"/>
      <point x="65.0" y="379.1818181818182" type="line"/>
    </contour>
    <contour>
      <point x="280.0" y="128.72727272727272" type="curve" smooth="yes"/>
      <point x="305.27272727272725" y="128.72727272727272"/>
      <point x="325.90909090909093" y="141.36363636363637"/>
      <point x="325.90909090909093" y="177.27272727272728" type="curve" smooth="yes"/>
      <point x="325.90909090909093" y="214.63636363636363"/>
      <point x="305.27272727272725" y="226.27272727272728"/>
      <point x="280.0" y="226.27272727272728" type="curve" smooth="yes"/>
      <point x="253.72727272727272" y="226.27272727272728"/>
      <point x="234.0909090909091" y="214.63636363636363"/>
      <point x="234.0909090909091" y="177.27272727272728" type="curve" smooth="yes"/>
      <point x="234.0909090909091" y="141.36363636363637"/>
      <point x="253.72727272727272" y="128.72727272727272"/>
    </contour>
    <contour>
      <point x="280.0" y="489.27272727272725" type="curve" smooth="yes"/>
      <point x="305.27272727272725" y="489.27272727272725"/>
      <point x="325.90909090909093" y="501.3636363636364"/>
      <point x="325.90909090909093" y="537.7272727272727" type="curve" smooth="yes"/>
      <point x="325.90909090909093" y="574.6363636363636"/>
      <point x="305.27272727272725" y="586.2727272727273"/>
      <point x="280.0" y="586.2727272727273" type="curve" smooth="yes"/>
      <point x="253.72727272727272" y="586.2727272727273"/>
      <point x="234.0909090909091" y="574.6363636363636"/>
      <point x="234.0909090909091" y="537.7272727272727" type="curve" smooth="yes"/>
      <point x="234.0909090909091" y="501.3636363636364"/>
      <point x="253.72727272727272" y="489.27272727272725"/>
    </contour>
  </outline>
</glyph>
<glyph name="danda-deva" format="2">
  <advance width="468.09090909090907"/>
  <unicode hex="0964"/>
  <outline>
    <contour>
      <point x="366.0" y="-17.09090909090909" type="line"/>
      <point x="369.0" y="-16.09090909090909" type="line"/>
      <point x="369.0" y="589.5454545454545" type="line"/>
      <point x="332.09090909090907" y="617.4545454545455" type="line"/>
      <point x="329.09090909090907" y="617.4545454545455" type="line"/>
      <point x="329.09090909090907" y="4.090909090909091" type="line"/>
    </contour>
  </outline>
</glyph>
<glyph name="dbldanda-deva" format="2">
  <advance width="623.9090909090909"/>
  <unicode hex="0965"/>
  <outline>
    <contour>
      <point x="521.8181818181819" y="-17.09090909090909" type="line"/>
      <point x="524.8181818181819" y="-16.09090909090909" type="line"/>
      <point x="524.8181818181819" y="589.5454545454545" type="line"/>
      <point x="487.90909090909093" y="617.4545454545455" type="line"/>
      <point x="484.90909090909093" y="617.4545454545455" type="line"/>
      <point x="484.90909090909093" y="4.090909090909091" type="line"/>
    </contour>
    <contour>
      <point x="366.0" y="-17.09090909090909" type="line"/>
      <point x="369.0" y="-16.09090909090909" type="line"/>
      <point x="369.0" y="589.5454545454545" type="line"/>
      <point x="332.09090909090907" y="617.4545454545455" type="line"/>
      <point x="329.09090909090907" y="617.4545454545455" type="line"/>
      <point x="329.09090909090907" y="4.090909090909091" type="line"/>
    </contour>
  </outline>
</glyph>
<glyph name="anji-beng" format="2">
  <advance width="530.3636363636364"/>
  <unicode hex="0980"/>
  <anchor x="279.3636363636364" y="584.5454545454545" name="top"/>
  <outline>
    <contour>
      <point x="429.27272727272725" y="10.0" type="curve" smooth="yes"/>
      <point x="462.1818181818182" y="10.0"/>
      <point x="480.3636363636364" y="31.0"/>
      <point x="480.3636363636364" y="60.63636363636363" type="curve" smooth="yes"/>
      <point x="480.3636363636364" y="92.72727272727273"/>
      <point x="459.45454545454544" y="113.81818181818181"/>
      <point x="428.72727272727275" y="113.81818181818181" type="curve" smooth="yes"/>
      <point x="399.1818181818182" y="113.81818181818181"/>
      <point x="388.45454545454544" y="97.45454545454545"/>
      <point x="385.3636363636364" y="75.36363636363636" type="curve"/>
      <point x="405.6363636363636" y="74.45454545454545" type="line"/>
      <point x="405.6363636363636" y="491.8181818181818" type="line" smooth="yes"/>
      <point x="405.6363636363636" y="564.5454545454545"/>
      <point x="363.8181818181818" y="623.8181818181819"/>
      <point x="271.72727272727275" y="623.8181818181819" type="curve" smooth="yes"/>
      <point x="158.54545454545453" y="623.8181818181819"/>
      <point x="69.54545454545455" y="541.5454545454545"/>
      <point x="69.54545454545455" y="431.54545454545456" type="curve" smooth="yes"/>
      <point x="69.54545454545455" y="327.72727272727275"/>
      <point x="141.72727272727272" y="266.3636363636364"/>
      <point x="219.1818181818182" y="266.3636363636364" type="curve" smooth="yes"/>
      <point x="272.09090909090907" y="266.3636363636364"/>
      <point x="298.3636363636364" y="293.3636363636364"/>
      <point x="298.3636363636364" y="335.45454545454544" type="curve" smooth="yes"/>
      <point x="298.3636363636364" y="377.54545454545456"/>
      <point x="272.27272727272725" y="400.27272727272725"/>
      <point x="233.54545454545453" y="400.27272727272725" type="curve" smooth="yes"/>
      <point x="199.45454545454547" y="400.27272727272725"/>
      <point x="173.45454545454547" y="377.0"/>
      <point x="173.45454545454547" y="340.72727272727275" type="curve" smooth="yes"/>
      <point x="173.45454545454547" y="325.6363636363636"/>
      <point x="178.63636363636363" y="310.6363636363636"/>
      <point x="185.8181818181818" y="303.54545454545456" type="curve"/>
      <point x="216.72727272727272" y="320.45454545454544" type="line"/>
      <point x="208.0909090909091" y="316.90909090909093"/>
      <point x="199.45454545454547" y="315.90909090909093"/>
      <point x="191.27272727272728" y="315.90909090909093" type="curve" smooth="yes"/>
      <point x="150.27272727272728" y="315.90909090909093"/>
      <point x="116.45454545454545" y="355.45454545454544"/>
      <point x="116.45454545454545" y="416.54545454545456" type="curve" smooth="yes"/>
      <point x="116.45454545454545" y="514.1818181818181"/>
      <point x="210.45454545454547" y="578.5454545454545"/>
      <point x="288.6363636363636" y="578.5454545454545" type="curve" smooth="yes"/>
      <point x="341.0" y="578.5454545454545"/>
      <point x="365.72727272727275" y="551.1818181818181"/>
      <point x="365.72727272727275" y="496.72727272727275" type="curve" smooth="yes"/>
      <point x="365.72727272727275" y="87.9090909090909" type="line" smooth="yes"/>
      <point x="365.72727272727275" y="41.09090909090909"/>
      <point x="390.3636363636364" y="10.0"/>
    </contour>
  </outline>
</glyph>
<glyph name="candrabindu-beng" format="2">
  <unicode hex="0981"/>
  <anchor x="0.0" y="622.0" name="_top"/>
  <outline>
    <contour>
      <point x="-20.81818181818182" y="730.0" type="curve" smooth="yes"/>
      <point x="62.54545454545455" y="730.0"/>
      <point x="103.36363636363636" y="790.3636363636364"/>
      <point x="120.0909090909091" y="873.5454545454545" type="curve"/>
      <point x="93.81818181818181" y="884.9090909090909" type="line"/>
      <point x="76.0" y="821.2727272727273"/>
      <point x="43.36363636363637" y="778.7272727272727"/>
      <point x="-22.0" y="778.7272727272727" type="curve" smooth="yes"/>
      <point x="-86.9090909090909" y="778.7272727272727"/>
      <point x="-118.81818181818181" y="821.2727272727273"/>
      <point x="-142.36363636363637" y="884.9090909090909" type="curve"/>
      <point x="-168.0909090909091" y="873.5454545454545" type="line"/>
      <point x="-146.8181818181818" y="790.3636363636364"/>
      <point x="-106.0909090909091" y="730.0"/>
    </contour>
    <contour>
      <point x="-21.545454545454547" y="838.2727272727273" type="curve" smooth="yes"/>
      <point x="1.2727272727272725" y="838.2727272727273"/>
      <point x="21.0" y="852.4545454545455"/>
      <point x="21.0" y="880.8181818181819" type="curve" smooth="yes"/>
      <point x="21.0" y="907.0909090909091"/>
      <point x="1.727272727272727" y="924.3636363636364"/>
      <point x="-21.545454545454547" y="924.3636363636364" type="curve" smooth="yes"/>
      <point x="-46.81818181818182" y="924.3636363636364"/>
      <point x="-67.0909090909091" y="907.5454545454545"/>
      <point x="-67.0909090909091" y="880.8181818181819" type="curve" smooth="yes"/>
      <point x="-67.0909090909091" y="852.4545454545455"/>
      <point x="-45.81818181818182" y="838.2727272727273"/>
    </contour>
  </outline>
</glyph>
<glyph name="anusvara-beng" format="2">
  <advance width="396.8181818181818"/>
  <unicode hex="0982"/>
  <anchor x="-189.45454545454547" y="0.0" name="vedic"/>
  <outline>
    <contour>
      <point x="192.8181818181818" y="371.8181818181818" type="curve" smooth="yes"/>
      <point x="269.0" y="371.8181818181818"/>
      <point x="322.72727272727275" y="425.3636363636364"/>
      <point x="322.72727272727275" y="502.45454545454544" type="curve" smooth="yes"/>
      <point x="322.72727272727275" y="572.0"/>
      <point x="276.09090909090907" y="625.2727272727273"/>
      <point x="201.36363636363637" y="625.2727272727273" type="curve" smooth="yes"/>
      <point x="126.18181818181819" y="625.2727272727273"/>
      <point x="73.0" y="570.7272727272727"/>
      <point x="73.0" y="495.6363636363636" type="curve" smooth="yes"/>
      <point x="73.0" y="427.6363636363636"/>
      <point x="116.63636363636364" y="371.8181818181818"/>
    </contour>
    <contour>
      <point x="172.8181818181818" y="409.45454545454544" type="curve" smooth="yes"/>
      <point x="138.63636363636363" y="409.45454545454544"/>
      <point x="112.81818181818181" y="435.0"/>
      <point x="112.81818181818181" y="471.09090909090907" type="curve" smooth="yes"/>
      <point x="112.81818181818181" y="530.0909090909091"/>
      <point x="162.45454545454547" y="584.9090909090909"/>
      <point x="224.54545454545453" y="584.9090909090909" type="curve" smooth="yes"/>
      <point x="260.45454545454544" y="584.9090909090909"/>
      <point x="284.0" y="559.6363636363636"/>
      <point x="284.0" y="524.1818181818181" type="curve" smooth="yes"/>
      <point x="284.0" y="468.6363636363636"/>
      <point x="234.27272727272728" y="409.45454545454544"/>
    </contour>
    <contour>
      <point x="336.3636363636364" y="-31.636363636363637" type="curve"/>
      <point x="359.27272727272725" y="-18.90909090909091" type="line"/>
      <point x="303.8181818181818" y="100.63636363636364"/>
      <point x="213.72727272727272" y="223.63636363636363"/>
      <point x="116.72727272727273" y="300.90909090909093" type="curve"/>
      <point x="73.63636363636364" y="242.0909090909091" type="line"/>
      <point x="173.63636363636363" y="179.0"/>
      <point x="261.27272727272725" y="89.18181818181819"/>
    </contour>
  </outline>
</glyph>
<glyph name="visarga-beng" format="2">
  <advance width="396.6363636363636"/>
  <unicode hex="0983"/>
  <anchor x="-189.45454545454547" y="0.0" name="vedic"/>
  <outline>
    <contour>
      <point x="192.8181818181818" y="370.45454545454544" type="curve" smooth="yes"/>
      <point x="269.45454545454544" y="370.45454545454544"/>
      <point x="323.6363636363636" y="424.0"/>
      <point x="323.6363636363636" y="501.09090909090907" type="curve" smooth="yes"/>
      <point x="323.6363636363636" y="570.1818181818181"/>
      <point x="276.09090909090907" y="623.4545454545455"/>
      <point x="201.8181818181818" y="623.4545454545455" type="curve" smooth="yes"/>
      <point x="126.18181818181819" y="623.4545454545455"/>
      <point x="73.0" y="568.9090909090909"/>
      <point x="73.0" y="494.27272727272725" type="curve" smooth="yes"/>
      <point x="73.0" y="426.27272727272725"/>
      <point x="117.54545454545455" y="370.45454545454544"/>
    </contour>
    <contour>
      <point x="172.8181818181818" y="408.09090909090907" type="curve" smooth="yes"/>
      <point x="138.63636363636363" y="408.09090909090907"/>
      <point x="113.27272727272727" y="433.6363636363636"/>
      <point x="113.27272727272727" y="469.72727272727275" type="curve" smooth="yes"/>
      <point x="113.27272727272727" y="528.7272727272727"/>
      <point x="162.45454545454547" y="583.5454545454545"/>
      <point x="225.0" y="583.5454545454545" type="curve" smooth="yes"/>
      <point x="260.90909090909093" y="583.5454545454545"/>
      <point x="284.45454545454544" y="557.8181818181819"/>
      <point x="284.45454545454544" y="522.3636363636364" type="curve" smooth="yes"/>
      <point x="284.45454545454544" y="467.27272727272725"/>
      <point x="234.72727272727272" y="408.09090909090907"/>
    </contour>
    <contour>
      <point x="192.8181818181818" y="6.818181818181818" type="curve" smooth="yes"/>
      <point x="269.45454545454544" y="6.818181818181818"/>
      <point x="323.6363636363636" y="60.36363636363637"/>
      <point x="323.6363636363636" y="136.9090909090909" type="curve" smooth="yes"/>
      <point x="323.6363636363636" y="206.54545454545453"/>
      <point x="276.09090909090907" y="259.27272727272725"/>
      <point x="201.8181818181818" y="259.27272727272725" type="curve" smooth="yes"/>
      <point x="126.18181818181819" y="259.27272727272725"/>
      <point x="73.0" y="205.27272727272728"/>
      <point x="73.0" y="130.0909090909091" type="curve" smooth="yes"/>
      <point x="73.0" y="62.63636363636364"/>
      <point x="117.54545454545455" y="6.818181818181818"/>
    </contour>
    <contour>
      <point x="172.8181818181818" y="43.90909090909091" type="curve" smooth="yes"/>
      <point x="138.63636363636363" y="43.90909090909091"/>
      <point x="113.27272727272727" y="69.45454545454545"/>
      <point x="113.27272727272727" y="105.54545454545455" type="curve" smooth="yes"/>
      <point x="113.27272727272727" y="165.0909090909091"/>
      <point x="162.45454545454547" y="219.36363636363637"/>
      <point x="225.0" y="219.36363636363637" type="curve" smooth="yes"/>
      <point x="260.90909090909093" y="219.36363636363637"/>
      <point x="284.45454545454544" y="193.63636363636363"/>
      <point x="284.45454545454544" y="158.72727272727272" type="curve" smooth="yes"/>
      <point x="284.45454545454544" y="103.63636363636364"/>
      <point x="234.72727272727272" y="43.90909090909091"/>
    </contour>
  </outline>
</glyph>
<glyph name="a-beng" format="2">
  <advance width="759.8181818181819"/>
  <unicode hex="0985"/>
  <anchor x="670.2727272727273" y="-5.909090909090909" name="bottom"/>
  <anchor x="671.6363636363636" y="60.90909090909091" name="bottom.rakaar"/>
  <anchor x="671.6363636363636" y="9.272727272727273" name="bottom.rvocalic"/>
  <anchor x="656.1818181818181" y="3.272727272727273" name="bottom.virama"/>
  <anchor x="671.6363636363636" y="584.5454545454545" name="top"/>
  <anchor x="671.6363636363636" y="584.5454545454545" name="topright"/>
  <anchor x="379.90909090909093" y="0.0" name="vedic"/>
  <outline>
    <contour>
      <point x="667.5454545454545" y="-8.454545454545455" type="line"/>
      <point x="671.6363636363636" y="-7.454545454545455" type="line"/>
      <point x="671.6363636363636" y="584.5454545454545" type="line"/>
      <point x="784.2727272727273" y="584.5454545454545" type="line"/>
      <point x="759.3636363636364" y="622.0" type="line"/>
      <point x="-24.454545454545453" y="622.0" type="line"/>
      <point x="-0.09090909090909083" y="584.5454545454545" type="line"/>
      <point x="631.7272727272727" y="584.5454545454545" type="line"/>
      <point x="631.7272727272727" y="58.27272727272727" type="line"/>
      <point x="639.1818181818181" y="67.0" type="line"/>
      <point x="603.5454545454545" y="148.0909090909091"/>
      <point x="556.8181818181819" y="199.0"/>
      <point x="498.6363636363636" y="239.36363636363637" type="curve"/>
      <point x="483.54545454545456" y="195.0909090909091" type="line"/>
      <point x="548.0909090909091" y="153.63636363636363"/>
      <point x="595.7272727272727" y="97.63636363636364"/>
      <point x="635.0909090909091" y="18.09090909090909" type="curve"/>
    </contour>
    <contour>
      <point x="348.1818181818182" y="111.18181818181819" type="curve" smooth="yes"/>
      <point x="468.54545454545456" y="111.18181818181819"/>
      <point x="529.3636363636364" y="190.8181818181818"/>
      <point x="531.1818181818181" y="307.54545454545456" type="curve" smooth="yes"/>
      <point x="533.0" y="424.6363636363636"/>
      <point x="456.27272727272725" y="513.6363636363636"/>
      <point x="337.6363636363636" y="511.3636363636364" type="curve" smooth="yes"/>
      <point x="268.45454545454544" y="510.0"/>
      <point x="228.0909090909091" y="480.09090909090907"/>
      <point x="228.0909090909091" y="425.1818181818182" type="curve" smooth="yes"/>
      <point x="228.0909090909091" y="377.0"/>
      <point x="262.54545454545456" y="347.45454545454544"/>
      <point x="306.45454545454544" y="347.45454545454544" type="curve" smooth="yes"/>
      <point x="353.90909090909093" y="347.45454545454544"/>
      <point x="380.54545454545456" y="383.6363636363636"/>
      <point x="380.54545454545456" y="431.6363636363636" type="curve" smooth="yes"/>
      <point x="380.54545454545456" y="502.45454545454544"/>
      <point x="338.45454545454544" y="559.0"/>
      <point x="300.45454545454544" y="589.7272727272727" type="curve"/>
      <point x="222.36363636363637" y="588.6363636363636" type="line"/>
      <point x="302.8181818181818" y="555.8181818181819"/>
      <point x="334.09090909090907" y="507.3636363636364"/>
      <point x="343.27272727272725" y="446.3636363636364" type="curve"/>
      <point x="356.90909090909093" y="452.1818181818182"/>
      <point x="364.6363636363636" y="454.27272727272725"/>
      <point x="378.09090909090907" y="454.27272727272725" type="curve" smooth="yes"/>
      <point x="430.1818181818182" y="454.27272727272725"/>
      <point x="489.54545454545456" y="412.0"/>
      <point x="492.27272727272725" y="318.1818181818182" type="curve" smooth="yes"/>
      <point x="495.0" y="224.1818181818182"/>
      <point x="437.6363636363636" y="173.1818181818182"/>
      <point x="341.45454545454544" y="173.1818181818182" type="curve" smooth="yes"/>
      <point x="231.27272727272728" y="173.1818181818182"/>
      <point x="132.54545454545453" y="251.63636363636363"/>
      <point x="60.36363636363637" y="499.72727272727275" type="curve"/>
      <point x="28.81818181818182" y="490.3636363636364" type="line"/>
      <point x="111.36363636363636" y="190.54545454545453"/>
      <point x="229.45454545454544" y="111.18181818181819"/>
    </contour>
  </outline>
</glyph>
<glyph name="i-beng" format="2">
  <advance width="469.1818181818182"/>
  <unicode hex="0987"/>
  <anchor x="267.27272727272725" y="82.72727272727273" name="bottom"/>
  <anchor x="383.6363636363636" y="-77.63636363636364" name="bottom.rakaar"/>
  <anchor x="313.6363636363636" y="94.54545454545455" name="bottom.rvocalic"/>
  <anchor x="240.36363636363637" y="90.0" name="bottom.virama"/>
  <anchor x="270.8181818181818" y="621.0909090909091" name="top"/>
  <anchor x="209.72727272727272" y="628.3636363636364" name="topright"/>
  <anchor x="234.36363636363637" y="0.0" name="vedic"/>
  <outline>
    <contour>
      <point x="361.90909090909093" y="614.7272727272727" type="curve"/>
      <point x="394.0" y="614.7272727272727" type="line"/>
      <point x="388.0" y="730.3636363636364"/>
      <point x="344.90909090909093" y="788.6363636363636"/>
      <point x="261.45454545454544" y="788.6363636363636" type="curve" smooth="yes"/>
      <point x="217.1818181818182" y="788.6363636363636"/>
      <point x="174.63636363636363" y="776.7272727272727"/>
      <point x="117.72727272727273" y="776.7272727272727" type="curve" smooth="yes"/>
      <point x="54.54545454545455" y="776.7272727272727"/>
      <point x="18.818181818181817" y="796.0909090909091"/>
      <point x="18.818181818181817" y="874.0909090909091" type="curve" smooth="yes"/>
      <point x="18.818181818181817" y="884.5454545454545"/>
      <point x="19.818181818181817" y="897.0"/>
      <point x="21.272727272727273" y="906.1818181818181" type="curve"/>
      <point x="-9.818181818181818" y="909.2727272727273" type="line"/>
      <point x="-11.818181818181818" y="894.9090909090909"/>
      <point x="-13.272727272727273" y="875.9090909090909"/>
      <point x="-13.272727272727273" y="859.2727272727273" type="curve" smooth="yes"/>
      <point x="-13.272727272727273" y="767.5454545454545"/>
      <point x="30.545454545454547" y="719.3636363636364"/>
      <point x="113.9090909090909" y="719.3636363636364" type="curve" smooth="yes"/>
      <point x="176.72727272727272" y="719.3636363636364"/>
      <point x="221.72727272727272" y="731.8181818181819"/>
      <point x="272.3636363636364" y="731.8181818181819" type="curve" smooth="yes"/>
      <point x="328.3636363636364" y="731.8181818181819"/>
      <point x="358.0" y="689.7272727272727"/>
    </contour>
    <component base="ha-beng"/>
  </outline>
</glyph>
<glyph name="ii-beng" format="2">
  <advance width="607.1818181818181"/>
  <unicode hex="0988"/>
  <anchor x="531.0909090909091" y="-21.09090909090909" name="bottom"/>
  <anchor x="531.6363636363636" y="70.0" name="bottom.rakaar"/>
  <anchor x="512.0" y="15.181818181818182" name="bottom.rvocalic"/>
  <anchor x="517.3636363636364" y="0.0" name="bottom.virama"/>
  <anchor x="354.27272727272725" y="621.0909090909091" name="top"/>
  <anchor x="306.09090909090907" y="628.3636363636364" name="topright"/>
  <anchor x="303.09090909090907" y="0.0" name="vedic"/>
  <outline>
    <contour>
      <point x="501.0" y="-6.7272727272727275" type="curve"/>
      <point x="530.0" y="6.2727272727272725" type="line"/>
      <point x="506.0" y="71.72727272727272"/>
      <point x="492.72727272727275" y="129.1818181818182"/>
      <point x="492.72727272727275" y="206.0" type="curve" smooth="yes"/>
      <point x="492.72727272727275" y="294.8181818181818"/>
      <point x="515.2727272727273" y="373.54545454545456"/>
      <point x="551.2727272727273" y="431.6363636363636" type="curve"/>
      <point x="492.54545454545456" y="487.3636363636364" type="line"/>
      <point x="409.72727272727275" y="430.0"/>
      <point x="346.3636363636364" y="348.8181818181818"/>
      <point x="287.90909090909093" y="257.3636363636364" type="curve"/>
      <point x="327.09090909090907" y="277.45454545454544" type="line"/>
      <point x="332.27272727272725" y="294.3636363636364"/>
      <point x="341.45454545454544" y="314.72727272727275"/>
      <point x="341.45454545454544" y="347.09090909090907" type="curve" smooth="yes"/>
      <point x="341.45454545454544" y="440.90909090909093"/>
      <point x="282.6363636363636" y="508.45454545454544"/>
      <point x="170.27272727272728" y="508.45454545454544" type="curve" smooth="yes"/>
      <point x="101.18181818181819" y="508.45454545454544"/>
      <point x="63.81818181818181" y="480.0"/>
      <point x="64.27272727272728" y="432.8181818181818" type="curve" smooth="yes"/>
      <point x="64.72727272727272" y="393.09090909090907"/>
      <point x="90.63636363636364" y="368.3636363636364"/>
      <point x="131.1818181818182" y="368.3636363636364" type="curve" smooth="yes"/>
      <point x="175.36363636363637" y="368.3636363636364"/>
      <point x="198.36363636363637" y="401.1818181818182"/>
      <point x="198.36363636363637" y="448.6363636363636" type="curve" smooth="yes"/>
      <point x="198.36363636363637" y="491.6363636363636"/>
      <point x="170.8181818181818" y="553.0909090909091"/>
      <point x="122.81818181818181" y="590.1818181818181" type="curve"/>
      <point x="51.36363636363636" y="590.1818181818181" type="line"/>
      <point x="104.0" y="567.6363636363636"/>
      <point x="144.45454545454547" y="529.6363636363636"/>
      <point x="158.36363636363637" y="476.1818181818182" type="curve"/>
      <point x="122.63636363636364" y="436.72727272727275" type="line"/>
      <point x="150.72727272727272" y="451.1818181818182"/>
      <point x="170.1818181818182" y="458.90909090909093"/>
      <point x="201.1818181818182" y="458.90909090909093" type="curve" smooth="yes"/>
      <point x="269.45454545454544" y="458.90909090909093"/>
      <point x="303.0" y="415.0"/>
      <point x="303.0" y="354.27272727272725" type="curve" smooth="yes"/>
      <point x="303.0" y="315.8181818181818"/>
      <point x="292.72727272727275" y="278.8181818181818"/>
      <point x="271.72727272727275" y="246.9090909090909" type="curve" smooth="yes"/>
      <point x="245.45454545454544" y="207.63636363636363"/>
      <point x="212.0909090909091" y="183.8181818181818"/>
      <point x="179.0909090909091" y="183.8181818181818" type="curve" smooth="yes"/>
      <point x="140.63636363636363" y="183.8181818181818"/>
      <point x="108.9090909090909" y="220.27272727272728"/>
      <point x="85.0909090909091" y="265.09090909090907" type="curve"/>
      <point x="58.18181818181818" y="252.72727272727272" type="line"/>
      <point x="93.0909090909091" y="174.63636363636363"/>
      <point x="136.9090909090909" y="125.63636363636364"/>
      <point x="194.0" y="125.63636363636364" type="curve" smooth="yes"/>
      <point x="248.63636363636363" y="125.63636363636364"/>
      <point x="286.54545454545456" y="170.45454545454544"/>
      <point x="326.45454545454544" y="226.9090909090909" type="curve" smooth="yes"/>
      <point x="378.8181818181818" y="301.0"/>
      <point x="443.54545454545456" y="382.9090909090909"/>
      <point x="513.0" y="435.09090909090907" type="curve"/>
      <point x="495.45454545454544" y="436.09090909090907" type="line"/>
      <point x="468.27272727272725" y="388.6363636363636"/>
      <point x="450.1818181818182" y="309.1818181818182"/>
      <point x="450.1818181818182" y="233.0909090909091" type="curve" smooth="yes"/>
      <point x="450.1818181818182" y="149.1818181818182"/>
      <point x="468.27272727272725" y="71.63636363636364"/>
    </contour>
    <contour>
      <point x="-0.09090909090909083" y="584.5454545454545" type="line"/>
      <point x="631.6363636363636" y="584.5454545454545" type="line"/>
      <point x="606.7272727272727" y="622.0" type="line"/>
      <point x="-24.454545454545453" y="622.0" type="line"/>
    </contour>
    <contour>
      <point x="479.09090909090907" y="614.7272727272727" type="curve"/>
      <point x="511.72727272727275" y="614.7272727272727" type="line"/>
      <point x="499.54545454545456" y="730.3636363636364"/>
      <point x="451.8181818181818" y="788.6363636363636"/>
      <point x="357.54545454545456" y="788.6363636363636" type="curve" smooth="yes"/>
      <point x="304.09090909090907" y="788.6363636363636"/>
      <point x="267.54545454545456" y="777.3636363636364"/>
      <point x="203.0909090909091" y="777.3636363636364" type="curve" smooth="yes"/>
      <point x="122.36363636363636" y="777.3636363636364"/>
      <point x="83.27272727272727" y="797.1818181818181"/>
      <point x="83.27272727272727" y="875.7272727272727" type="curve" smooth="yes"/>
      <point x="83.27272727272727" y="884.5454545454545"/>
      <point x="83.72727272727273" y="895.3636363636364"/>
      <point x="85.18181818181819" y="906.1818181818181" type="curve"/>
      <point x="54.63636363636364" y="909.2727272727273" type="line"/>
      <point x="51.63636363636364" y="893.0909090909091"/>
      <point x="50.63636363636364" y="876.6363636363636"/>
      <point x="50.63636363636364" y="862.0" type="curve" smooth="yes"/>
      <point x="50.63636363636364" y="765.9090909090909"/>
      <point x="103.72727272727273" y="720.0"/>
      <point x="201.72727272727272" y="720.0" type="curve" smooth="yes"/>
      <point x="273.6363636363636" y="720.0"/>
      <point x="317.3636363636364" y="731.8181818181819"/>
      <point x="375.0" y="731.8181818181819" type="curve" smooth="yes"/>
      <point x="437.45454545454544" y="731.8181818181819"/>
      <point x="469.45454545454544" y="689.7272727272727"/>
    </contour>
  </outline>
</glyph>
<glyph name="u-beng" format="2">
  <advance width="625.2727272727273"/>
  <unicode hex="0989"/>
  <anchor x="455.90909090909093" y="36.72727272727273" name="bottom"/>
  <anchor x="503.90909090909093" y="-15.09090909090909" name="bottom.rakaar"/>
  <anchor x="427.8181818181818" y="70.27272727272727" name="bottom.rvocalic"/>
  <anchor x="380.54545454545456" y="21.272727272727273" name="bottom.virama"/>
  <anchor x="322.72727272727275" y="610.1818181818181" name="top"/>
  <anchor x="292.45454545454544" y="612.9090909090909" name="topright"/>
  <anchor x="312.6363636363636" y="0.0" name="vedic"/>
  <anchor x="334.0" y="-39.27272727272727" name="nukta"/>
  <outline>
    <contour>
      <point x="493.1818181818182" y="614.7272727272727" type="curve"/>
      <point x="525.8181818181819" y="614.7272727272727" type="line"/>
      <point x="513.6363636363636" y="730.3636363636364"/>
      <point x="466.8181818181818" y="788.6363636363636"/>
      <point x="371.6363636363636" y="788.6363636363636" type="curve" smooth="yes"/>
      <point x="316.8181818181818" y="788.6363636363636"/>
      <point x="277.09090909090907" y="777.3636363636364"/>
      <point x="212.63636363636363" y="777.3636363636364" type="curve" smooth="yes"/>
      <point x="131.9090909090909" y="777.3636363636364"/>
      <point x="92.81818181818181" y="797.1818181818181"/>
      <point x="92.81818181818181" y="875.7272727272727" type="curve" smooth="yes"/>
      <point x="92.81818181818181" y="884.5454545454545"/>
      <point x="93.27272727272727" y="895.3636363636364"/>
      <point x="94.72727272727272" y="906.1818181818181" type="curve"/>
      <point x="64.18181818181819" y="909.2727272727273" type="line"/>
      <point x="61.18181818181818" y="893.0909090909091"/>
      <point x="60.18181818181818" y="876.6363636363636"/>
      <point x="60.18181818181818" y="862.0" type="curve" smooth="yes"/>
      <point x="60.18181818181818" y="765.9090909090909"/>
      <point x="113.27272727272727" y="720.0"/>
      <point x="211.27272727272728" y="720.0" type="curve" smooth="yes"/>
      <point x="283.1818181818182" y="720.0"/>
      <point x="330.09090909090907" y="731.8181818181819"/>
      <point x="389.09090909090907" y="731.8181818181819" type="curve" smooth="yes"/>
      <point x="452.45454545454544" y="731.8181818181819"/>
      <point x="483.54545454545456" y="689.7272727272727"/>
    </contour>
    <component base="dda-beng"/>
  </outline>
</glyph>
<glyph name="uu-beng" format="2">
  <advance width="684.8181818181819"/>
  <unicode hex="098A"/>
  <anchor x="515.9090909090909" y="36.72727272727273" name="bottom"/>
  <anchor x="563.9090909090909" y="-15.09090909090909" name="bottom.rakaar"/>
  <anchor x="487.8181818181818" y="70.27272727272727" name="bottom.rvocalic"/>
  <anchor x="440.54545454545456" y="21.272727272727273" name="bottom.virama"/>
  <anchor x="389.09090909090907" y="619.7272727272727" name="top"/>
  <anchor x="361.54545454545456" y="628.3636363636364" name="topright"/>
  <anchor x="342.1818181818182" y="0.0" name="vedic"/>
  <outline>
    <contour>
      <point x="424.72727272727275" y="65.45454545454545" type="curve" smooth="yes"/>
      <point x="561.9090909090909" y="65.45454545454545"/>
      <point x="629.0" y="153.72727272727272"/>
      <point x="629.0" y="272.90909090909093" type="curve" smooth="yes"/>
      <point x="629.0" y="361.72727272727275"/>
      <point x="598.6363636363636" y="420.09090909090907"/>
      <point x="554.2727272727273" y="461.54545454545456" type="curve"/>
      <point x="510.27272727272725" y="399.54545454545456"/>
      <point x="447.8181818181818" y="339.45454545454544"/>
      <point x="391.09090909090907" y="339.45454545454544" type="curve" smooth="yes"/>
      <point x="363.27272727272725" y="339.45454545454544"/>
      <point x="349.54545454545456" y="353.09090909090907"/>
      <point x="349.54545454545456" y="376.09090909090907" type="curve" smooth="yes"/>
      <point x="349.54545454545456" y="584.5454545454545" type="line"/>
      <point x="709.2727272727273" y="584.5454545454545" type="line"/>
      <point x="684.3636363636364" y="622.0" type="line"/>
      <point x="-24.454545454545453" y="622.0" type="line"/>
      <point x="0.45454545454545503" y="584.5454545454545" type="line"/>
      <point x="309.6363636363636" y="584.5454545454545" type="line"/>
      <point x="309.6363636363636" y="375.90909090909093" type="line" smooth="yes"/>
      <point x="309.6363636363636" y="343.72727272727275"/>
      <point x="321.0" y="322.27272727272725"/>
      <point x="339.8181818181818" y="307.27272727272725" type="curve" smooth="yes"/>
      <point x="356.45454545454544" y="293.90909090909093"/>
      <point x="378.0" y="285.45454545454544"/>
      <point x="403.09090909090907" y="285.45454545454544" type="curve" smooth="yes"/>
      <point x="463.09090909090907" y="285.45454545454544"/>
      <point x="526.9090909090909" y="331.09090909090907"/>
      <point x="578.6363636363636" y="399.45454545454544" type="curve"/>
      <point x="551.6363636363636" y="400.27272727272725" type="line"/>
      <point x="575.0" y="380.0"/>
      <point x="591.1818181818181" y="348.54545454545456"/>
      <point x="591.1818181818181" y="288.09090909090907" type="curve" smooth="yes"/>
      <point x="591.1818181818181" y="187.27272727272728"/>
      <point x="535.5454545454545" y="128.0"/>
      <point x="434.90909090909093" y="126.36363636363636" type="curve" smooth="yes"/>
      <point x="282.0" y="123.63636363636364"/>
      <point x="221.36363636363637" y="287.45454545454544"/>
      <point x="165.9090909090909" y="500.6363636363636" type="curve"/>
      <point x="134.36363636363637" y="491.8181818181818" type="line"/>
      <point x="175.36363636363637" y="315.6363636363636"/>
      <point x="217.54545454545453" y="191.27272727272728"/>
      <point x="311.45454545454544" y="119.45454545454545" type="curve"/>
      <point x="335.45454545454544" y="122.45454545454545" type="line"/>
      <point x="211.9090909090909" y="151.1818181818182"/>
      <point x="125.81818181818181" y="278.54545454545456"/>
      <point x="64.27272727272728" y="500.6363636363636" type="curve"/>
      <point x="32.72727272727273" y="491.8181818181818" type="line"/>
      <point x="101.9090909090909" y="206.54545454545453"/>
      <point x="222.63636363636363" y="65.45454545454545"/>
    </contour>
    <contour>
      <point x="557.5454545454545" y="614.7272727272727" type="curve"/>
      <point x="590.1818181818181" y="614.7272727272727" type="line"/>
      <point x="578.0" y="730.3636363636364"/>
      <point x="530.0" y="790.8181818181819"/>
      <point x="431.27272727272725" y="790.8181818181819" type="curve" smooth="yes"/>
      <point x="362.1818181818182" y="790.8181818181819"/>
      <point x="301.09090909090907" y="771.3636363636364"/>
      <point x="216.0909090909091" y="771.3636363636364" type="curve" smooth="yes"/>
      <point x="132.72727272727272" y="771.3636363636364"/>
      <point x="89.72727272727273" y="797.1818181818181"/>
      <point x="89.72727272727273" y="875.7272727272727" type="curve" smooth="yes"/>
      <point x="89.72727272727273" y="884.5454545454545"/>
      <point x="90.18181818181819" y="895.3636363636364"/>
      <point x="91.63636363636364" y="906.1818181818181" type="curve"/>
      <point x="60.54545454545455" y="909.2727272727273" type="line"/>
      <point x="58.09090909090909" y="893.0909090909091"/>
      <point x="57.09090909090909" y="876.6363636363636"/>
      <point x="57.09090909090909" y="862.0" type="curve" smooth="yes"/>
      <point x="57.09090909090909" y="762.6363636363636"/>
      <point x="114.0909090909091" y="714.0"/>
      <point x="214.72727272727272" y="714.0" type="curve" smooth="yes"/>
      <point x="309.27272727272725" y="714.0"/>
      <point x="362.3636363636364" y="734.0"/>
      <point x="442.0" y="734.0" type="curve" smooth="yes"/>
      <point x="515.3636363636364" y="734.0"/>
      <point x="547.9090909090909" y="689.7272727272727"/>
    </contour>
  </outline>
</glyph>
<glyph name="rVocalic-beng" format="2">
  <advance width="706.5454545454545"/>
  <unicode hex="098B"/>
  <anchor x="470.45454545454544" y="-5.909090909090909" name="bottom"/>
  <anchor x="471.8181818181818" y="60.90909090909091" name="bottom.rakaar"/>
  <anchor x="388.54545454545456" y="138.9090909090909" name="bottom.rvocalic"/>
  <anchor x="456.3636363636364" y="3.272727272727273" name="bottom.virama"/>
  <anchor x="471.8181818181818" y="584.5454545454545" name="top"/>
  <anchor x="474.8181818181818" y="584.5454545454545" name="topright"/>
  <anchor x="353.27272727272725" y="0.0" name="vedic"/>
  <outline>
    <contour>
      <point x="467.72727272727275" y="-8.454545454545455" type="line"/>
      <point x="471.8181818181818" y="-7.454545454545455" type="line"/>
      <point x="471.8181818181818" y="641.2727272727273" type="line"/>
      <point x="435.90909090909093" y="667.0909090909091" type="line"/>
      <point x="431.90909090909093" y="666.0909090909091" type="line"/>
      <point x="431.90909090909093" y="472.6363636363636" type="line"/>
      <point x="439.72727272727275" y="490.3636363636364" type="line"/>
      <point x="313.45454545454544" y="453.0"/>
      <point x="202.72727272727272" y="401.09090909090907"/>
      <point x="81.72727272727272" y="317.54545454545456" type="curve"/>
      <point x="110.45454545454545" y="243.1818181818182" type="line"/>
      <point x="254.72727272727272" y="216.54545454545453"/>
      <point x="362.3636363636364" y="144.9090909090909"/>
      <point x="435.27272727272725" y="18.09090909090909" type="curve"/>
    </contour>
    <contour>
      <point x="431.90909090909093" y="53.72727272727273" type="line"/>
      <point x="439.3636363636364" y="67.0" type="line"/>
      <point x="365.45454545454544" y="202.36363636363637"/>
      <point x="250.72727272727272" y="259.54545454545456"/>
      <point x="131.0909090909091" y="296.72727272727275" type="curve"/>
      <point x="137.63636363636363" y="279.45454545454544" type="line"/>
      <point x="241.1818181818182" y="359.09090909090907"/>
      <point x="351.8181818181818" y="402.1818181818182"/>
      <point x="442.09090909090907" y="428.45454545454544" type="curve"/>
      <point x="431.90909090909093" y="440.72727272727275" type="line"/>
    </contour>
    <contour>
      <point x="117.36363636363636" y="456.09090909090907" type="curve" smooth="yes"/>
      <point x="196.0" y="456.09090909090907"/>
      <point x="283.72727272727275" y="495.09090909090907"/>
      <point x="331.1818181818182" y="572.8181818181819" type="curve"/>
      <point x="303.3636363636364" y="567.8181818181819" type="line"/>
      <point x="334.1818181818182" y="545.4545454545455"/>
      <point x="356.27272727272725" y="514.5454545454545"/>
      <point x="394.1818181818182" y="459.90909090909093" type="curve"/>
      <point x="423.72727272727275" y="462.54545454545456" type="line"/>
      <point x="382.72727272727275" y="543.2727272727273"/>
      <point x="340.72727272727275" y="592.9090909090909"/>
      <point x="302.90909090909093" y="624.5454545454545" type="curve"/>
      <point x="250.8181818181818" y="540.5454545454545"/>
      <point x="172.36363636363637" y="512.0909090909091"/>
      <point x="123.9090909090909" y="512.0909090909091" type="curve" smooth="yes"/>
      <point x="114.63636363636364" y="512.0909090909091"/>
      <point x="104.36363636363636" y="514.1818181818181"/>
      <point x="98.72727272727272" y="516.1818181818181" type="curve"/>
      <point x="113.54545454545455" y="490.09090909090907" type="line"/>
      <point x="128.36363636363637" y="503.3636363636364"/>
      <point x="133.45454545454544" y="515.0909090909091"/>
      <point x="133.45454545454544" y="535.1818181818181" type="curve" smooth="yes"/>
      <point x="133.45454545454544" y="563.8181818181819"/>
      <point x="114.45454545454545" y="584.2727272727273"/>
      <point x="81.72727272727272" y="584.2727272727273" type="curve" smooth="yes"/>
      <point x="47.18181818181818" y="584.2727272727273"/>
      <point x="27.272727272727273" y="562.7272727272727"/>
      <point x="27.272727272727273" y="527.1818181818181" type="curve" smooth="yes"/>
      <point x="27.272727272727273" y="476.27272727272725"/>
      <point x="71.63636363636364" y="456.09090909090907"/>
    </contour>
    <contour>
      <point x="615.3636363636364" y="91.27272727272727" type="line"/>
      <point x="618.3636363636364" y="92.27272727272727" type="line"/>
      <point x="618.3636363636364" y="584.5454545454545" type="line"/>
      <point x="731.0" y="584.5454545454545" type="line"/>
      <point x="705.5454545454545" y="622.0" type="line"/>
      <point x="618.3636363636364" y="622.0" type="line"/>
      <point x="614.8181818181819" y="663.1818181818181" type="line"/>
      <point x="582.4545454545455" y="687.0909090909091" type="line"/>
      <point x="578.4545454545455" y="686.0909090909091" type="line"/>
      <point x="578.4545454545455" y="153.45454545454547" type="line"/>
      <point x="585.9090909090909" y="166.72727272727272" type="line"/>
      <point x="549.7272727272727" y="233.45454545454547"/>
      <point x="505.54545454545456" y="288.3636363636364"/>
      <point x="455.6363636363636" y="327.54545454545456" type="curve"/>
      <point x="448.6363636363636" y="276.1818181818182" type="line"/>
      <point x="501.8181818181818" y="240.36363636363637"/>
      <point x="545.2727272727273" y="182.45454545454547"/>
      <point x="581.8181818181819" y="117.81818181818181" type="curve"/>
    </contour>
  </outline>
</glyph>
<glyph name="lVocalic-beng" format="2">
  <advance width="510.8181818181818"/>
  <unicode hex="098C"/>
  <anchor x="357.27272727272725" y="584.5454545454545" name="top"/>
  <anchor x="255.1818181818182" y="0.0" name="vedic"/>
  <outline>
    <contour>
      <point x="302.27272727272725" y="33.90909090909091" type="line"/>
      <point x="387.72727272727275" y="54.09090909090909"/>
      <point x="476.45454545454544" y="144.36363636363637"/>
      <point x="476.45454545454544" y="275.3636363636364" type="curve" smooth="yes"/>
      <point x="476.45454545454544" y="406.3636363636364"/>
      <point x="411.09090909090907" y="449.27272727272725"/>
      <point x="277.0" y="482.0" type="curve" smooth="yes"/>
      <point x="184.9090909090909" y="504.8181818181818"/>
      <point x="119.63636363636364" y="524.1818181818181"/>
      <point x="119.63636363636364" y="605.4545454545455" type="curve" smooth="yes"/>
      <point x="119.63636363636364" y="637.8181818181819"/>
      <point x="128.36363636363637" y="664.7272727272727"/>
      <point x="138.8181818181818" y="690.2727272727273" type="curve"/>
      <point x="109.81818181818181" y="701.5454545454545" type="line"/>
      <point x="91.81818181818181" y="665.3636363636364"/>
      <point x="83.81818181818181" y="625.5454545454545"/>
      <point x="83.81818181818181" y="593.0909090909091" type="curve" smooth="yes"/>
      <point x="83.81818181818181" y="484.0"/>
      <point x="148.27272727272728" y="453.45454545454544"/>
      <point x="270.3636363636364" y="425.0" type="curve" smooth="yes"/>
      <point x="378.1818181818182" y="399.27272727272725"/>
      <point x="439.1818181818182" y="374.27272727272725"/>
      <point x="439.1818181818182" y="262.6363636363636" type="curve" smooth="yes"/>
      <point x="439.1818181818182" y="179.0"/>
      <point x="386.3636363636364" y="107.0"/>
      <point x="331.8181818181818" y="93.45454545454545" type="curve"/>
      <point x="351.3636363636364" y="81.9090909090909" type="line"/>
      <point x="356.0" y="199.9090909090909"/>
      <point x="315.3636363636364" y="299.09090909090907"/>
      <point x="202.0909090909091" y="299.09090909090907" type="curve" smooth="yes"/>
      <point x="116.54545454545455" y="299.09090909090907"/>
      <point x="71.36363636363636" y="239.63636363636363"/>
      <point x="71.36363636363636" y="171.54545454545453" type="curve" smooth="yes"/>
      <point x="71.36363636363636" y="94.27272727272727"/>
      <point x="114.0" y="52.81818181818181"/>
      <point x="164.63636363636363" y="52.81818181818181" type="curve" smooth="yes"/>
      <point x="204.0" y="52.81818181818181"/>
      <point x="222.36363636363637" y="79.54545454545455"/>
      <point x="222.36363636363637" y="109.54545454545455" type="curve" smooth="yes"/>
      <point x="222.36363636363637" y="141.1818181818182"/>
      <point x="198.36363636363637" y="162.0909090909091"/>
      <point x="169.27272727272728" y="162.0909090909091" type="curve" smooth="yes"/>
      <point x="141.72727272727272" y="162.0909090909091"/>
      <point x="117.72727272727273" y="142.27272727272728"/>
      <point x="118.0909090909091" y="116.0909090909091" type="curve"/>
      <point x="146.27272727272728" y="116.72727272727273" type="line"/>
      <point x="127.81818181818181" y="123.81818181818181"/>
      <point x="110.27272727272727" y="141.54545454545453"/>
      <point x="110.27272727272727" y="178.36363636363637" type="curve" smooth="yes"/>
      <point x="110.27272727272727" y="228.1818181818182"/>
      <point x="149.27272727272728" y="254.1818181818182"/>
      <point x="193.8181818181818" y="254.1818181818182" type="curve" smooth="yes"/>
      <point x="272.90909090909093" y="254.1818181818182"/>
      <point x="301.0" y="175.0909090909091"/>
      <point x="301.0" y="90.27272727272728" type="curve" smooth="yes"/>
      <point x="301.0" y="68.63636363636364"/>
      <point x="299.09090909090907" y="52.09090909090909"/>
      <point x="297.09090909090907" y="37.45454545454545" type="curve"/>
    </contour>
  </outline>
</glyph>
<glyph name="e-beng" format="2">
  <advance width="636.1818181818181"/>
  <unicode hex="098F"/>
  <anchor x="559.3636363636364" y="-8.636363636363637" name="bottom"/>
  <anchor x="559.3636363636364" y="2.5454545454545454" name="bottom.rvocalic"/>
  <anchor x="543.9090909090909" y="3.272727272727273" name="bottom.virama"/>
  <anchor x="469.54545454545456" y="584.5454545454545" name="top"/>
  <anchor x="472.54545454545456" y="584.5454545454545" name="topright"/>
  <anchor x="317.8181818181818" y="0.0" name="vedic"/>
  <outline>
    <contour>
      <point x="555.2727272727273" y="-10.272727272727273" type="line"/>
      <point x="559.3636363636364" y="-9.272727272727273" type="line"/>
      <point x="559.3636363636364" y="516.9090909090909" type="line" smooth="yes"/>
      <point x="559.3636363636364" y="588.3636363636364"/>
      <point x="529.2727272727273" y="631.5454545454545"/>
      <point x="457.3636363636364" y="631.5454545454545" type="curve" smooth="yes"/>
      <point x="340.6363636363636" y="631.5454545454545"/>
      <point x="230.8181818181818" y="495.1818181818182"/>
      <point x="230.8181818181818" y="383.90909090909093" type="curve" smooth="yes"/>
      <point x="230.8181818181818" y="314.27272727272725"/>
      <point x="270.27272727272725" y="284.27272727272725"/>
      <point x="316.8181818181818" y="283.1818181818182" type="curve" smooth="yes"/>
      <point x="367.09090909090907" y="282.09090909090907"/>
      <point x="393.6363636363636" y="311.6363636363636"/>
      <point x="393.6363636363636" y="351.90909090909093" type="curve" smooth="yes"/>
      <point x="393.6363636363636" y="388.72727272727275"/>
      <point x="371.45454545454544" y="418.0"/>
      <point x="329.90909090909093" y="418.0" type="curve" smooth="yes"/>
      <point x="309.09090909090907" y="418.0"/>
      <point x="286.27272727272725" y="408.1818181818182"/>
      <point x="277.0" y="386.6363636363636" type="curve"/>
      <point x="292.0" y="390.1818181818182" type="line"/>
      <point x="290.0" y="482.72727272727275"/>
      <point x="388.90909090909093" y="591.1818181818181"/>
      <point x="459.0" y="591.1818181818181" type="curve" smooth="yes"/>
      <point x="506.6363636363636" y="591.1818181818181"/>
      <point x="519.4545454545455" y="563.1818181818181"/>
      <point x="519.4545454545455" y="510.54545454545456" type="curve" smooth="yes"/>
      <point x="519.4545454545455" y="178.1818181818182" type="line" smooth="yes"/>
      <point x="519.4545454545455" y="143.1818181818182"/>
      <point x="520.0" y="103.72727272727273"/>
      <point x="522.5454545454545" y="67.81818181818181" type="curve"/>
      <point x="485.3636363636364" y="135.9090909090909"/>
      <point x="445.45454545454544" y="153.0909090909091"/>
      <point x="391.1818181818182" y="153.0909090909091" type="curve" smooth="yes"/>
      <point x="331.09090909090907" y="153.0909090909091"/>
      <point x="297.45454545454544" y="138.54545454545456"/>
      <point x="219.0" y="138.54545454545456" type="curve" smooth="yes"/>
      <point x="137.63636363636363" y="138.54545454545456"/>
      <point x="87.0" y="178.0"/>
      <point x="87.0" y="269.1818181818182" type="curve" smooth="yes"/>
      <point x="87.0" y="304.8181818181818"/>
      <point x="92.36363636363636" y="330.8181818181818"/>
      <point x="98.36363636363636" y="353.8181818181818" type="curve"/>
      <point x="65.72727272727273" y="362.0" type="line"/>
      <point x="58.27272727272727" y="333.3636363636364"/>
      <point x="52.27272727272727" y="296.3636363636364"/>
      <point x="52.27272727272727" y="256.3636363636364" type="curve" smooth="yes"/>
      <point x="52.27272727272727" y="121.18181818181819"/>
      <point x="127.0909090909091" y="77.0909090909091"/>
      <point x="217.54545454545453" y="77.0909090909091" type="curve" smooth="yes"/>
      <point x="296.90909090909093" y="77.0909090909091"/>
      <point x="335.09090909090907" y="93.81818181818181"/>
      <point x="405.72727272727275" y="93.81818181818181" type="curve" smooth="yes"/>
      <point x="454.6363636363636" y="93.81818181818181"/>
      <point x="488.3636363636364" y="79.45454545454545"/>
      <point x="523.7272727272727" y="16.272727272727273" type="curve"/>
    </contour>
  </outline>
</glyph>
<glyph name="ai-beng" format="2">
  <advance width="740.2727272727273"/>
  <unicode hex="0990"/>
  <anchor x="493.6363636363636" y="600.9090909090909" name="top"/>
  <anchor x="463.09090909090907" y="608.3636363636364" name="topright"/>
  <anchor x="369.90909090909093" y="0.0" name="vedic"/>
  <anchor x="559.3636363636364" y="-8.636363636363637" name="bottom"/>
  <anchor x="559.3636363636364" y="2.5454545454545454" name="bottom.rvocalic"/>
  <anchor x="543.9090909090909" y="3.272727272727273" name="bottom.virama"/>
  <outline>
    <contour>
      <point x="553.6363636363636" y="343.54545454545456" type="line"/>
      <point x="615.0909090909091" y="398.09090909090907"/>
      <point x="667.5454545454545" y="466.1818181818182"/>
      <point x="667.5454545454545" y="565.5454545454545" type="curve" smooth="yes"/>
      <point x="667.5454545454545" y="714.4545454545455"/>
      <point x="552.8181818181819" y="744.1818181818181"/>
      <point x="419.0" y="759.9090909090909" type="curve" smooth="yes"/>
      <point x="313.54545454545456" y="772.0909090909091"/>
      <point x="222.27272727272728" y="783.6363636363636"/>
      <point x="222.27272727272728" y="879.9090909090909" type="curve" smooth="yes"/>
      <point x="222.27272727272728" y="909.1818181818181"/>
      <point x="228.72727272727272" y="934.4545454545455"/>
      <point x="239.63636363636363" y="957.0909090909091" type="curve"/>
      <point x="209.72727272727272" y="968.3636363636364" type="line"/>
      <point x="194.45454545454547" y="937.1818181818181"/>
      <point x="186.45454545454547" y="901.9090909090909"/>
      <point x="186.45454545454547" y="868.0909090909091" type="curve" smooth="yes"/>
      <point x="186.45454545454547" y="739.7272727272727"/>
      <point x="292.27272727272725" y="720.8181818181819"/>
      <point x="414.72727272727275" y="708.5454545454545" type="curve" smooth="yes"/>
      <point x="533.0909090909091" y="696.8181818181819"/>
      <point x="634.0909090909091" y="675.1818181818181"/>
      <point x="634.0909090909091" y="561.5454545454545" type="curve" smooth="yes"/>
      <point x="634.0909090909091" y="486.0"/>
      <point x="596.7272727272727" y="434.72727272727275"/>
      <point x="538.8181818181819" y="386.72727272727275" type="curve"/>
    </contour>
    <component base="e-beng"/>
  </outline>
</glyph>
<glyph name="o-beng" format="2">
  <advance width="686.1818181818181"/>
  <unicode hex="0993"/>
  <anchor x="510.0" y="39.90909090909091" name="bottom"/>
  <anchor x="558.0" y="-11.909090909090908" name="bottom.rakaar"/>
  <anchor x="481.90909090909093" y="73.45454545454545" name="bottom.rvocalic"/>
  <anchor x="434.6363636363636" y="24.454545454545453" name="bottom.virama"/>
  <anchor x="436.3636363636364" y="584.5454545454545" name="top"/>
  <anchor x="436.6363636363636" y="584.5454545454545" name="topright"/>
  <anchor x="342.8181818181818" y="0.0" name="vedic"/>
  <outline>
    <contour>
      <point x="428.8181818181818" y="68.63636363636364" type="curve" smooth="yes"/>
      <point x="562.3636363636364" y="68.63636363636364"/>
      <point x="632.0909090909091" y="144.9090909090909"/>
      <point x="632.0909090909091" y="249.0909090909091" type="curve" smooth="yes"/>
      <point x="632.0909090909091" y="352.8181818181818"/>
      <point x="555.7272727272727" y="412.3636363636364"/>
      <point x="485.09090909090907" y="412.3636363636364" type="curve" smooth="yes"/>
      <point x="446.8181818181818" y="412.3636363636364"/>
      <point x="422.45454545454544" y="390.45454545454544"/>
      <point x="422.45454545454544" y="354.3636363636364" type="curve" smooth="yes"/>
      <point x="422.45454545454544" y="317.8181818181818"/>
      <point x="446.1818181818182" y="295.72727272727275"/>
      <point x="485.09090909090907" y="295.72727272727275" type="curve" smooth="yes"/>
      <point x="549.0" y="295.72727272727275"/>
      <point x="612.4545454545455" y="384.27272727272725"/>
      <point x="612.4545454545455" y="486.0" type="curve" smooth="yes"/>
      <point x="612.4545454545455" y="571.7272727272727"/>
      <point x="556.8181818181819" y="624.1818181818181"/>
      <point x="460.45454545454544" y="624.1818181818181" type="curve" smooth="yes"/>
      <point x="320.0" y="624.1818181818181"/>
      <point x="206.1818181818182" y="518.5454545454545"/>
      <point x="206.1818181818182" y="420.45454545454544" type="curve" smooth="yes"/>
      <point x="206.1818181818182" y="364.45454545454544"/>
      <point x="239.9090909090909" y="337.90909090909093"/>
      <point x="278.1818181818182" y="337.90909090909093" type="curve" smooth="yes"/>
      <point x="316.45454545454544" y="337.90909090909093"/>
      <point x="342.0" y="359.1818181818182"/>
      <point x="342.0" y="400.09090909090907" type="curve" smooth="yes"/>
      <point x="342.0" y="433.72727272727275"/>
      <point x="320.72727272727275" y="458.6363636363636"/>
      <point x="287.72727272727275" y="458.6363636363636" type="curve" smooth="yes"/>
      <point x="272.27272727272725" y="458.6363636363636"/>
      <point x="251.45454545454547" y="453.1818181818182"/>
      <point x="237.8181818181818" y="430.1818181818182" type="curve"/>
      <point x="268.8181818181818" y="420.45454545454544" type="line"/>
      <point x="277.6363636363636" y="521.0909090909091"/>
      <point x="376.8181818181818" y="585.1818181818181"/>
      <point x="469.0" y="585.1818181818181" type="curve" smooth="yes"/>
      <point x="536.8181818181819" y="585.1818181818181"/>
      <point x="571.3636363636364" y="550.8181818181819"/>
      <point x="571.3636363636364" y="496.6363636363636" type="curve" smooth="yes"/>
      <point x="571.3636363636364" y="442.90909090909093"/>
      <point x="543.8181818181819" y="405.3636363636364"/>
      <point x="505.3636363636364" y="382.72727272727275" type="curve"/>
      <point x="515.8181818181819" y="359.09090909090907" type="line"/>
      <point x="550.7272727272727" y="358.6363636363636"/>
      <point x="593.1818181818181" y="323.45454545454544"/>
      <point x="593.1818181818181" y="260.3636363636364" type="curve" smooth="yes"/>
      <point x="593.1818181818181" y="179.72727272727272"/>
      <point x="531.8181818181819" y="130.0909090909091"/>
      <point x="431.90909090909093" y="130.0909090909091" type="curve" smooth="yes"/>
      <point x="276.6363636363636" y="130.0909090909091"/>
      <point x="139.72727272727272" y="248.54545454545453"/>
      <point x="57.36363636363637" y="535.0" type="curve"/>
      <point x="26.363636363636363" y="526.1818181818181" type="line"/>
      <point x="108.0909090909091" y="202.63636363636363"/>
      <point x="267.8181818181818" y="68.63636363636364"/>
    </contour>
  </outline>
</glyph>
<glyph name="au-beng" format="2">
  <advance width="759.8181818181819"/>
  <unicode hex="0994"/>
  <anchor x="510.0" y="39.90909090909091" name="bottom"/>
  <anchor x="558.0" y="-11.909090909090908" name="bottom.rakaar"/>
  <anchor x="481.90909090909093" y="73.45454545454545" name="bottom.rvocalic"/>
  <anchor x="434.6363636363636" y="24.454545454545453" name="bottom.virama"/>
  <anchor x="523.6363636363636" y="600.9090909090909" name="top"/>
  <anchor x="473.09090909090907" y="608.3636363636364" name="topright"/>
  <anchor x="379.90909090909093" y="0.0" name="vedic"/>
  <outline>
    <contour>
      <point x="573.1818181818181" y="343.54545454545456" type="line"/>
      <point x="634.6363636363636" y="398.09090909090907"/>
      <point x="687.0909090909091" y="466.1818181818182"/>
      <point x="687.0909090909091" y="564.7272727272727" type="curve" smooth="yes"/>
      <point x="687.0909090909091" y="715.5454545454545"/>
      <point x="569.6363636363636" y="744.7272727272727"/>
      <point x="438.54545454545456" y="759.9090909090909" type="curve" smooth="yes"/>
      <point x="333.09090909090907" y="772.0909090909091"/>
      <point x="241.8181818181818" y="783.6363636363636"/>
      <point x="241.8181818181818" y="879.9090909090909" type="curve" smooth="yes"/>
      <point x="241.8181818181818" y="909.1818181818181"/>
      <point x="248.27272727272728" y="934.4545454545455"/>
      <point x="259.1818181818182" y="957.0909090909091" type="curve"/>
      <point x="229.27272727272728" y="968.3636363636364" type="line"/>
      <point x="214.0" y="937.1818181818181"/>
      <point x="206.0" y="901.9090909090909"/>
      <point x="206.0" y="868.0909090909091" type="curve" smooth="yes"/>
      <point x="206.0" y="739.7272727272727"/>
      <point x="311.8181818181818" y="720.8181818181819"/>
      <point x="433.72727272727275" y="708.5454545454545" type="curve" smooth="yes"/>
      <point x="552.6363636363636" y="696.2727272727273"/>
      <point x="653.6363636363636" y="675.1818181818181"/>
      <point x="653.6363636363636" y="560.1818181818181" type="curve" smooth="yes"/>
      <point x="653.6363636363636" y="480.54545454545456"/>
      <point x="615.7272727272727" y="430.3636363636364"/>
      <point x="557.8181818181819" y="382.3636363636364" type="curve"/>
    </contour>
    <component base="o-beng"/>
  </outline>
</glyph>
<glyph name="ka-beng" format="2">
  <advance width="710.7272727272727"/>
  <unicode hex="0995"/>
  <anchor x="421.0" y="21.363636363636363" name="bottom"/>
  <anchor x="428.27272727272725" y="47.27272727272727" name="bottom.rakaar"/>
  <anchor x="428.27272727272725" y="9.272727272727273" name="bottom.rvocalic"/>
  <anchor x="417.3636363636364" y="17.81818181818182" name="bottom.virama"/>
  <anchor x="208.54545454545453" y="77.0909090909091" name="nukta"/>
  <anchor x="434.6363636363636" y="584.5454545454545" name="top"/>
  <anchor x="431.27272727272725" y="584.5454545454545" name="topright"/>
  <anchor x="355.09090909090907" y="0.0" name="vedic"/>
  <outline>
    <contour>
      <point x="424.1818181818182" y="-8.454545454545455" type="line"/>
      <point x="428.27272727272725" y="-7.454545454545455" type="line"/>
      <point x="428.27272727272725" y="471.54545454545456" type="line"/>
      <point x="414.6363636363636" y="454.09090909090907" type="line"/>
      <point x="418.72727272727275" y="456.09090909090907"/>
      <point x="424.8181818181818" y="457.09090909090907"/>
      <point x="430.27272727272725" y="457.09090909090907" type="curve" smooth="yes"/>
      <point x="546.8181818181819" y="457.09090909090907"/>
      <point x="635.0" y="378.3636363636364"/>
      <point x="635.0" y="289.54545454545456" type="curve" smooth="yes"/>
      <point x="635.0" y="273.1818181818182"/>
      <point x="631.9090909090909" y="262.8181818181818"/>
      <point x="622.9090909090909" y="252.1818181818182" type="curve"/>
      <point x="638.8181818181819" y="255.0" type="line"/>
      <point x="631.0" y="288.1818181818182"/>
      <point x="611.1818181818181" y="305.3636363636364"/>
      <point x="582.8181818181819" y="305.3636363636364" type="curve" smooth="yes"/>
      <point x="546.1818181818181" y="305.3636363636364"/>
      <point x="526.4545454545455" y="279.27272727272725"/>
      <point x="526.4545454545455" y="246.27272727272728" type="curve" smooth="yes"/>
      <point x="526.4545454545455" y="213.54545454545453"/>
      <point x="548.4545454545455" y="184.63636363636363"/>
      <point x="590.1818181818181" y="184.63636363636363" type="curve" smooth="yes"/>
      <point x="636.5454545454545" y="184.63636363636363"/>
      <point x="667.9090909090909" y="221.27272727272728"/>
      <point x="667.9090909090909" y="291.8181818181818" type="curve" smooth="yes"/>
      <point x="667.9090909090909" y="407.54545454545456"/>
      <point x="560.5454545454545" y="510.45454545454544"/>
      <point x="417.45454545454544" y="519.0" type="curve"/>
      <point x="428.27272727272725" y="499.09090909090907" type="line"/>
      <point x="428.27272727272725" y="584.5454545454545" type="line"/>
      <point x="735.1818181818181" y="584.5454545454545" type="line"/>
      <point x="710.2727272727273" y="622.0" type="line"/>
      <point x="-24.454545454545453" y="622.0" type="line"/>
      <point x="0.45454545454545503" y="584.5454545454545" type="line"/>
      <point x="388.3636363636364" y="584.5454545454545" type="line"/>
      <point x="388.3636363636364" y="499.09090909090907" type="line"/>
      <point x="396.1818181818182" y="519.0" type="line"/>
      <point x="268.54545454545456" y="478.3636363636364"/>
      <point x="159.1818181818182" y="419.72727272727275"/>
      <point x="38.18181818181818" y="336.1818181818182" type="curve"/>
      <point x="66.9090909090909" y="261.8181818181818" type="line"/>
      <point x="211.1818181818182" y="229.72727272727272"/>
      <point x="317.45454545454544" y="146.72727272727272"/>
      <point x="391.72727272727275" y="18.09090909090909" type="curve"/>
    </contour>
    <contour>
      <point x="388.3636363636364" y="53.72727272727273" type="line"/>
      <point x="395.8181818181818" y="67.0" type="line"/>
      <point x="321.90909090909093" y="202.36363636363637"/>
      <point x="207.1818181818182" y="279.1818181818182"/>
      <point x="87.54545454545455" y="315.3636363636364" type="curve"/>
      <point x="94.0909090909091" y="298.6363636363636" type="line"/>
      <point x="196.0909090909091" y="374.54545454545456"/>
      <point x="307.8181818181818" y="429.0"/>
      <point x="398.54545454545456" y="457.6363636363636" type="curve"/>
      <point x="388.3636363636364" y="471.54545454545456" type="line"/>
    </contour>
  </outline>
</glyph>
<glyph name="kha-beng" format="2">
  <advance width="593.5454545454545"/>
  <unicode hex="0996"/>
  <anchor x="498.0909090909091" y="21.363636363636363" name="bottom"/>
  <anchor x="505.3636363636364" y="60.90909090909091" name="bottom.rakaar"/>
  <anchor x="505.3636363636364" y="9.272727272727273" name="bottom.rvocalic"/>
  <anchor x="489.90909090909093" y="3.272727272727273" name="bottom.virama"/>
  <anchor x="505.3636363636364" y="579.0909090909091" name="top"/>
  <anchor x="491.27272727272725" y="557.4545454545455" name="topright"/>
  <anchor x="276.27272727272725" y="0.0" name="vedic"/>
  <outline>
    <contour>
      <point x="501.27272727272725" y="-8.454545454545455" type="line"/>
      <point x="505.3636363636364" y="-7.454545454545455" type="line"/>
      <point x="505.3636363636364" y="584.5454545454545" type="line"/>
      <point x="618.0" y="584.5454545454545" type="line"/>
      <point x="592.5454545454545" y="622.0" type="line"/>
      <point x="505.3636363636364" y="622.0" type="line"/>
      <point x="501.8181818181818" y="663.1818181818181" type="line"/>
      <point x="469.45454545454544" y="687.0909090909091" type="line"/>
      <point x="465.45454545454544" y="686.0909090909091" type="line"/>
      <point x="465.45454545454544" y="53.72727272727273" type="line"/>
      <point x="472.90909090909093" y="67.0" type="line"/>
      <point x="409.1818181818182" y="188.0909090909091"/>
      <point x="308.1818181818182" y="270.09090909090907"/>
      <point x="182.36363636363637" y="312.1818181818182" type="curve"/>
      <point x="190.27272727272728" y="289.8181818181818" type="line"/>
      <point x="315.45454545454544" y="310.3636363636364"/>
      <point x="377.1818181818182" y="368.72727272727275"/>
      <point x="377.1818181818182" y="465.0" type="curve" smooth="yes"/>
      <point x="377.1818181818182" y="543.2727272727273"/>
      <point x="334.1818181818182" y="591.0909090909091"/>
      <point x="298.6363636363636" y="624.5454545454545" type="curve"/>
      <point x="246.54545454545453" y="541.9090909090909"/>
      <point x="179.0" y="502.54545454545456"/>
      <point x="125.63636363636364" y="502.54545454545456" type="curve" smooth="yes"/>
      <point x="114.9090909090909" y="502.54545454545456"/>
      <point x="105.9090909090909" y="504.6363636363636"/>
      <point x="100.36363636363636" y="507.72727272727275" type="curve"/>
      <point x="114.9090909090909" y="485.09090909090907" type="line"/>
      <point x="130.1818181818182" y="498.8181818181818"/>
      <point x="135.27272727272728" y="510.54545454545456"/>
      <point x="135.27272727272728" y="531.0909090909091" type="curve" smooth="yes"/>
      <point x="135.27272727272728" y="560.1818181818181"/>
      <point x="115.81818181818181" y="581.0909090909091"/>
      <point x="82.63636363636364" y="581.0909090909091" type="curve" smooth="yes"/>
      <point x="47.63636363636364" y="581.0909090909091"/>
      <point x="27.272727272727273" y="559.0909090909091"/>
      <point x="27.272727272727273" y="523.0909090909091" type="curve" smooth="yes"/>
      <point x="27.272727272727273" y="468.3636363636364"/>
      <point x="70.45454545454545" y="446.54545454545456"/>
      <point x="116.0909090909091" y="446.54545454545456" type="curve" smooth="yes"/>
      <point x="199.8181818181818" y="446.54545454545456"/>
      <point x="279.90909090909093" y="496.0"/>
      <point x="326.90909090909093" y="572.8181818181819" type="curve"/>
      <point x="298.1818181818182" y="567.8181818181819" type="line"/>
      <point x="319.8181818181818" y="548.1818181818181"/>
      <point x="337.27272727272725" y="521.0"/>
      <point x="337.27272727272725" y="475.45454545454544" type="curve" smooth="yes"/>
      <point x="337.27272727272725" y="382.8181818181818"/>
      <point x="228.1818181818182" y="341.8181818181818"/>
      <point x="118.27272727272728" y="336.8181818181818" type="curve"/>
      <point x="144.63636363636363" y="261.72727272727275" type="line"/>
      <point x="293.09090909090907" y="234.72727272727272"/>
      <point x="397.3636363636364" y="148.0909090909091"/>
      <point x="468.8181818181818" y="18.09090909090909" type="curve"/>
    </contour>
  </outline>
</glyph>
<glyph name="ga-beng" format="2">
  <advance width="584.5454545454545"/>
  <unicode hex="0997"/>
  <anchor x="482.6363636363636" y="60.36363636363636" name="bottom"/>
  <anchor x="496.3636363636364" y="-9.363636363636363" name="bottom.rakaar"/>
  <anchor x="496.3636363636364" y="-1.0909090909090908" name="bottom.rvocalic"/>
  <anchor x="483.1818181818182" y="5.545454545454546" name="bottom.virama"/>
  <anchor x="496.3636363636364" y="553.1818181818181" name="top"/>
  <anchor x="482.27272727272725" y="557.4545454545455" name="topright"/>
  <anchor x="292.0" y="0.0" name="vedic"/>
  <outline>
    <contour>
      <point x="493.3636363636364" y="-18.18181818181818" type="line"/>
      <point x="496.3636363636364" y="-17.18181818181818" type="line"/>
      <point x="496.3636363636364" y="584.5454545454545" type="line"/>
      <point x="609.0" y="584.5454545454545" type="line"/>
      <point x="583.5454545454545" y="622.0" type="line"/>
      <point x="496.3636363636364" y="622.0" type="line"/>
      <point x="492.8181818181818" y="663.1818181818181" type="line"/>
      <point x="460.45454545454544" y="687.0909090909091" type="line"/>
      <point x="456.45454545454544" y="686.0909090909091" type="line"/>
      <point x="456.45454545454544" y="569.0909090909091" type="line" smooth="yes"/>
      <point x="456.45454545454544" y="523.2727272727273"/>
      <point x="459.09090909090907" y="460.90909090909093"/>
      <point x="462.09090909090907" y="422.27272727272725" type="curve"/>
      <point x="470.8181818181818" y="420.45454545454544" type="line"/>
      <point x="406.6363636363636" y="557.0909090909091"/>
      <point x="331.6363636363636" y="629.9090909090909"/>
      <point x="237.27272727272728" y="629.9090909090909" type="curve" smooth="yes"/>
      <point x="154.9090909090909" y="629.9090909090909"/>
      <point x="81.63636363636364" y="573.5454545454545"/>
      <point x="24.09090909090909" y="457.72727272727275" type="curve"/>
      <point x="72.0" y="411.6363636363636" type="line"/>
      <point x="114.18181818181819" y="443.0"/>
      <point x="153.8181818181818" y="460.27272727272725"/>
      <point x="198.45454545454547" y="460.27272727272725" type="curve" smooth="yes"/>
      <point x="243.54545454545453" y="460.27272727272725"/>
      <point x="263.45454545454544" y="431.3636363636364"/>
      <point x="263.45454545454544" y="397.54545454545456" type="curve" smooth="yes"/>
      <point x="263.45454545454544" y="347.8181818181818"/>
      <point x="220.27272727272728" y="302.3636363636364"/>
      <point x="139.72727272727272" y="264.8181818181818" type="curve"/>
      <point x="182.0" y="203.8181818181818" type="line"/>
      <point x="264.0" y="256.8181818181818"/>
      <point x="307.09090909090907" y="312.8181818181818"/>
      <point x="307.09090909090907" y="388.0" type="curve" smooth="yes"/>
      <point x="307.09090909090907" y="451.90909090909093"/>
      <point x="266.72727272727275" y="500.0"/>
      <point x="200.45454545454547" y="500.0" type="curve" smooth="yes"/>
      <point x="150.0" y="500.0"/>
      <point x="111.0909090909091" y="480.8181818181818"/>
      <point x="84.63636363636364" y="462.0" type="curve"/>
      <point x="99.36363636363636" y="453.1818181818182" type="line"/>
      <point x="143.0909090909091" y="546.9090909090909"/>
      <point x="194.54545454545456" y="576.4545454545455"/>
      <point x="246.27272727272728" y="576.4545454545455" type="curve" smooth="yes"/>
      <point x="330.27272727272725" y="576.4545454545455"/>
      <point x="398.45454545454544" y="507.54545454545456"/>
      <point x="466.0" y="363.72727272727275" type="curve"/>
      <point x="456.45454545454544" y="411.8181818181818" type="line"/>
      <point x="456.45454545454544" y="3.0" type="line"/>
    </contour>
  </outline>
</glyph>
<glyph name="gha-beng" format="2">
  <advance width="524.6363636363636"/>
  <unicode hex="0998"/>
  <anchor x="429.1818181818182" y="21.363636363636363" name="bottom"/>
  <anchor x="436.45454545454544" y="60.90909090909091" name="bottom.rakaar"/>
  <anchor x="436.45454545454544" y="9.272727272727273" name="bottom.rvocalic"/>
  <anchor x="421.0" y="3.272727272727273" name="bottom.virama"/>
  <anchor x="436.45454545454544" y="584.5454545454545" name="top"/>
  <anchor x="439.45454545454544" y="584.5454545454545" name="topright"/>
  <anchor x="262.09090909090907" y="0.0" name="vedic"/>
  <outline>
    <contour>
      <point x="432.3636363636364" y="-8.454545454545455" type="line"/>
      <point x="436.45454545454544" y="-7.454545454545455" type="line"/>
      <point x="436.45454545454544" y="584.5454545454545" type="line"/>
      <point x="549.0909090909091" y="584.5454545454545" type="line"/>
      <point x="524.1818181818181" y="622.0" type="line"/>
      <point x="-24.454545454545453" y="622.0" type="line"/>
      <point x="0.45454545454545503" y="584.5454545454545" type="line"/>
      <point x="396.54545454545456" y="584.5454545454545" type="line"/>
      <point x="396.54545454545456" y="53.72727272727273" type="line"/>
      <point x="404.0" y="67.0" type="line"/>
      <point x="338.90909090909093" y="188.36363636363637"/>
      <point x="246.45454545454547" y="250.1818181818182"/>
      <point x="95.72727272727273" y="305.3636363636364" type="curve"/>
      <point x="102.27272727272728" y="288.09090909090907" type="line"/>
      <point x="178.27272727272728" y="344.45454545454544"/>
      <point x="258.3636363636364" y="381.90909090909093"/>
      <point x="327.45454545454544" y="413.54545454545456" type="curve"/>
      <point x="298.54545454545456" y="465.0" type="line"/>
      <point x="264.90909090909093" y="444.45454545454544"/>
      <point x="225.0909090909091" y="430.27272727272725"/>
      <point x="194.8181818181818" y="430.27272727272725" type="curve" smooth="yes"/>
      <point x="147.72727272727272" y="430.27272727272725"/>
      <point x="108.81818181818181" y="459.54545454545456"/>
      <point x="108.81818181818181" y="506.1818181818182" type="curve" smooth="yes"/>
      <point x="108.81818181818181" y="562.5454545454545"/>
      <point x="151.36363636363637" y="583.6363636363636"/>
      <point x="191.27272727272728" y="591.3636363636364" type="curve"/>
      <point x="142.8181818181818" y="617.9090909090909" type="line"/>
      <point x="102.0909090909091" y="609.6363636363636"/>
      <point x="50.09090909090909" y="579.4545454545455"/>
      <point x="50.09090909090909" y="512.3636363636364" type="curve" smooth="yes"/>
      <point x="50.09090909090909" y="444.8181818181818"/>
      <point x="110.81818181818181" y="399.1818181818182"/>
      <point x="192.8181818181818" y="393.54545454545456" type="curve"/>
      <point x="179.63636363636363" y="406.1818181818182" type="line"/>
      <point x="129.9090909090909" y="379.72727272727275"/>
      <point x="88.45454545454545" y="355.6363636363636"/>
      <point x="46.36363636363636" y="326.1818181818182" type="curve"/>
      <point x="75.0909090909091" y="251.8181818181818" type="line"/>
      <point x="217.1818181818182" y="220.27272727272728"/>
      <point x="327.09090909090907" y="149.45454545454547"/>
      <point x="399.90909090909093" y="18.09090909090909" type="curve"/>
    </contour>
  </outline>
</glyph>
<glyph name="nga-beng" format="2">
  <advance width="612.2727272727273"/>
  <unicode hex="0999"/>
  <anchor x="403.27272727272725" y="28.545454545454547" name="bottom"/>
  <anchor x="498.90909090909093" y="-36.36363636363636" name="bottom.rakaar"/>
  <anchor x="417.3636363636364" y="35.90909090909091" name="bottom.rvocalic"/>
  <anchor x="375.54545454545456" y="0.0" name="bottom.virama"/>
  <anchor x="327.72727272727275" y="584.5454545454545" name="top"/>
  <anchor x="314.3636363636364" y="584.5454545454545" name="topright"/>
  <anchor x="305.6363636363636" y="0.0" name="vedic"/>
  <outline>
    <contour>
      <point x="364.8181818181818" y="44.18181818181818" type="curve" smooth="yes"/>
      <point x="497.45454545454544" y="44.18181818181818"/>
      <point x="565.0" y="134.63636363636363"/>
      <point x="565.0" y="253.8181818181818" type="curve" smooth="yes"/>
      <point x="565.0" y="331.72727272727275"/>
      <point x="538.4545454545455" y="389.0"/>
      <point x="499.54545454545456" y="430.45454545454544" type="curve"/>
      <point x="447.3636363636364" y="367.54545454545456"/>
      <point x="378.09090909090907" y="303.0"/>
      <point x="314.6363636363636" y="303.0" type="curve" smooth="yes"/>
      <point x="290.8181818181818" y="303.0"/>
      <point x="277.72727272727275" y="316.1818181818182"/>
      <point x="277.72727272727275" y="339.1818181818182" type="curve" smooth="yes"/>
      <point x="277.72727272727275" y="479.54545454545456" type="line" smooth="yes"/>
      <point x="277.72727272727275" y="559.7272727272727"/>
      <point x="310.0" y="594.0909090909091"/>
      <point x="357.72727272727275" y="594.0909090909091" type="curve" smooth="yes"/>
      <point x="396.72727272727275" y="594.0909090909091"/>
      <point x="424.3636363636364" y="572.0"/>
      <point x="424.3636363636364" y="531.6363636363636" type="curve" smooth="yes"/>
      <point x="424.3636363636364" y="493.1818181818182"/>
      <point x="405.45454545454544" y="458.72727272727275"/>
      <point x="336.0" y="458.72727272727275" type="curve" smooth="yes"/>
      <point x="233.72727272727272" y="458.72727272727275"/>
      <point x="184.1818181818182" y="516.5454545454545"/>
      <point x="139.63636363636363" y="621.5454545454545" type="curve"/>
      <point x="110.18181818181819" y="607.4545454545455" type="line"/>
      <point x="147.1818181818182" y="517.3636363636364"/>
      <point x="208.8181818181818" y="415.6363636363636"/>
      <point x="333.90909090909093" y="415.6363636363636" type="curve" smooth="yes"/>
      <point x="436.0" y="415.6363636363636"/>
      <point x="462.6363636363636" y="475.0"/>
      <point x="463.1818181818182" y="524.2727272727273" type="curve" smooth="yes"/>
      <point x="463.72727272727275" y="585.3636363636364"/>
      <point x="425.3636363636364" y="632.4545454545455"/>
      <point x="355.54545454545456" y="632.4545454545455" type="curve" smooth="yes"/>
      <point x="277.6363636363636" y="632.4545454545455"/>
      <point x="236.72727272727272" y="576.5454545454545"/>
      <point x="236.72727272727272" y="491.8181818181818" type="curve" smooth="yes"/>
      <point x="236.72727272727272" y="337.8181818181818" type="line" smooth="yes"/>
      <point x="236.72727272727272" y="305.6363636363636"/>
      <point x="249.27272727272728" y="284.1818181818182"/>
      <point x="268.09090909090907" y="268.72727272727275" type="curve" smooth="yes"/>
      <point x="284.27272727272725" y="255.36363636363637"/>
      <point x="306.72727272727275" y="248.0"/>
      <point x="331.8181818181818" y="248.0" type="curve" smooth="yes"/>
      <point x="392.54545454545456" y="248.0"/>
      <point x="460.27272727272725" y="299.45454545454544"/>
      <point x="519.0" y="365.09090909090907" type="curve"/>
      <point x="491.54545454545456" y="376.90909090909093" type="line"/>
      <point x="510.54545454545456" y="353.90909090909093"/>
      <point x="526.6363636363636" y="321.45454545454544"/>
      <point x="526.6363636363636" y="269.54545454545456" type="curve" smooth="yes"/>
      <point x="526.6363636363636" y="167.63636363636363"/>
      <point x="467.0" y="105.0909090909091"/>
      <point x="365.72727272727275" y="105.0909090909091" type="curve" smooth="yes"/>
      <point x="206.36363636363637" y="105.0909090909091"/>
      <point x="121.27272727272728" y="242.0"/>
      <point x="50.0" y="495.1818181818182" type="curve"/>
      <point x="19.09090909090909" y="486.3636363636364" type="line"/>
      <point x="92.81818181818181" y="183.36363636363637"/>
      <point x="201.9090909090909" y="44.18181818181818"/>
    </contour>
  </outline>
</glyph>
<glyph name="ca-beng" format="2">
  <advance width="481.8181818181818"/>
  <unicode hex="099A"/>
  <anchor x="306.3636363636364" y="37.72727272727273" name="bottom"/>
  <anchor x="361.3636363636364" y="0.0" name="bottom.rakaar"/>
  <anchor x="295.54545454545456" y="39.63636363636364" name="bottom.rvocalic"/>
  <anchor x="237.8181818181818" y="35.54545454545455" name="bottom.virama"/>
  <anchor x="128.0909090909091" y="584.5454545454545" name="top"/>
  <anchor x="131.0909090909091" y="584.5454545454545" name="topright"/>
  <anchor x="240.9090909090909" y="0.0" name="vedic"/>
  <outline>
    <contour>
      <point x="201.0" y="39.63636363636364" type="curve" smooth="yes"/>
      <point x="330.09090909090907" y="39.63636363636364"/>
      <point x="429.1818181818182" y="213.9090909090909"/>
      <point x="428.27272727272725" y="336.54545454545456" type="curve" smooth="yes"/>
      <point x="428.27272727272725" y="367.0"/>
      <point x="403.45454545454544" y="388.72727272727275"/>
      <point x="389.3636363636364" y="397.09090909090907" type="curve"/>
      <point x="285.90909090909093" y="406.09090909090907"/>
      <point x="181.1818181818182" y="461.3636363636364"/>
      <point x="122.54545454545455" y="572.0909090909091" type="curve"/>
      <point x="120.36363636363636" y="523.8181818181819" type="line"/>
      <point x="166.27272727272728" y="421.72727272727275"/>
      <point x="259.3636363636364" y="354.0"/>
      <point x="388.0" y="341.72727272727275" type="curve"/>
      <point x="372.09090909090907" y="359.27272727272725" type="line"/>
      <point x="370.45454545454544" y="220.63636363636363"/>
      <point x="280.27272727272725" y="87.0909090909091"/>
      <point x="196.0909090909091" y="87.0909090909091" type="curve" smooth="yes"/>
      <point x="154.36363636363637" y="87.0909090909091"/>
      <point x="128.0909090909091" y="111.0909090909091"/>
      <point x="128.0909090909091" y="150.0" type="curve" smooth="yes"/>
      <point x="128.0909090909091" y="584.5454545454545" type="line"/>
      <point x="506.27272727272725" y="584.5454545454545" type="line"/>
      <point x="481.3636363636364" y="622.0" type="line"/>
      <point x="-24.454545454545453" y="622.0" type="line"/>
      <point x="1.5454545454545459" y="584.5454545454545" type="line"/>
      <point x="88.18181818181819" y="584.5454545454545" type="line"/>
      <point x="88.18181818181819" y="149.54545454545453" type="line" smooth="yes"/>
      <point x="88.18181818181819" y="84.18181818181819"/>
      <point x="135.8181818181818" y="39.63636363636364"/>
    </contour>
  </outline>
</glyph>
<glyph name="cha-beng" format="2">
  <advance width="522.0909090909091"/>
  <unicode hex="099B"/>
  <anchor x="297.27272727272725" y="82.36363636363636" name="bottom"/>
  <anchor x="428.6363636363636" y="-98.9090909090909" name="bottom.rakaar"/>
  <anchor x="358.6363636363636" y="73.27272727272728" name="bottom.rvocalic"/>
  <anchor x="285.3636363636364" y="68.72727272727272" name="bottom.virama"/>
  <anchor x="112.27272727272728" y="584.5454545454545" name="top"/>
  <anchor x="115.27272727272728" y="584.5454545454545" name="topright"/>
  <anchor x="260.54545454545456" y="0.0" name="vedic"/>
  <outline>
    <contour>
      <point x="500.90909090909093" y="-59.90909090909091" type="curve"/>
      <point x="523.7272727272727" y="-36.0" type="line"/>
      <point x="450.3636363636364" y="37.45454545454545"/>
      <point x="339.0909090909091" y="134.45454545454544"/>
      <point x="199.54545454545456" y="172.36363636363637" type="curve"/>
      <point x="196.27272727272728" y="154.63636363636363" type="line"/>
      <point x="215.45454545454544" y="150.1818181818182"/>
      <point x="237.45454545454544" y="148.27272727272728"/>
      <point x="260.72727272727275" y="148.27272727272728" type="curve" smooth="yes"/>
      <point x="372.90909090909093" y="148.27272727272728"/>
      <point x="456.45454545454544" y="214.54545454545456"/>
      <point x="456.45454545454544" y="332.3636363636364" type="curve" smooth="yes"/>
      <point x="456.45454545454544" y="434.6363636363636"/>
      <point x="383.72727272727275" y="500.90909090909093"/>
      <point x="284.1818181818182" y="500.90909090909093" type="curve" smooth="yes"/>
      <point x="199.54545454545453" y="500.90909090909093"/>
      <point x="142.9090909090909" y="522.3636363636364"/>
      <point x="106.72727272727273" y="584.5454545454545" type="curve"/>
      <point x="102.36363636363636" y="553.2727272727273" type="line"/>
      <point x="131.0909090909091" y="491.6363636363636"/>
      <point x="194.45454545454547" y="452.54545454545456"/>
      <point x="281.0" y="449.54545454545456" type="curve"/>
      <point x="261.6363636363636" y="475.90909090909093" type="line"/>
      <point x="259.1818181818182" y="379.6363636363636"/>
      <point x="214.54545454545453" y="311.27272727272725"/>
      <point x="158.45454545454547" y="311.27272727272725" type="curve" smooth="yes"/>
      <point x="127.54545454545455" y="311.27272727272725"/>
      <point x="112.27272727272728" y="329.8181818181818"/>
      <point x="112.27272727272728" y="361.09090909090907" type="curve" smooth="yes"/>
      <point x="112.27272727272728" y="584.5454545454545" type="line"/>
      <point x="546.5454545454545" y="584.5454545454545" type="line"/>
      <point x="521.6363636363636" y="622.0" type="line"/>
      <point x="-24.454545454545453" y="622.0" type="line"/>
      <point x="0.45454545454545503" y="584.5454545454545" type="line"/>
      <point x="72.36363636363636" y="584.5454545454545" type="line"/>
      <point x="72.36363636363636" y="360.6363636363636" type="line" smooth="yes"/>
      <point x="72.36363636363636" y="306.1818181818182"/>
      <point x="110.9090909090909" y="264.45454545454544"/>
      <point x="166.45454545454547" y="264.45454545454544" type="curve" smooth="yes"/>
      <point x="243.45454545454547" y="264.45454545454544"/>
      <point x="311.54545454545456" y="333.72727272727275"/>
      <point x="324.8181818181818" y="479.72727272727275" type="curve"/>
      <point x="296.6363636363636" y="460.45454545454544" type="line"/>
      <point x="353.6363636363636" y="458.1818181818182"/>
      <point x="415.3636363636364" y="427.90909090909093"/>
      <point x="415.3636363636364" y="342.1818181818182" type="curve" smooth="yes"/>
      <point x="415.3636363636364" y="258.54545454545456"/>
      <point x="357.90909090909093" y="201.63636363636363"/>
      <point x="241.1818181818182" y="201.63636363636363" type="curve" smooth="yes"/>
      <point x="183.0909090909091" y="201.63636363636363"/>
      <point x="141.9090909090909" y="209.0"/>
      <point x="96.45454545454545" y="225.63636363636363" type="curve"/>
      <point x="115.0909090909091" y="148.0909090909091" type="line"/>
      <point x="273.6363636363636" y="119.36363636363636"/>
      <point x="392.6363636363636" y="43.54545454545455"/>
    </contour>
  </outline>
</glyph>
<glyph name="ja-beng" format="2">
  <advance width="777.8181818181819"/>
  <unicode hex="099C"/>
  <anchor x="663.4545454545455" y="91.54545454545455" name="bottom"/>
  <anchor x="680.1818181818181" y="79.0909090909091" name="bottom.rakaar"/>
  <anchor x="678.0909090909091" y="21.727272727272727" name="bottom.rvocalic"/>
  <anchor x="665.9090909090909" y="9.09090909090909" name="bottom.virama"/>
  <anchor x="424.09090909090907" y="584.5454545454545" name="top"/>
  <anchor x="427.09090909090907" y="584.5454545454545" name="topright"/>
  <anchor x="388.6363636363636" y="0.0" name="vedic"/>
  <outline>
    <contour>
      <point x="342.90909090909093" y="67.45454545454545" type="curve" smooth="yes"/>
      <point x="464.3636363636364" y="67.45454545454545"/>
      <point x="521.6363636363636" y="145.63636363636363"/>
      <point x="521.6363636363636" y="251.1818181818182" type="curve" smooth="yes"/>
      <point x="521.6363636363636" y="313.3636363636364"/>
      <point x="507.54545454545456" y="370.72727272727275"/>
      <point x="453.54545454545456" y="423.45454545454544" type="curve"/>
      <point x="405.27272727272725" y="353.3636363636364"/>
      <point x="361.0" y="321.09090909090907"/>
      <point x="316.3636363636364" y="321.09090909090907" type="curve" smooth="yes"/>
      <point x="275.09090909090907" y="321.09090909090907"/>
      <point x="245.54545454545453" y="347.09090909090907"/>
      <point x="245.54545454545453" y="394.8181818181818" type="curve" smooth="yes"/>
      <point x="245.54545454545453" y="480.54545454545456"/>
      <point x="338.8181818181818" y="546.7272727272727"/>
      <point x="432.09090909090907" y="584.5454545454545" type="curve"/>
      <point x="802.2727272727273" y="584.5454545454545" type="line"/>
      <point x="777.8181818181819" y="622.0" type="line"/>
      <point x="-24.454545454545453" y="622.0" type="line"/>
      <point x="0.45454545454545503" y="584.5454545454545" type="line"/>
      <point x="363.09090909090907" y="584.5454545454545" type="line"/>
      <point x="346.09090909090907" y="597.5454545454545" type="line"/>
      <point x="270.09090909090907" y="558.6363636363636"/>
      <point x="201.9090909090909" y="492.0"/>
      <point x="201.9090909090909" y="406.1818181818182" type="curve" smooth="yes"/>
      <point x="201.9090909090909" y="324.72727272727275"/>
      <point x="257.09090909090907" y="268.27272727272725"/>
      <point x="325.27272727272725" y="268.27272727272725" type="curve" smooth="yes"/>
      <point x="393.1818181818182" y="268.27272727272725"/>
      <point x="443.72727272727275" y="318.8181818181818"/>
      <point x="480.6363636363636" y="366.8181818181818" type="curve"/>
      <point x="451.8181818181818" y="370.09090909090907" type="line"/>
      <point x="473.09090909090907" y="341.8181818181818"/>
      <point x="485.45454545454544" y="313.0"/>
      <point x="485.45454545454544" y="264.1818181818182" type="curve" smooth="yes"/>
      <point x="485.45454545454544" y="183.8181818181818"/>
      <point x="438.09090909090907" y="126.18181818181819"/>
      <point x="342.8181818181818" y="126.18181818181819" type="curve" smooth="yes"/>
      <point x="198.63636363636363" y="126.18181818181819"/>
      <point x="117.63636363636364" y="258.72727272727275"/>
      <point x="60.0" y="495.6363636363636" type="curve"/>
      <point x="29.545454545454547" y="486.8181818181818" type="line"/>
      <point x="91.27272727272727" y="196.8181818181818"/>
      <point x="193.0909090909091" y="67.45454545454545"/>
    </contour>
    <contour>
      <point x="649.0909090909091" y="2.3636363636363633" type="curve"/>
      <point x="678.0909090909091" y="15.363636363636363" type="line"/>
      <point x="657.7272727272727" y="78.45454545454545"/>
      <point x="645.6363636363636" y="139.45454545454544"/>
      <point x="645.6363636363636" y="207.54545454545453" type="curve" smooth="yes"/>
      <point x="645.6363636363636" y="292.9090909090909"/>
      <point x="669.3636363636364" y="358.27272727272725"/>
      <point x="715.6363636363636" y="422.8181818181818" type="curve"/>
      <point x="684.3636363636364" y="471.72727272727275" type="line"/>
      <point x="572.0" y="475.72727272727275"/>
      <point x="504.0" y="507.45454545454544"/>
      <point x="443.90909090909093" y="608.4545454545455" type="curve"/>
      <point x="416.1818181818182" y="582.9090909090909" type="line"/>
      <point x="477.8181818181818" y="473.1818181818182"/>
      <point x="565.0" y="427.45454545454544"/>
      <point x="662.3636363636364" y="417.45454545454544" type="curve"/>
      <point x="653.5454545454545" y="436.54545454545456" type="line"/>
      <point x="623.1818181818181" y="386.45454545454544"/>
      <point x="604.1818181818181" y="312.0"/>
      <point x="604.1818181818181" y="230.36363636363637" type="curve" smooth="yes"/>
      <point x="604.1818181818181" y="148.45454545454544"/>
      <point x="620.5454545454545" y="77.9090909090909"/>
    </contour>
  </outline>
</glyph>
<glyph name="jha-beng" format="2">
  <advance width="663.0"/>
  <unicode hex="099D"/>
  <anchor x="421.0" y="21.363636363636363" name="bottom"/>
  <anchor x="428.27272727272725" y="60.90909090909091" name="bottom.rakaar"/>
  <anchor x="428.27272727272725" y="9.272727272727273" name="bottom.rvocalic"/>
  <anchor x="412.8181818181818" y="3.272727272727273" name="bottom.virama"/>
  <anchor x="417.3636363636364" y="584.5454545454545" name="top"/>
  <anchor x="481.0" y="584.5454545454545" name="topleft"/>
  <anchor x="420.3636363636364" y="584.5454545454545" name="topright"/>
  <anchor x="331.27272727272725" y="0.0" name="vedic"/>
  <outline>
    <contour>
      <point x="424.1818181818182" y="-8.454545454545455" type="line"/>
      <point x="428.27272727272725" y="-7.454545454545455" type="line"/>
      <point x="428.27272727272725" y="622.0" type="line"/>
      <point x="-24.454545454545453" y="622.0" type="line"/>
      <point x="0.45454545454545503" y="584.5454545454545" type="line"/>
      <point x="388.3636363636364" y="584.5454545454545" type="line"/>
      <point x="388.3636363636364" y="501.27272727272725" type="line"/>
      <point x="396.1818181818182" y="519.0" type="line"/>
      <point x="268.54545454545456" y="478.3636363636364"/>
      <point x="159.1818181818182" y="419.72727272727275"/>
      <point x="38.18181818181818" y="336.1818181818182" type="curve"/>
      <point x="66.9090909090909" y="261.8181818181818" type="line"/>
      <point x="211.1818181818182" y="229.72727272727272"/>
      <point x="317.45454545454544" y="146.72727272727272"/>
      <point x="391.72727272727275" y="18.09090909090909" type="curve"/>
    </contour>
    <contour>
      <point x="388.3636363636364" y="53.72727272727273" type="line"/>
      <point x="395.8181818181818" y="67.0" type="line"/>
      <point x="321.90909090909093" y="202.36363636363637"/>
      <point x="207.1818181818182" y="279.1818181818182"/>
      <point x="87.54545454545455" y="315.3636363636364" type="curve"/>
      <point x="94.0909090909091" y="298.09090909090907" type="line"/>
      <point x="196.54545454545453" y="374.45454545454544"/>
      <point x="307.8181818181818" y="428.45454545454544"/>
      <point x="398.54545454545456" y="457.09090909090907" type="curve"/>
      <point x="388.3636363636364" y="469.3636363636364" type="line"/>
    </contour>
    <contour>
      <point x="571.8181818181819" y="91.27272727272727" type="line"/>
      <point x="574.8181818181819" y="92.27272727272727" type="line"/>
      <point x="574.8181818181819" y="584.5454545454545" type="line"/>
      <point x="687.4545454545455" y="584.5454545454545" type="line"/>
      <point x="662.0" y="622.0" type="line"/>
      <point x="574.8181818181819" y="622.0" type="line"/>
      <point x="571.2727272727273" y="663.1818181818181" type="line"/>
      <point x="538.9090909090909" y="687.0909090909091" type="line"/>
      <point x="534.9090909090909" y="686.0909090909091" type="line"/>
      <point x="534.9090909090909" y="153.45454545454547" type="line"/>
      <point x="542.3636363636364" y="166.72727272727272" type="line"/>
      <point x="506.1818181818182" y="233.45454545454547"/>
      <point x="462.0" y="288.3636363636364"/>
      <point x="412.09090909090907" y="327.54545454545456" type="curve"/>
      <point x="405.09090909090907" y="276.1818181818182" type="line"/>
      <point x="458.27272727272725" y="240.36363636363637"/>
      <point x="501.72727272727275" y="182.45454545454547"/>
      <point x="538.2727272727273" y="117.81818181818181" type="curve"/>
    </contour>
  </outline>
</glyph>
<glyph name="nya-beng" format="2">
  <advance width="912.4545454545455"/>
  <unicode hex="099E"/>
  <anchor x="552.0909090909091" y="19.545454545454547" name="bottom"/>
  <anchor x="658.0909090909091" y="59.09090909090909" name="bottom.rakaar"/>
  <anchor x="559.3636363636364" y="5.272727272727273" name="bottom.rvocalic"/>
  <anchor x="543.9090909090909" y="1.454545454545455" name="bottom.virama"/>
  <anchor x="486.90909090909093" y="584.5454545454545" name="top"/>
  <anchor x="489.90909090909093" y="584.5454545454545" name="topright"/>
  <anchor x="456.0" y="0.0" name="vedic"/>
  <outline>
    <contour>
      <point x="721.9090909090909" y="72.72727272727272" type="curve" smooth="yes"/>
      <point x="798.4545454545455" y="72.72727272727272"/>
      <point x="842.0" y="132.0"/>
      <point x="842.0" y="212.63636363636363" type="curve" smooth="yes"/>
      <point x="842.0" y="270.45454545454544"/>
      <point x="815.9090909090909" y="316.8181818181818"/>
      <point x="780.1818181818181" y="347.09090909090907" type="curve"/>
      <point x="786.0" y="319.72727272727275" type="line"/>
      <point x="815.0909090909091" y="349.3636363636364"/>
      <point x="838.0909090909091" y="400.1818181818182"/>
      <point x="838.0909090909091" y="462.45454545454544" type="curve" smooth="yes"/>
      <point x="838.0909090909091" y="535.4545454545455"/>
      <point x="799.2727272727273" y="596.5454545454545"/>
      <point x="729.8181818181819" y="596.5454545454545" type="curve" smooth="yes"/>
      <point x="628.0909090909091" y="596.5454545454545"/>
      <point x="551.7272727272727" y="452.3636363636364"/>
      <point x="543.7272727272727" y="379.54545454545456" type="curve"/>
      <point x="543.7272727272727" y="290.72727272727275" type="line"/>
      <point x="559.2727272727273" y="178.0909090909091"/>
      <point x="633.9090909090909" y="72.72727272727272"/>
    </contour>
    <contour>
      <point x="720.8181818181819" y="128.72727272727272" type="curve" smooth="yes"/>
      <point x="635.7272727272727" y="128.72727272727272"/>
      <point x="566.0" y="235.72727272727272"/>
      <point x="566.0" y="329.3636363636364" type="curve" smooth="yes"/>
      <point x="566.0" y="408.27272727272725"/>
      <point x="629.7272727272727" y="542.7272727272727"/>
      <point x="728.5454545454545" y="542.7272727272727" type="curve" smooth="yes"/>
      <point x="774.7272727272727" y="542.7272727272727"/>
      <point x="802.4545454545455" y="514.6363636363636"/>
      <point x="802.4545454545455" y="471.45454545454544" type="curve" smooth="yes"/>
      <point x="802.4545454545455" y="416.90909090909093"/>
      <point x="775.7272727272727" y="377.09090909090907"/>
      <point x="735.5454545454545" y="356.45454545454544" type="curve"/>
      <point x="771.5454545454545" y="350.90909090909093" type="line"/>
      <point x="750.6363636363636" y="377.45454545454544"/>
      <point x="726.0" y="384.54545454545456"/>
      <point x="703.7272727272727" y="384.54545454545456" type="curve" smooth="yes"/>
      <point x="671.0" y="384.54545454545456"/>
      <point x="647.0909090909091" y="364.54545454545456"/>
      <point x="647.0909090909091" y="330.90909090909093" type="curve" smooth="yes"/>
      <point x="647.0909090909091" y="294.6363636363636"/>
      <point x="671.6363636363636" y="276.09090909090907"/>
      <point x="706.3636363636364" y="276.09090909090907" type="curve" smooth="yes"/>
      <point x="738.0909090909091" y="276.09090909090907"/>
      <point x="760.9090909090909" y="289.90909090909093"/>
      <point x="781.0" y="314.27272727272725" type="curve"/>
      <point x="754.3636363636364" y="324.54545454545456" type="line"/>
      <point x="780.5454545454545" y="305.72727272727275"/>
      <point x="807.4545454545455" y="274.1818181818182"/>
      <point x="807.4545454545455" y="222.27272727272728" type="curve" smooth="yes"/>
      <point x="807.4545454545455" y="162.27272727272728"/>
      <point x="775.6363636363636" y="128.72727272727272"/>
    </contour>
    <component base="e-beng"/>
  </outline>
</glyph>
<glyph name="tta-beng" format="2">
  <advance width="492.1818181818182"/>
  <unicode hex="099F"/>
  <anchor x="306.3636363636364" y="44.54545454545455" name="bottom"/>
  <anchor x="361.3636363636364" y="9.09090909090909" name="bottom.rakaar"/>
  <anchor x="297.1818181818182" y="53.63636363636364" name="bottom.rvocalic"/>
  <anchor x="237.8181818181818" y="44.63636363636363" name="bottom.virama"/>
  <anchor x="274.1818181818182" y="657.6363636363636" name="top"/>
  <anchor x="207.36363636363637" y="647.8181818181819" name="topright"/>
  <anchor x="245.8181818181818" y="0.0" name="vedic"/>
  <anchor x="211.0909090909091" y="-53.81818181818182" name="nukta"/>
  <outline>
    <contour>
      <point x="378.1818181818182" y="614.7272727272727" type="curve"/>
      <point x="410.8181818181818" y="614.7272727272727" type="line"/>
      <point x="406.1818181818182" y="732.0"/>
      <point x="369.27272727272725" y="788.6363636363636"/>
      <point x="288.72727272727275" y="788.6363636363636" type="curve" smooth="yes"/>
      <point x="243.1818181818182" y="788.6363636363636"/>
      <point x="200.54545454545453" y="777.8181818181819"/>
      <point x="151.0" y="777.8181818181819" type="curve" smooth="yes"/>
      <point x="84.27272727272728" y="777.8181818181819"/>
      <point x="55.36363636363637" y="801.0"/>
      <point x="55.36363636363637" y="872.4545454545455" type="curve" smooth="yes"/>
      <point x="55.36363636363637" y="884.0"/>
      <point x="56.36363636363637" y="895.9090909090909"/>
      <point x="57.81818181818182" y="906.1818181818181" type="curve"/>
      <point x="27.272727272727273" y="909.2727272727273" type="line"/>
      <point x="25.272727272727273" y="896.5454545454545"/>
      <point x="23.272727272727273" y="876.4545454545455"/>
      <point x="23.272727272727273" y="860.3636363636364" type="curve" smooth="yes"/>
      <point x="23.272727272727273" y="771.3636363636364"/>
      <point x="62.45454545454545" y="720.4545454545455"/>
      <point x="149.36363636363637" y="720.4545454545455" type="curve" smooth="yes"/>
      <point x="204.8181818181818" y="720.4545454545455"/>
      <point x="245.9090909090909" y="731.8181818181819"/>
      <point x="296.3636363636364" y="731.8181818181819" type="curve" smooth="yes"/>
      <point x="351.09090909090907" y="731.8181818181819"/>
      <point x="376.09090909090907" y="691.3636363636364"/>
    </contour>
    <component base="ddha-beng"/>
  </outline>
</glyph>
<glyph name="ttha-beng" format="2">
  <advance width="540.6363636363636"/>
  <unicode hex="09A0"/>
  <anchor x="315.45454545454544" y="2.2727272727272725" name="bottom"/>
  <anchor x="443.54545454545456" y="-29.272727272727273" name="bottom.rakaar"/>
  <anchor x="351.8181818181818" y="10.0" name="bottom.rvocalic"/>
  <anchor x="318.27272727272725" y="0.0" name="bottom.virama"/>
  <anchor x="417.3636363636364" y="557.0" name="top"/>
  <anchor x="417.3636363636364" y="617.0" name="topleft"/>
  <anchor x="304.09090909090907" y="584.5454545454545" name="topright"/>
  <anchor x="269.8181818181818" y="0.0" name="vedic"/>
  <outline>
    <contour>
      <point x="279.3636363636364" y="12.272727272727273" type="curve" smooth="yes"/>
      <point x="397.72727272727275" y="12.272727272727273"/>
      <point x="469.0" y="95.72727272727273"/>
      <point x="469.0" y="222.63636363636363" type="curve" smooth="yes"/>
      <point x="469.0" y="351.27272727272725"/>
      <point x="400.8181818181818" y="457.6363636363636"/>
      <point x="287.3636363636364" y="584.5454545454545" type="curve"/>
      <point x="565.0909090909091" y="584.5454545454545" type="line"/>
      <point x="541.1818181818181" y="622.0" type="line"/>
      <point x="245.0" y="622.0" type="line"/>
      <point x="208.54545454545453" y="664.0909090909091"/>
      <point x="177.8181818181818" y="711.0909090909091"/>
      <point x="177.8181818181818" y="762.0909090909091" type="curve" smooth="yes"/>
      <point x="177.8181818181818" y="800.9090909090909"/>
      <point x="195.72727272727272" y="829.2727272727273"/>
      <point x="242.8181818181818" y="858.4545454545455" type="curve"/>
      <point x="203.1818181818182" y="901.4545454545455" type="line"/>
      <point x="150.27272727272728" y="867.6363636363636"/>
      <point x="130.63636363636363" y="830.3636363636364"/>
      <point x="130.63636363636363" y="781.9090909090909" type="curve" smooth="yes"/>
      <point x="130.63636363636363" y="722.8181818181819"/>
      <point x="163.45454545454547" y="672.8181818181819"/>
      <point x="203.54545454545453" y="622.0" type="curve"/>
      <point x="-24.454545454545453" y="622.0" type="line"/>
      <point x="0.45454545454545503" y="584.5454545454545" type="line"/>
      <point x="221.63636363636363" y="584.5454545454545" type="line"/>
      <point x="240.0" y="552.2727272727273"/>
      <point x="247.63636363636363" y="503.72727272727275"/>
      <point x="247.63636363636363" y="464.6363636363636" type="curve" smooth="yes"/>
      <point x="247.63636363636363" y="361.54545454545456"/>
      <point x="199.1818181818182" y="279.90909090909093"/>
      <point x="47.90909090909091" y="246.0909090909091" type="curve"/>
      <point x="77.45454545454545" y="91.18181818181819"/>
      <point x="160.27272727272728" y="12.272727272727273"/>
    </contour>
    <contour>
      <point x="270.8181818181818" y="57.0" type="curve" smooth="yes"/>
      <point x="176.9090909090909" y="57.0"/>
      <point x="119.18181818181819" y="132.1818181818182"/>
      <point x="110.54545454545455" y="220.63636363636363" type="curve"/>
      <point x="97.36363636363636" y="194.63636363636363" type="line"/>
      <point x="223.8181818181818" y="225.8181818181818"/>
      <point x="288.8181818181818" y="302.0"/>
      <point x="288.8181818181818" y="424.3636363636364" type="curve" smooth="yes"/>
      <point x="288.8181818181818" y="489.3636363636364"/>
      <point x="272.54545454545456" y="542.0909090909091"/>
      <point x="249.45454545454547" y="595.4545454545455" type="curve"/>
      <point x="243.0909090909091" y="593.6363636363636" type="line"/>
      <point x="344.45454545454544" y="467.0"/>
      <point x="414.54545454545456" y="363.90909090909093"/>
      <point x="414.54545454545456" y="232.63636363636363" type="curve" smooth="yes"/>
      <point x="414.54545454545456" y="113.63636363636364"/>
      <point x="351.90909090909093" y="57.0"/>
    </contour>
  </outline>
</glyph>
<glyph name="dda-beng" format="2">
  <advance width="625.2727272727273"/>
  <unicode hex="09A1"/>
  <anchor x="408.6363636363636" y="48.09090909090909" name="bottom"/>
  <anchor x="503.90909090909093" y="-15.09090909090909" name="bottom.rakaar"/>
  <anchor x="421.27272727272725" y="64.27272727272728" name="bottom.rvocalic"/>
  <anchor x="380.54545454545456" y="21.272727272727273" name="bottom.virama"/>
  <anchor x="334.0" y="-39.27272727272727" name="nukta"/>
  <anchor x="290.0" y="584.5454545454545" name="top"/>
  <anchor x="293.0" y="584.5454545454545" name="topright"/>
  <anchor x="312.6363636363636" y="0.0" name="vedic"/>
  <outline>
    <contour>
      <point x="367.0" y="65.45454545454545" type="curve" smooth="yes"/>
      <point x="499.6363636363636" y="65.45454545454545"/>
      <point x="569.9090909090909" y="153.72727272727272"/>
      <point x="569.9090909090909" y="272.90909090909093" type="curve" smooth="yes"/>
      <point x="569.9090909090909" y="361.72727272727275"/>
      <point x="539.0909090909091" y="420.09090909090907"/>
      <point x="494.72727272727275" y="461.54545454545456" type="curve"/>
      <point x="450.72727272727275" y="399.54545454545456"/>
      <point x="388.27272727272725" y="339.45454545454544"/>
      <point x="331.54545454545456" y="339.45454545454544" type="curve" smooth="yes"/>
      <point x="303.72727272727275" y="339.45454545454544"/>
      <point x="290.0" y="353.09090909090907"/>
      <point x="290.0" y="376.09090909090907" type="curve" smooth="yes"/>
      <point x="290.0" y="584.5454545454545" type="line"/>
      <point x="649.7272727272727" y="584.5454545454545" type="line"/>
      <point x="624.8181818181819" y="622.0" type="line"/>
      <point x="-24.454545454545453" y="622.0" type="line"/>
      <point x="0.45454545454545503" y="584.5454545454545" type="line"/>
      <point x="250.0909090909091" y="584.5454545454545" type="line"/>
      <point x="250.0909090909091" y="375.90909090909093" type="line" smooth="yes"/>
      <point x="250.0909090909091" y="343.72727272727275"/>
      <point x="261.45454545454544" y="322.27272727272725"/>
      <point x="280.27272727272725" y="307.27272727272725" type="curve" smooth="yes"/>
      <point x="296.90909090909093" y="293.90909090909093"/>
      <point x="318.45454545454544" y="285.45454545454544"/>
      <point x="343.54545454545456" y="285.45454545454544" type="curve" smooth="yes"/>
      <point x="403.54545454545456" y="285.45454545454544"/>
      <point x="467.3636363636364" y="331.09090909090907"/>
      <point x="519.0909090909091" y="399.45454545454544" type="curve"/>
      <point x="491.6363636363636" y="399.3636363636364" type="line"/>
      <point x="515.0" y="379.09090909090907"/>
      <point x="531.6363636363636" y="348.54545454545456"/>
      <point x="531.6363636363636" y="288.09090909090907" type="curve" smooth="yes"/>
      <point x="531.6363636363636" y="186.1818181818182"/>
      <point x="468.6363636363636" y="126.9090909090909"/>
      <point x="368.45454545454544" y="126.9090909090909" type="curve" smooth="yes"/>
      <point x="208.0" y="126.9090909090909"/>
      <point x="131.9090909090909" y="265.1818181818182"/>
      <point x="67.18181818181819" y="494.6363636363636" type="curve"/>
      <point x="35.18181818181818" y="486.3636363636364" type="line"/>
      <point x="103.0" y="206.54545454545453"/>
      <point x="204.0909090909091" y="65.45454545454545"/>
    </contour>
  </outline>
</glyph>
<glyph name="ddha-beng" format="2">
  <advance width="492.1818181818182"/>
  <unicode hex="09A2"/>
  <anchor x="305.0" y="44.09090909090909" name="bottom"/>
  <anchor x="361.3636363636364" y="9.09090909090909" name="bottom.rakaar"/>
  <anchor x="296.09090909090907" y="52.54545454545455" name="bottom.rvocalic"/>
  <anchor x="237.8181818181818" y="44.63636363636363" name="bottom.virama"/>
  <anchor x="211.0909090909091" y="-53.81818181818182" name="nukta"/>
  <anchor x="128.0909090909091" y="584.5454545454545" name="top"/>
  <anchor x="131.0909090909091" y="584.5454545454545" name="topright"/>
  <anchor x="245.8181818181818" y="0.0" name="vedic"/>
  <outline>
    <contour>
      <point x="199.63636363636363" y="48.72727272727273" type="curve" smooth="yes"/>
      <point x="322.3636363636364" y="48.72727272727273"/>
      <point x="437.27272727272725" y="214.45454545454547"/>
      <point x="437.27272727272725" y="343.3636363636364" type="curve" smooth="yes"/>
      <point x="437.27272727272725" y="412.09090909090907"/>
      <point x="401.0" y="444.27272727272725"/>
      <point x="353.09090909090907" y="444.27272727272725" type="curve" smooth="yes"/>
      <point x="305.90909090909093" y="444.27272727272725"/>
      <point x="280.8181818181818" y="411.0"/>
      <point x="280.8181818181818" y="375.1818181818182" type="curve" smooth="yes"/>
      <point x="280.8181818181818" y="334.72727272727275"/>
      <point x="305.8181818181818" y="307.6363636363636"/>
      <point x="347.8181818181818" y="307.6363636363636" type="curve" smooth="yes"/>
      <point x="374.90909090909093" y="307.6363636363636"/>
      <point x="386.72727272727275" y="318.8181818181818"/>
      <point x="397.8181818181818" y="336.54545454545456" type="curve"/>
      <point x="380.6363636363636" y="353.72727272727275" type="line"/>
      <point x="377.0" y="229.9090909090909"/>
      <point x="282.6363636363636" y="95.63636363636364"/>
      <point x="194.72727272727272" y="95.63636363636364" type="curve" smooth="yes"/>
      <point x="153.0" y="95.63636363636364"/>
      <point x="128.0909090909091" y="121.27272727272727"/>
      <point x="128.0909090909091" y="160.1818181818182" type="curve" smooth="yes"/>
      <point x="128.0909090909091" y="584.5454545454545" type="line"/>
      <point x="516.6363636363636" y="584.5454545454545" type="line"/>
      <point x="491.72727272727275" y="622.0" type="line"/>
      <point x="-24.454545454545453" y="622.0" type="line"/>
      <point x="1.5454545454545459" y="584.5454545454545" type="line"/>
      <point x="88.18181818181819" y="584.5454545454545" type="line"/>
      <point x="88.18181818181819" y="158.63636363636363" type="line" smooth="yes"/>
      <point x="88.18181818181819" y="93.27272727272727"/>
      <point x="134.45454545454547" y="48.72727272727273"/>
    </contour>
  </outline>
</glyph>
<glyph name="nna-beng" format="2">
  <advance width="552.5454545454545"/>
  <unicode hex="09A3"/>
  <anchor x="450.6363636363636" y="60.36363636363636" name="bottom"/>
  <anchor x="464.3636363636364" y="-9.363636363636363" name="bottom.rakaar"/>
  <anchor x="464.3636363636364" y="-1.0909090909090908" name="bottom.rvocalic"/>
  <anchor x="451.1818181818182" y="5.545454545454546" name="bottom.virama"/>
  <anchor x="464.3636363636364" y="553.1818181818181" name="top"/>
  <anchor x="450.27272727272725" y="557.4545454545455" name="topright"/>
  <anchor x="276.0" y="0.0" name="vedic"/>
  <outline>
    <contour>
      <point x="461.3636363636364" y="-18.18181818181818" type="line"/>
      <point x="464.3636363636364" y="-17.18181818181818" type="line"/>
      <point x="464.3636363636364" y="584.5454545454545" type="line"/>
      <point x="577.0" y="584.5454545454545" type="line"/>
      <point x="551.5454545454545" y="622.0" type="line"/>
      <point x="464.3636363636364" y="622.0" type="line"/>
      <point x="460.8181818181818" y="663.1818181818181" type="line"/>
      <point x="428.45454545454544" y="687.0909090909091" type="line"/>
      <point x="424.45454545454544" y="686.0909090909091" type="line"/>
      <point x="424.45454545454544" y="562.7272727272727" type="line" smooth="yes"/>
      <point x="424.45454545454544" y="512.0"/>
      <point x="426.54545454545456" y="450.54545454545456"/>
      <point x="429.0" y="407.54545454545456" type="curve"/>
      <point x="433.8181818181818" y="412.1818181818182" type="line"/>
      <point x="338.54545454545456" y="583.0"/>
      <point x="277.54545454545456" y="627.0"/>
      <point x="197.0" y="627.0" type="curve" smooth="yes"/>
      <point x="113.18181818181819" y="627.0"/>
      <point x="49.09090909090909" y="564.0909090909091"/>
      <point x="49.09090909090909" y="465.3636363636364" type="curve" smooth="yes"/>
      <point x="49.09090909090909" y="365.6363636363636"/>
      <point x="111.54545454545455" y="301.9090909090909"/>
      <point x="196.0" y="301.9090909090909" type="curve" smooth="yes"/>
      <point x="246.27272727272728" y="301.9090909090909"/>
      <point x="275.27272727272725" y="330.0"/>
      <point x="275.27272727272725" y="372.6363636363636" type="curve" smooth="yes"/>
      <point x="275.27272727272725" y="410.90909090909093"/>
      <point x="250.27272727272728" y="438.0"/>
      <point x="209.9090909090909" y="438.0" type="curve" smooth="yes"/>
      <point x="175.27272727272728" y="438.0"/>
      <point x="149.27272727272728" y="412.54545454545456"/>
      <point x="149.27272727272728" y="377.3636363636364" type="curve" smooth="yes"/>
      <point x="149.27272727272728" y="361.1818181818182"/>
      <point x="155.54545454545453" y="345.09090909090907"/>
      <point x="163.8181818181818" y="336.90909090909093" type="curve"/>
      <point x="193.0909090909091" y="356.72727272727275" type="line"/>
      <point x="184.45454545454547" y="354.72727272727275"/>
      <point x="175.27272727272728" y="354.1818181818182"/>
      <point x="167.0909090909091" y="354.1818181818182" type="curve" smooth="yes"/>
      <point x="123.54545454545455" y="354.1818181818182"/>
      <point x="89.0" y="393.90909090909093"/>
      <point x="89.0" y="453.8181818181818" type="curve" smooth="yes"/>
      <point x="89.0" y="528.0"/>
      <point x="144.63636363636363" y="565.9090909090909"/>
      <point x="205.0" y="565.9090909090909" type="curve" smooth="yes"/>
      <point x="289.45454545454544" y="565.9090909090909"/>
      <point x="344.6363636363636" y="515.1818181818181"/>
      <point x="432.54545454545456" y="357.6363636363636" type="curve"/>
      <point x="424.45454545454544" y="397.6363636363636" type="line"/>
      <point x="424.45454545454544" y="3.0" type="line"/>
    </contour>
  </outline>
</glyph>
<glyph name="ta-beng" format="2">
  <advance width="630.3636363636364"/>
  <unicode hex="09A4"/>
  <anchor x="427.27272727272725" y="56.45454545454545" name="bottom"/>
  <anchor x="515.7272727272727" y="-7.636363636363637" name="bottom.rakaar"/>
  <anchor x="437.45454545454544" y="72.27272727272728" name="bottom.rvocalic"/>
  <anchor x="392.3636363636364" y="28.727272727272727" name="bottom.virama"/>
  <anchor x="378.8181818181818" y="584.5454545454545" name="top"/>
  <anchor x="381.8181818181818" y="584.5454545454545" name="topright"/>
  <anchor x="315.1818181818182" y="0.0" name="vedic"/>
  <outline>
    <contour>
      <point x="382.0" y="72.9090909090909" type="curve" smooth="yes"/>
      <point x="491.45454545454544" y="72.9090909090909"/>
      <point x="569.7272727272727" y="134.54545454545453"/>
      <point x="571.5454545454545" y="268.72727272727275" type="curve" smooth="yes"/>
      <point x="573.3636363636364" y="394.27272727272725"/>
      <point x="493.8181818181818" y="496.1818181818182"/>
      <point x="360.27272727272725" y="496.1818181818182" type="curve" smooth="yes"/>
      <point x="286.1818181818182" y="496.1818181818182"/>
      <point x="249.63636363636363" y="457.8181818181818"/>
      <point x="249.63636363636363" y="404.0" type="curve" smooth="yes"/>
      <point x="249.63636363636363" y="356.90909090909093"/>
      <point x="278.6363636363636" y="319.72727272727275"/>
      <point x="331.1818181818182" y="319.72727272727275" type="curve" smooth="yes"/>
      <point x="379.1818181818182" y="319.72727272727275"/>
      <point x="405.90909090909093" y="352.45454545454544"/>
      <point x="405.90909090909093" y="398.0" type="curve" smooth="yes"/>
      <point x="405.90909090909093" y="427.6363636363636"/>
      <point x="393.27272727272725" y="453.45454545454544"/>
      <point x="376.0" y="465.72727272727275" type="curve"/>
      <point x="347.1818181818182" y="428.6363636363636" type="line"/>
      <point x="358.27272727272725" y="434.0"/>
      <point x="376.54545454545456" y="439.1818181818182"/>
      <point x="398.0" y="439.1818181818182" type="curve" smooth="yes"/>
      <point x="461.27272727272725" y="439.1818181818182"/>
      <point x="532.6363636363636" y="389.54545454545456"/>
      <point x="532.6363636363636" y="284.27272727272725" type="curve" smooth="yes"/>
      <point x="532.6363636363636" y="183.72727272727272"/>
      <point x="474.1818181818182" y="134.9090909090909"/>
      <point x="381.27272727272725" y="134.9090909090909" type="curve" smooth="yes"/>
      <point x="251.45454545454544" y="134.9090909090909"/>
      <point x="139.8181818181818" y="233.0"/>
      <point x="55.72727272727273" y="503.6363636363636" type="curve"/>
      <point x="24.727272727272727" y="494.27272727272725" type="line"/>
      <point x="111.0" y="186.45454545454547"/>
      <point x="231.63636363636363" y="72.9090909090909"/>
    </contour>
    <contour>
      <point x="-0.09090909090909083" y="584.5454545454545" type="line"/>
      <point x="654.8181818181819" y="584.5454545454545" type="line"/>
      <point x="629.9090909090909" y="622.0" type="line"/>
      <point x="-24.454545454545453" y="622.0" type="line"/>
    </contour>
  </outline>
</glyph>
<glyph name="tha-beng" format="2">
  <advance width="547.6363636363636"/>
  <unicode hex="09A5"/>
  <anchor x="452.1818181818182" y="21.363636363636363" name="bottom"/>
  <anchor x="459.45454545454544" y="60.90909090909091" name="bottom.rakaar"/>
  <anchor x="459.45454545454544" y="9.272727272727273" name="bottom.rvocalic"/>
  <anchor x="444.0" y="3.272727272727273" name="bottom.virama"/>
  <anchor x="459.45454545454544" y="553.1818181818181" name="top"/>
  <anchor x="445.3636363636364" y="557.4545454545455" name="topright"/>
  <anchor x="273.8181818181818" y="0.0" name="vedic"/>
  <outline>
    <contour>
      <point x="455.3636363636364" y="-8.454545454545455" type="line"/>
      <point x="459.45454545454544" y="-7.454545454545455" type="line"/>
      <point x="459.45454545454544" y="584.5454545454545" type="line"/>
      <point x="572.0909090909091" y="584.5454545454545" type="line"/>
      <point x="546.6363636363636" y="622.0" type="line"/>
      <point x="459.45454545454544" y="622.0" type="line"/>
      <point x="455.90909090909093" y="663.1818181818181" type="line"/>
      <point x="423.54545454545456" y="687.0909090909091" type="line"/>
      <point x="419.54545454545456" y="686.0909090909091" type="line"/>
      <point x="419.54545454545456" y="53.72727272727273" type="line"/>
      <point x="427.0" y="67.0" type="line"/>
      <point x="364.8181818181818" y="184.45454545454547"/>
      <point x="260.6363636363636" y="267.27272727272725"/>
      <point x="127.36363636363636" y="312.6363636363636" type="curve"/>
      <point x="135.27272727272728" y="290.27272727272725" type="line"/>
      <point x="260.27272727272725" y="309.72727272727275"/>
      <point x="324.45454545454544" y="365.54545454545456"/>
      <point x="324.45454545454544" y="462.6363636363636" type="curve" smooth="yes"/>
      <point x="324.45454545454544" y="566.3636363636364"/>
      <point x="250.27272727272728" y="624.0909090909091"/>
      <point x="162.72727272727272" y="624.0909090909091" type="curve" smooth="yes"/>
      <point x="78.72727272727273" y="624.0909090909091"/>
      <point x="29.545454545454547" y="577.0"/>
      <point x="29.545454545454547" y="523.2727272727273" type="curve" smooth="yes"/>
      <point x="29.545454545454547" y="476.0"/>
      <point x="58.90909090909091" y="450.09090909090907"/>
      <point x="95.63636363636364" y="450.09090909090907" type="curve" smooth="yes"/>
      <point x="132.0909090909091" y="450.09090909090907"/>
      <point x="153.9090909090909" y="472.09090909090907"/>
      <point x="153.9090909090909" y="505.6363636363636" type="curve" smooth="yes"/>
      <point x="153.9090909090909" y="531.3636363636364"/>
      <point x="140.0909090909091" y="553.8181818181819"/>
      <point x="109.63636363636364" y="559.6363636363636" type="curve"/>
      <point x="109.27272727272728" y="538.4545454545455" type="line"/>
      <point x="119.18181818181819" y="557.5454545454545"/>
      <point x="144.0" y="577.0909090909091"/>
      <point x="185.0909090909091" y="577.0909090909091" type="curve" smooth="yes"/>
      <point x="248.0909090909091" y="577.0909090909091"/>
      <point x="284.0" y="534.0909090909091"/>
      <point x="284.0" y="475.90909090909093" type="curve" smooth="yes"/>
      <point x="284.0" y="379.09090909090907"/>
      <point x="170.8181818181818" y="341.8181818181818"/>
      <point x="63.27272727272727" y="340.54545454545456" type="curve"/>
      <point x="91.45454545454545" y="264.0" type="line"/>
      <point x="241.1818181818182" y="232.45454545454544"/>
      <point x="348.6363636363636" y="149.9090909090909"/>
      <point x="422.90909090909093" y="18.09090909090909" type="curve"/>
    </contour>
  </outline>
</glyph>
<glyph name="da-beng" format="2">
  <advance width="506.45454545454544"/>
  <unicode hex="09A6"/>
  <anchor x="414.0" y="84.72727272727273" name="bottom"/>
  <anchor x="429.27272727272725" y="70.0" name="bottom.rakaar"/>
  <anchor x="422.1818181818182" y="13.545454545454545" name="bottom.rvocalic"/>
  <anchor x="415.0" y="0.0" name="bottom.virama"/>
  <anchor x="119.72727272727273" y="584.5454545454545" name="top"/>
  <anchor x="122.72727272727273" y="584.5454545454545" name="topright"/>
  <anchor x="252.72727272727272" y="0.0" name="vedic"/>
  <outline>
    <contour>
      <point x="397.72727272727275" y="-6.7272727272727275" type="curve"/>
      <point x="427.6363636363636" y="6.2727272727272725" type="line"/>
      <point x="406.54545454545456" y="68.54545454545455"/>
      <point x="390.3636363636364" y="127.81818181818181"/>
      <point x="390.3636363636364" y="206.0" type="curve" smooth="yes"/>
      <point x="390.3636363636364" y="292.54545454545456"/>
      <point x="412.90909090909093" y="371.27272727272725"/>
      <point x="448.90909090909093" y="429.3636363636364" type="curve"/>
      <point x="389.09090909090907" y="486.1818181818182" type="line"/>
      <point x="289.45454545454544" y="434.72727272727275"/>
      <point x="167.0909090909091" y="333.1818181818182"/>
      <point x="102.36363636363636" y="259.45454545454544" type="curve"/>
      <point x="119.72727272727273" y="246.45454545454547" type="line"/>
      <point x="119.72727272727273" y="584.5454545454545" type="line"/>
      <point x="530.9090909090909" y="584.5454545454545" type="line"/>
      <point x="506.45454545454544" y="622.0" type="line"/>
      <point x="-24.454545454545453" y="622.0" type="line"/>
      <point x="0.9090909090909092" y="584.5454545454545" type="line"/>
      <point x="79.81818181818181" y="584.5454545454545" type="line"/>
      <point x="79.81818181818181" y="213.54545454545453" type="line"/>
      <point x="116.0909090909091" y="190.0909090909091" type="line"/>
      <point x="207.36363636363637" y="287.54545454545456"/>
      <point x="315.3636363636364" y="377.54545454545456"/>
      <point x="404.6363636363636" y="426.27272727272725" type="curve"/>
      <point x="392.54545454545456" y="433.8181818181818" type="line"/>
      <point x="365.90909090909093" y="386.3636363636364"/>
      <point x="347.8181818181818" y="306.90909090909093"/>
      <point x="347.8181818181818" y="230.36363636363637" type="curve" smooth="yes"/>
      <point x="347.8181818181818" y="147.8181818181818"/>
      <point x="366.8181818181818" y="69.0"/>
    </contour>
  </outline>
</glyph>
<glyph name="dha-beng" format="2">
  <advance width="512.8181818181819"/>
  <unicode hex="09A7"/>
  <anchor x="417.3636363636364" y="21.363636363636363" name="bottom"/>
  <anchor x="424.6363636363636" y="60.90909090909091" name="bottom.rakaar"/>
  <anchor x="424.6363636363636" y="9.272727272727273" name="bottom.rvocalic"/>
  <anchor x="409.1818181818182" y="3.272727272727273" name="bottom.virama"/>
  <anchor x="424.6363636363636" y="584.5454545454545" name="top"/>
  <anchor x="427.6363636363636" y="584.5454545454545" name="topright"/>
  <anchor x="256.1818181818182" y="0.0" name="vedic"/>
  <outline>
    <contour>
      <point x="420.54545454545456" y="-8.454545454545455" type="line"/>
      <point x="424.6363636363636" y="-7.454545454545455" type="line"/>
      <point x="424.6363636363636" y="584.5454545454545" type="line"/>
      <point x="537.2727272727273" y="584.5454545454545" type="line"/>
      <point x="512.3636363636364" y="622.0" type="line"/>
      <point x="384.72727272727275" y="622.0" type="line"/>
      <point x="384.72727272727275" y="497.6363636363636" type="line"/>
      <point x="392.54545454545456" y="515.3636363636364" type="line"/>
      <point x="269.45454545454544" y="470.1818181818182"/>
      <point x="157.8181818181818" y="416.09090909090907"/>
      <point x="34.54545454545455" y="332.54545454545456" type="curve"/>
      <point x="63.27272727272727" y="258.1818181818182" type="line"/>
      <point x="201.0" y="223.9090909090909"/>
      <point x="315.1818181818182" y="147.45454545454547"/>
      <point x="388.09090909090907" y="18.09090909090909" type="curve"/>
    </contour>
    <contour>
      <point x="384.72727272727275" y="53.72727272727273" type="line"/>
      <point x="392.1818181818182" y="67.0" type="line"/>
      <point x="320.45454545454544" y="199.45454545454547"/>
      <point x="204.0909090909091" y="270.72727272727275"/>
      <point x="83.9090909090909" y="311.72727272727275" type="curve"/>
      <point x="90.45454545454545" y="294.45454545454544" type="line"/>
      <point x="195.1818181818182" y="370.8181818181818"/>
      <point x="308.72727272727275" y="420.27272727272725"/>
      <point x="394.90909090909093" y="453.45454545454544" type="curve"/>
      <point x="384.72727272727275" y="465.72727272727275" type="line"/>
    </contour>
    <contour>
      <point x="195.27272727272728" y="410.0" type="curve"/>
      <point x="214.0" y="434.27272727272725" type="line"/>
      <point x="162.9090909090909" y="443.0"/>
      <point x="122.18181818181819" y="470.72727272727275"/>
      <point x="122.18181818181819" y="515.6363636363636" type="curve" smooth="yes"/>
      <point x="122.18181818181819" y="561.0"/>
      <point x="153.36363636363637" y="578.9090909090909"/>
      <point x="185.63636363636363" y="578.9090909090909" type="curve" smooth="yes"/>
      <point x="195.0" y="578.9090909090909"/>
      <point x="204.45454545454547" y="577.9090909090909"/>
      <point x="213.0" y="574.9090909090909" type="curve"/>
      <point x="191.8181818181818" y="599.5454545454545" type="line"/>
      <point x="180.1818181818182" y="590.3636363636364"/>
      <point x="176.72727272727272" y="576.3636363636364"/>
      <point x="176.72727272727272" y="563.9090909090909" type="curve" smooth="yes"/>
      <point x="176.72727272727272" y="532.9090909090909"/>
      <point x="199.63636363636363" y="516.6363636363636"/>
      <point x="224.54545454545453" y="516.6363636363636" type="curve" smooth="yes"/>
      <point x="252.63636363636363" y="516.6363636363636"/>
      <point x="273.6363636363636" y="535.5454545454545"/>
      <point x="273.6363636363636" y="566.0909090909091" type="curve" smooth="yes"/>
      <point x="273.6363636363636" y="600.2727272727273"/>
      <point x="248.63636363636363" y="630.5454545454545"/>
      <point x="190.27272727272728" y="630.5454545454545" type="curve" smooth="yes"/>
      <point x="125.81818181818181" y="630.5454545454545"/>
      <point x="75.9090909090909" y="591.0909090909091"/>
      <point x="75.9090909090909" y="525.2727272727273" type="curve" smooth="yes"/>
      <point x="75.9090909090909" y="450.54545454545456"/>
      <point x="146.27272727272728" y="414.54545454545456"/>
    </contour>
  </outline>
</glyph>
<glyph name="na-beng" format="2">
  <advance width="509.0"/>
  <unicode hex="09A8"/>
  <anchor x="408.54545454545456" y="69.18181818181819" name="bottom"/>
  <anchor x="420.8181818181818" y="60.90909090909091" name="bottom.rakaar"/>
  <anchor x="420.8181818181818" y="8.727272727272727" name="bottom.rvocalic"/>
  <anchor x="405.3636363636364" y="3.272727272727273" name="bottom.virama"/>
  <anchor x="420.8181818181818" y="584.5454545454545" name="top"/>
  <anchor x="423.8181818181818" y="584.5454545454545" name="topright"/>
  <anchor x="254.27272727272728" y="0.0" name="vedic"/>
  <outline>
    <contour>
      <point x="416.72727272727275" y="-8.454545454545455" type="line"/>
      <point x="420.8181818181818" y="-7.454545454545455" type="line"/>
      <point x="420.8181818181818" y="584.5454545454545" type="line"/>
      <point x="533.4545454545455" y="584.5454545454545" type="line"/>
      <point x="508.54545454545456" y="622.0" type="line"/>
      <point x="-24.454545454545453" y="622.0" type="line"/>
      <point x="0.45454545454545503" y="584.5454545454545" type="line"/>
      <point x="380.90909090909093" y="584.5454545454545" type="line"/>
      <point x="380.90909090909093" y="282.72727272727275" type="line" smooth="yes"/>
      <point x="380.90909090909093" y="229.0909090909091"/>
      <point x="385.54545454545456" y="154.27272727272728"/>
      <point x="387.54545454545456" y="116.54545454545455" type="curve"/>
      <point x="394.1818181818182" y="110.54545454545455" type="line"/>
      <point x="386.45454545454544" y="232.63636363636363"/>
      <point x="307.3636363636364" y="409.1818181818182"/>
      <point x="145.0" y="409.1818181818182" type="curve" smooth="yes"/>
      <point x="83.81818181818181" y="409.1818181818182"/>
      <point x="42.54545454545455" y="375.3636363636364"/>
      <point x="42.54545454545455" y="320.1818181818182" type="curve" smooth="yes"/>
      <point x="42.54545454545455" y="271.09090909090907"/>
      <point x="71.0" y="235.45454545454544"/>
      <point x="125.63636363636364" y="235.45454545454544" type="curve" smooth="yes"/>
      <point x="173.72727272727272" y="235.45454545454544"/>
      <point x="200.72727272727272" y="265.54545454545456"/>
      <point x="200.72727272727272" y="308.45454545454544" type="curve" smooth="yes"/>
      <point x="200.72727272727272" y="330.8181818181818"/>
      <point x="193.36363636363637" y="354.1818181818182"/>
      <point x="175.45454545454544" y="364.3636363636364" type="curve"/>
      <point x="155.54545454545456" y="339.72727272727275" type="line"/>
      <point x="162.72727272727272" y="343.3636363636364"/>
      <point x="174.8181818181818" y="345.8181818181818"/>
      <point x="187.36363636363637" y="345.8181818181818" type="curve" smooth="yes"/>
      <point x="313.3636363636364" y="345.8181818181818"/>
      <point x="381.90909090909093" y="147.27272727272728"/>
      <point x="385.54545454545456" y="16.454545454545453" type="curve"/>
    </contour>
  </outline>
</glyph>
<glyph name="pa-beng" format="2">
  <advance width="624.6363636363636"/>
  <unicode hex="09AA"/>
  <anchor x="522.7272727272727" y="60.36363636363636" name="bottom"/>
  <anchor x="536.4545454545455" y="-9.363636363636363" name="bottom.rakaar"/>
  <anchor x="536.4545454545455" y="-1.0909090909090908" name="bottom.rvocalic"/>
  <anchor x="523.2727272727273" y="5.545454545454546" name="bottom.virama"/>
  <anchor x="536.4545454545455" y="553.1818181818181" name="top"/>
  <anchor x="522.3636363636364" y="557.4545454545455" name="topright"/>
  <anchor x="311.8181818181818" y="0.0" name="vedic"/>
  <outline>
    <contour>
      <point x="533.4545454545455" y="-18.18181818181818" type="line"/>
      <point x="536.4545454545455" y="-17.18181818181818" type="line"/>
      <point x="536.4545454545455" y="584.5454545454545" type="line"/>
      <point x="649.0909090909091" y="584.5454545454545" type="line"/>
      <point x="623.6363636363636" y="622.0" type="line"/>
      <point x="536.4545454545455" y="622.0" type="line"/>
      <point x="532.9090909090909" y="663.1818181818181" type="line"/>
      <point x="500.54545454545456" y="687.0909090909091" type="line"/>
      <point x="496.54545454545456" y="686.0909090909091" type="line"/>
      <point x="496.54545454545456" y="554.1818181818181" type="line" smooth="yes"/>
      <point x="496.54545454545456" y="501.8181818181818"/>
      <point x="498.09090909090907" y="455.27272727272725"/>
      <point x="500.1818181818182" y="399.1818181818182" type="curve"/>
      <point x="505.90909090909093" y="404.3636363636364" type="line"/>
      <point x="430.72727272727275" y="542.6363636363636"/>
      <point x="351.90909090909093" y="627.0"/>
      <point x="252.0909090909091" y="627.0" type="curve" smooth="yes"/>
      <point x="161.72727272727272" y="627.0"/>
      <point x="88.45454545454545" y="560.2727272727273"/>
      <point x="21.81818181818182" y="455.09090909090907" type="curve"/>
      <point x="71.36363636363636" y="406.27272727272725" type="line"/>
      <point x="89.0" y="417.9090909090909"/>
      <point x="107.36363636363636" y="428.9090909090909"/>
      <point x="140.1818181818182" y="428.9090909090909" type="curve" smooth="yes"/>
      <point x="183.45454545454547" y="428.9090909090909"/>
      <point x="202.1818181818182" y="398.3636363636364"/>
      <point x="202.1818181818182" y="357.72727272727275" type="curve" smooth="yes"/>
      <point x="202.1818181818182" y="312.0"/>
      <point x="183.63636363636363" y="278.45454545454544"/>
      <point x="157.8181818181818" y="253.1818181818182" type="curve"/>
      <point x="200.54545454545453" y="209.27272727272728" type="line"/>
      <point x="443.09090909090907" y="459.1818181818182" type="line"/>
      <point x="407.09090909090907" y="503.3636363636364" type="line"/>
      <point x="210.0" y="298.27272727272725" type="line"/>
      <point x="215.63636363636363" y="281.90909090909093" type="line"/>
      <point x="228.54545454545453" y="306.45454545454544"/>
      <point x="234.45454545454547" y="338.90909090909093"/>
      <point x="234.45454545454547" y="364.8181818181818" type="curve" smooth="yes"/>
      <point x="234.45454545454547" y="427.72727272727275"/>
      <point x="201.8181818181818" y="471.90909090909093"/>
      <point x="142.8181818181818" y="471.90909090909093" type="curve" smooth="yes"/>
      <point x="110.27272727272728" y="471.90909090909093"/>
      <point x="87.72727272727272" y="460.1818181818182"/>
      <point x="72.45454545454545" y="450.6363636363636" type="curve"/>
      <point x="87.81818181818181" y="441.27272727272725" type="line"/>
      <point x="146.0909090909091" y="533.0909090909091"/>
      <point x="205.54545454545456" y="574.5454545454545"/>
      <point x="264.3636363636364" y="574.5454545454545" type="curve" smooth="yes"/>
      <point x="356.54545454545456" y="574.5454545454545"/>
      <point x="427.1818181818182" y="482.72727272727275"/>
      <point x="503.0" y="347.6363636363636" type="curve"/>
      <point x="496.54545454545456" y="388.72727272727275" type="line"/>
      <point x="496.54545454545456" y="3.0" type="line"/>
    </contour>
  </outline>
</glyph>
<glyph name="pha-beng" format="2">
  <advance width="689.0909090909091"/>
  <unicode hex="09AB"/>
  <anchor x="428.45454545454544" y="21.363636363636363" name="bottom"/>
  <anchor x="435.72727272727275" y="60.90909090909091" name="bottom.rakaar"/>
  <anchor x="435.72727272727275" y="9.272727272727273" name="bottom.rvocalic"/>
  <anchor x="420.27272727272725" y="3.272727272727273" name="bottom.virama"/>
  <anchor x="435.72727272727275" y="584.5454545454545" name="top"/>
  <anchor x="438.72727272727275" y="584.5454545454545" name="topright"/>
  <anchor x="344.27272727272725" y="0.0" name="vedic"/>
  <outline>
    <contour>
      <point x="431.6363636363636" y="-8.454545454545455" type="line"/>
      <point x="435.72727272727275" y="-7.454545454545455" type="line"/>
      <point x="435.72727272727275" y="490.45454545454544" type="line"/>
      <point x="411.72727272727275" y="459.6363636363636" type="line"/>
      <point x="423.90909090909093" y="461.1818181818182"/>
      <point x="436.45454545454544" y="462.1818181818182"/>
      <point x="447.45454545454544" y="462.1818181818182" type="curve" smooth="yes"/>
      <point x="556.8181818181819" y="462.1818181818182"/>
      <point x="625.6363636363636" y="411.45454545454544"/>
      <point x="625.6363636363636" y="330.45454545454544" type="curve" smooth="yes"/>
      <point x="625.6363636363636" y="314.54545454545456"/>
      <point x="622.5454545454545" y="298.27272727272725"/>
      <point x="612.6363636363636" y="286.72727272727275" type="curve"/>
      <point x="628.0909090909091" y="289.54545454545456" type="line"/>
      <point x="620.2727272727273" y="322.72727272727275"/>
      <point x="600.4545454545455" y="339.90909090909093"/>
      <point x="572.0909090909091" y="339.90909090909093" type="curve" smooth="yes"/>
      <point x="535.4545454545455" y="339.90909090909093"/>
      <point x="515.7272727272727" y="313.8181818181818"/>
      <point x="515.7272727272727" y="280.8181818181818" type="curve" smooth="yes"/>
      <point x="515.7272727272727" y="248.0909090909091"/>
      <point x="537.7272727272727" y="219.1818181818182"/>
      <point x="579.4545454545455" y="219.1818181818182" type="curve" smooth="yes"/>
      <point x="634.9090909090909" y="219.1818181818182"/>
      <point x="659.0" y="268.54545454545456"/>
      <point x="659.0" y="330.45454545454544" type="curve" smooth="yes"/>
      <point x="659.0" y="455.72727272727275"/>
      <point x="544.4545454545455" y="521.0"/>
      <point x="432.3636363636364" y="521.0" type="curve" smooth="yes"/>
      <point x="417.0" y="521.0"/>
      <point x="406.3636363636364" y="520.0"/>
      <point x="395.8181818181818" y="517.9090909090909" type="curve"/>
      <point x="395.8181818181818" y="53.72727272727273" type="line"/>
      <point x="403.27272727272725" y="67.0" type="line"/>
      <point x="331.1818181818182" y="192.9090909090909"/>
      <point x="217.27272727272728" y="251.54545454545453"/>
      <point x="94.54545454545455" y="290.8181818181818" type="curve"/>
      <point x="101.0909090909091" y="273.54545454545456" type="line"/>
      <point x="155.27272727272728" y="319.0"/>
      <point x="235.27272727272728" y="362.90909090909093"/>
      <point x="297.3636363636364" y="395.09090909090907" type="curve"/>
      <point x="257.27272727272725" y="470.90909090909093"/>
      <point x="173.27272727272728" y="552.0"/>
      <point x="45.81818181818182" y="594.7272727272727" type="curve"/>
      <point x="50.72727272727273" y="584.5454545454545" type="line"/>
      <point x="713.5454545454545" y="584.5454545454545" type="line"/>
      <point x="688.6363636363636" y="622.0" type="line"/>
      <point x="-24.454545454545453" y="622.0" type="line"/>
      <point x="29.545454545454547" y="537.0" type="line"/>
      <point x="131.54545454545453" y="517.2727272727273"/>
      <point x="199.1818181818182" y="468.6363636363636"/>
      <point x="256.8181818181818" y="408.8181818181818" type="curve"/>
      <point x="253.1818181818182" y="438.54545454545456" type="line"/>
      <point x="195.27272727272728" y="412.72727272727275"/>
      <point x="111.0909090909091" y="360.54545454545456"/>
      <point x="45.18181818181818" y="311.6363636363636" type="curve"/>
      <point x="73.9090909090909" y="237.27272727272728" type="line"/>
      <point x="224.0" y="205.9090909090909"/>
      <point x="323.45454545454544" y="140.54545454545453"/>
      <point x="399.1818181818182" y="18.09090909090909" type="curve"/>
    </contour>
  </outline>
</glyph>
<glyph name="ba-beng" format="2">
  <advance width="516.4545454545455"/>
  <unicode hex="09AC"/>
  <anchor x="421.0" y="21.363636363636363" name="bottom"/>
  <anchor x="428.27272727272725" y="60.90909090909091" name="bottom.rakaar"/>
  <anchor x="428.27272727272725" y="7.090909090909091" name="bottom.rvocalic"/>
  <anchor x="412.8181818181818" y="3.272727272727273" name="bottom.virama"/>
  <anchor x="208.54545454545453" y="77.0909090909091" name="nukta"/>
  <anchor x="428.27272727272725" y="584.5454545454545" name="top"/>
  <anchor x="431.27272727272725" y="584.5454545454545" name="topright"/>
  <anchor x="257.72727272727275" y="0.0" name="vedic"/>
  <outline>
    <contour>
      <point x="424.1818181818182" y="-8.454545454545455" type="line"/>
      <point x="428.27272727272725" y="-7.454545454545455" type="line"/>
      <point x="428.27272727272725" y="584.5454545454545" type="line"/>
      <point x="540.9090909090909" y="584.5454545454545" type="line"/>
      <point x="516.0" y="622.0" type="line"/>
      <point x="-24.454545454545453" y="622.0" type="line"/>
      <point x="0.45454545454545503" y="584.5454545454545" type="line"/>
      <point x="388.3636363636364" y="584.5454545454545" type="line"/>
      <point x="388.3636363636364" y="501.27272727272725" type="line"/>
      <point x="396.1818181818182" y="519.0" type="line"/>
      <point x="268.54545454545456" y="478.3636363636364"/>
      <point x="159.1818181818182" y="419.72727272727275"/>
      <point x="38.18181818181818" y="336.1818181818182" type="curve"/>
      <point x="66.9090909090909" y="261.8181818181818" type="line"/>
      <point x="211.1818181818182" y="229.72727272727272"/>
      <point x="317.45454545454544" y="146.72727272727272"/>
      <point x="391.72727272727275" y="18.09090909090909" type="curve"/>
    </contour>
    <contour>
      <point x="388.3636363636364" y="53.72727272727273" type="line"/>
      <point x="395.8181818181818" y="67.0" type="line"/>
      <point x="321.90909090909093" y="202.36363636363637"/>
      <point x="207.1818181818182" y="279.1818181818182"/>
      <point x="87.54545454545455" y="315.3636363636364" type="curve"/>
      <point x="94.0909090909091" y="298.6363636363636" type="line"/>
      <point x="196.54545454545453" y="375.0"/>
      <point x="307.8181818181818" y="429.0"/>
      <point x="398.54545454545456" y="457.6363636363636" type="curve"/>
      <point x="388.3636363636364" y="471.54545454545456" type="line"/>
    </contour>
  </outline>
</glyph>
